G04 Layer_Physical_Order=2*
G04 Layer_Color=32768*
%FSLAX44Y44*%
%MOMM*%
G71*
G01*
G75*
%ADD51C,1.0160*%
%ADD52C,1.2954*%
%ADD53C,1.7660*%
%ADD54O,1.6660X1.8660*%
%ADD55O,1.8410X2.5160*%
%ADD56R,4.5720X3.4544*%
%ADD57C,4.3160*%
%ADD58C,2.1590*%
%ADD59C,1.3160*%
D51*
X10116820Y5100000D02*
X10200000D01*
X10345420D01*
Y3400000D02*
Y5100000D01*
X10116820Y3400000D02*
X10345420Y3400000D01*
X10116820Y3400000D02*
Y5100000D01*
D52*
X10152500Y4455240D02*
D03*
Y4470480D02*
D03*
Y4350480D02*
D03*
Y4335240D02*
D03*
Y4215240D02*
D03*
Y4230480D02*
D03*
Y4110480D02*
D03*
Y4095240D02*
D03*
Y3975240D02*
D03*
Y3990480D02*
D03*
X10310000Y4470480D02*
D03*
Y4455240D02*
D03*
Y4335240D02*
D03*
Y4350480D02*
D03*
Y4230480D02*
D03*
Y4215240D02*
D03*
Y4095240D02*
D03*
Y4110480D02*
D03*
Y3990480D02*
D03*
Y3975240D02*
D03*
X10149840Y4528820D02*
D03*
X10139680D02*
D03*
X10132060Y4686300D02*
D03*
D53*
X10325800Y4752700D02*
D03*
X10313101D02*
D03*
X10300400D02*
D03*
X10287700D02*
D03*
X10275000D02*
D03*
X10313101Y4740000D02*
D03*
X10275000D02*
D03*
D54*
X10257250Y5041250D02*
D03*
X10212750D02*
D03*
D55*
X10194125Y5072500D02*
D03*
X10275875D02*
D03*
D56*
X10228580Y4503430D02*
D03*
D57*
Y3860880D02*
D03*
Y4416980D02*
D03*
D58*
X10330000Y5020000D02*
D03*
Y4994600D02*
D03*
Y4969200D02*
D03*
Y4943800D02*
D03*
Y4918400D02*
D03*
Y4893000D02*
D03*
Y4816800D02*
D03*
Y4791400D02*
D03*
X10130000Y5020000D02*
D03*
Y4994600D02*
D03*
Y4969200D02*
D03*
Y4943800D02*
D03*
Y4918400D02*
D03*
Y4893000D02*
D03*
Y4816800D02*
D03*
Y4791400D02*
D03*
D59*
X10183876Y4270756D02*
D03*
X10307421Y4615770D02*
D03*
X10299700Y4549140D02*
D03*
X10156952Y4243832D02*
D03*
X10220960Y4867402D02*
D03*
X10161270Y3579368D02*
D03*
X10246001Y3575409D02*
D03*
X10180320Y4682500D02*
D03*
X10197500Y4446778D02*
D03*
X10212832Y4972050D02*
D03*
X10197926Y4979416D02*
D03*
X10222500Y4693920D02*
D03*
X10220079Y3605370D02*
D03*
X10192500Y4470480D02*
D03*
X10233660Y4861052D02*
D03*
X10243660Y4860969D02*
D03*
X10227500Y4721173D02*
D03*
X10237580Y4714270D02*
D03*
X10252500Y4756448D02*
D03*
X10237470Y4699792D02*
D03*
X10175000Y4705604D02*
D03*
X10165469Y3601560D02*
D03*
X10184520D02*
D03*
X10224000Y3568269D02*
D03*
X10205000Y3628729D02*
D03*
X10239130Y3602830D02*
D03*
X10258180D02*
D03*
X10129229Y4600000D02*
D03*
X10133729Y4630000D02*
D03*
X10165730Y4652500D02*
D03*
X10212500Y4600270D02*
D03*
X10298678Y4615456D02*
D03*
X10294270Y4687500D02*
D03*
X10228658Y4816431D02*
D03*
X10258051Y4797820D02*
D03*
X10188329Y4894420D02*
D03*
X10312500Y4685771D02*
D03*
X10279539Y4974590D02*
D03*
M02*
