G04 Layer_Color=255*
%FSLAX44Y44*%
%MOMM*%
G71*
G01*
G75*
%ADD40C,0.4572*%
%ADD41C,1.1000*%
%ADD42R,1.1000X1.1000*%
G04:AMPARAMS|DCode=43|XSize=1.05mm|YSize=1.25mm|CornerRadius=0.525mm|HoleSize=0mm|Usage=FLASHONLY|Rotation=180.000|XOffset=0mm|YOffset=0mm|HoleType=Round|Shape=RoundedRectangle|*
%AMROUNDEDRECTD43*
21,1,1.0500,0.2000,0,0,180.0*
21,1,0.0000,1.2500,0,0,180.0*
1,1,1.0500,0.0000,0.1000*
1,1,1.0500,0.0000,0.1000*
1,1,1.0500,0.0000,-0.1000*
1,1,1.0500,0.0000,-0.1000*
%
%ADD43ROUNDEDRECTD43*%
G04:AMPARAMS|DCode=44|XSize=2.1mm|YSize=1.9mm|CornerRadius=0.494mm|HoleSize=0mm|Usage=FLASHONLY|Rotation=180.000|XOffset=0mm|YOffset=0mm|HoleType=Round|Shape=RoundedRectangle|*
%AMROUNDEDRECTD44*
21,1,2.1000,0.9120,0,0,180.0*
21,1,1.1120,1.9000,0,0,180.0*
1,1,0.9880,-0.5560,0.4560*
1,1,0.9880,0.5560,0.4560*
1,1,0.9880,0.5560,-0.4560*
1,1,0.9880,-0.5560,-0.4560*
%
%ADD44ROUNDEDRECTD44*%
%ADD45R,4.5720X3.3020*%
%ADD46C,4.5000*%
%ADD47R,4.5000X4.5000*%
%ADD48R,1.5240X1.5240*%
%ADD49C,1.5240*%
D40*
X10152500Y4455240D02*
D03*
Y4470480D02*
D03*
Y4350480D02*
D03*
Y4335240D02*
D03*
Y4215240D02*
D03*
Y4230480D02*
D03*
Y4110480D02*
D03*
Y4095240D02*
D03*
Y3975240D02*
D03*
Y3990480D02*
D03*
X10310000Y4470480D02*
D03*
Y4455240D02*
D03*
Y4335240D02*
D03*
Y4350480D02*
D03*
Y4230480D02*
D03*
Y4215240D02*
D03*
Y4095240D02*
D03*
Y4110480D02*
D03*
Y3990480D02*
D03*
Y3975240D02*
D03*
D41*
X10325800Y4752700D02*
D03*
X10313101D02*
D03*
X10300400D02*
D03*
X10287700D02*
D03*
X10275000D02*
D03*
X10325800Y4740000D02*
D03*
X10313101D02*
D03*
X10300400D02*
D03*
X10287700D02*
D03*
D42*
X10275000D02*
D03*
D43*
X10257250Y5041250D02*
D03*
X10212750D02*
D03*
D44*
X10198500Y5072500D02*
D03*
X10271500D02*
D03*
D45*
X10228580Y3774430D02*
D03*
Y4503430D02*
D03*
D46*
Y3860880D02*
D03*
D47*
Y4416980D02*
D03*
D48*
X10330000Y5020000D02*
D03*
X10130000D02*
D03*
D49*
X10330000Y4994600D02*
D03*
Y4969200D02*
D03*
Y4943800D02*
D03*
Y4918400D02*
D03*
Y4893000D02*
D03*
Y4867600D02*
D03*
Y4842200D02*
D03*
Y4816800D02*
D03*
Y4791400D02*
D03*
X10130000Y4994600D02*
D03*
Y4969200D02*
D03*
Y4943800D02*
D03*
Y4918400D02*
D03*
Y4893000D02*
D03*
Y4867600D02*
D03*
Y4842200D02*
D03*
Y4816800D02*
D03*
Y4791400D02*
D03*
M02*
