G04 Layer_Color=255*
%FSLAX44Y44*%
%MOMM*%
G71*
G01*
G75*
G04:AMPARAMS|DCode=10|XSize=0.32mm|YSize=0.8mm|CornerRadius=0.08mm|HoleSize=0mm|Usage=FLASHONLY|Rotation=90.000|XOffset=0mm|YOffset=0mm|HoleType=Round|Shape=RoundedRectangle|*
%AMROUNDEDRECTD10*
21,1,0.3200,0.6400,0,0,90.0*
21,1,0.1600,0.8000,0,0,90.0*
1,1,0.1600,0.3200,0.0800*
1,1,0.1600,0.3200,-0.0800*
1,1,0.1600,-0.3200,-0.0800*
1,1,0.1600,-0.3200,0.0800*
%
%ADD10ROUNDEDRECTD10*%
G04:AMPARAMS|DCode=11|XSize=0.32mm|YSize=0.8mm|CornerRadius=0.08mm|HoleSize=0mm|Usage=FLASHONLY|Rotation=0.000|XOffset=0mm|YOffset=0mm|HoleType=Round|Shape=RoundedRectangle|*
%AMROUNDEDRECTD11*
21,1,0.3200,0.6400,0,0,0.0*
21,1,0.1600,0.8000,0,0,0.0*
1,1,0.1600,0.0800,-0.3200*
1,1,0.1600,-0.0800,-0.3200*
1,1,0.1600,-0.0800,0.3200*
1,1,0.1600,0.0800,0.3200*
%
%ADD11ROUNDEDRECTD11*%
%ADD12R,0.2969X0.8499*%
%ADD13R,2.4001X1.6500*%
%ADD14R,0.7000X0.2799*%
%ADD15R,1.3000X1.8999*%
%ADD16R,1.0000X2.8001*%
%ADD17R,1.0000X0.8001*%
%ADD18R,1.0000X1.1999*%
%ADD19R,0.7000X1.1999*%
%ADD20R,0.9000X0.6000*%
%ADD21R,1.6002X1.0922*%
G04:AMPARAMS|DCode=22|XSize=1.8mm|YSize=1.2mm|CornerRadius=0.15mm|HoleSize=0mm|Usage=FLASHONLY|Rotation=270.000|XOffset=0mm|YOffset=0mm|HoleType=Round|Shape=RoundedRectangle|*
%AMROUNDEDRECTD22*
21,1,1.8000,0.9000,0,0,270.0*
21,1,1.5000,1.2000,0,0,270.0*
1,1,0.3000,-0.4500,-0.7500*
1,1,0.3000,-0.4500,0.7500*
1,1,0.3000,0.4500,0.7500*
1,1,0.3000,0.4500,-0.7500*
%
%ADD22ROUNDEDRECTD22*%
G04:AMPARAMS|DCode=23|XSize=0.6mm|YSize=0.6mm|CornerRadius=0.06mm|HoleSize=0mm|Usage=FLASHONLY|Rotation=180.000|XOffset=0mm|YOffset=0mm|HoleType=Round|Shape=RoundedRectangle|*
%AMROUNDEDRECTD23*
21,1,0.6000,0.4800,0,0,180.0*
21,1,0.4800,0.6000,0,0,180.0*
1,1,0.1200,-0.2400,0.2400*
1,1,0.1200,0.2400,0.2400*
1,1,0.1200,0.2400,-0.2400*
1,1,0.1200,-0.2400,-0.2400*
%
%ADD23ROUNDEDRECTD23*%
G04:AMPARAMS|DCode=24|XSize=1.4mm|YSize=1mm|CornerRadius=0.125mm|HoleSize=0mm|Usage=FLASHONLY|Rotation=0.000|XOffset=0mm|YOffset=0mm|HoleType=Round|Shape=RoundedRectangle|*
%AMROUNDEDRECTD24*
21,1,1.4000,0.7500,0,0,0.0*
21,1,1.1500,1.0000,0,0,0.0*
1,1,0.2500,0.5750,-0.3750*
1,1,0.2500,-0.5750,-0.3750*
1,1,0.2500,-0.5750,0.3750*
1,1,0.2500,0.5750,0.3750*
%
%ADD24ROUNDEDRECTD24*%
G04:AMPARAMS|DCode=25|XSize=1.3mm|YSize=0.8mm|CornerRadius=0.1mm|HoleSize=0mm|Usage=FLASHONLY|Rotation=180.000|XOffset=0mm|YOffset=0mm|HoleType=Round|Shape=RoundedRectangle|*
%AMROUNDEDRECTD25*
21,1,1.3000,0.6000,0,0,180.0*
21,1,1.1000,0.8000,0,0,180.0*
1,1,0.2000,-0.5500,0.3000*
1,1,0.2000,0.5500,0.3000*
1,1,0.2000,0.5500,-0.3000*
1,1,0.2000,-0.5500,-0.3000*
%
%ADD25ROUNDEDRECTD25*%
%ADD26R,1.0922X1.6002*%
%ADD27R,0.6000X0.9000*%
G04:AMPARAMS|DCode=28|XSize=2mm|YSize=1.2mm|CornerRadius=0.15mm|HoleSize=0mm|Usage=FLASHONLY|Rotation=180.000|XOffset=0mm|YOffset=0mm|HoleType=Round|Shape=RoundedRectangle|*
%AMROUNDEDRECTD28*
21,1,2.0000,0.9000,0,0,180.0*
21,1,1.7000,1.2000,0,0,180.0*
1,1,0.3000,-0.8500,0.4500*
1,1,0.3000,0.8500,0.4500*
1,1,0.3000,0.8500,-0.4500*
1,1,0.3000,-0.8500,-0.4500*
%
%ADD28ROUNDEDRECTD28*%
G04:AMPARAMS|DCode=29|XSize=2.7mm|YSize=1.15mm|CornerRadius=0.1437mm|HoleSize=0mm|Usage=FLASHONLY|Rotation=0.000|XOffset=0mm|YOffset=0mm|HoleType=Round|Shape=RoundedRectangle|*
%AMROUNDEDRECTD29*
21,1,2.7000,0.8625,0,0,0.0*
21,1,2.4125,1.1500,0,0,0.0*
1,1,0.2875,1.2063,-0.4313*
1,1,0.2875,-1.2063,-0.4313*
1,1,0.2875,-1.2063,0.4313*
1,1,0.2875,1.2063,0.4313*
%
%ADD29ROUNDEDRECTD29*%
G04:AMPARAMS|DCode=30|XSize=1.2mm|YSize=1.35mm|CornerRadius=0.15mm|HoleSize=0mm|Usage=FLASHONLY|Rotation=180.000|XOffset=0mm|YOffset=0mm|HoleType=Round|Shape=RoundedRectangle|*
%AMROUNDEDRECTD30*
21,1,1.2000,1.0500,0,0,180.0*
21,1,0.9000,1.3500,0,0,180.0*
1,1,0.3000,-0.4500,0.5250*
1,1,0.3000,0.4500,0.5250*
1,1,0.3000,0.4500,-0.5250*
1,1,0.3000,-0.4500,-0.5250*
%
%ADD30ROUNDEDRECTD30*%
%ADD31R,0.4000X1.3500*%
%ADD32R,0.5588X1.3208*%
G04:AMPARAMS|DCode=33|XSize=1.8mm|YSize=1.2mm|CornerRadius=0.15mm|HoleSize=0mm|Usage=FLASHONLY|Rotation=180.000|XOffset=0mm|YOffset=0mm|HoleType=Round|Shape=RoundedRectangle|*
%AMROUNDEDRECTD33*
21,1,1.8000,0.9000,0,0,180.0*
21,1,1.5000,1.2000,0,0,180.0*
1,1,0.3000,-0.7500,0.4500*
1,1,0.3000,0.7500,0.4500*
1,1,0.3000,0.7500,-0.4500*
1,1,0.3000,-0.7500,-0.4500*
%
%ADD33ROUNDEDRECTD33*%
%ADD34R,0.5500X0.6000*%
%ADD40C,0.4572*%
%ADD41C,1.1000*%
%ADD42R,1.1000X1.1000*%
G04:AMPARAMS|DCode=43|XSize=1.05mm|YSize=1.25mm|CornerRadius=0.525mm|HoleSize=0mm|Usage=FLASHONLY|Rotation=180.000|XOffset=0mm|YOffset=0mm|HoleType=Round|Shape=RoundedRectangle|*
%AMROUNDEDRECTD43*
21,1,1.0500,0.2000,0,0,180.0*
21,1,0.0000,1.2500,0,0,180.0*
1,1,1.0500,0.0000,0.1000*
1,1,1.0500,0.0000,0.1000*
1,1,1.0500,0.0000,-0.1000*
1,1,1.0500,0.0000,-0.1000*
%
%ADD43ROUNDEDRECTD43*%
G04:AMPARAMS|DCode=44|XSize=2.1mm|YSize=1.9mm|CornerRadius=0.494mm|HoleSize=0mm|Usage=FLASHONLY|Rotation=180.000|XOffset=0mm|YOffset=0mm|HoleType=Round|Shape=RoundedRectangle|*
%AMROUNDEDRECTD44*
21,1,2.1000,0.9120,0,0,180.0*
21,1,1.1120,1.9000,0,0,180.0*
1,1,0.9880,-0.5560,0.4560*
1,1,0.9880,0.5560,0.4560*
1,1,0.9880,0.5560,-0.4560*
1,1,0.9880,-0.5560,-0.4560*
%
%ADD44ROUNDEDRECTD44*%
%ADD45R,4.5720X3.3020*%
%ADD46C,4.5000*%
%ADD47R,4.5000X4.5000*%
%ADD48R,1.5240X1.5240*%
%ADD49C,1.5240*%
D10*
X10173000Y4687500D02*
D03*
Y4682500D02*
D03*
Y4677500D02*
D03*
Y4672500D02*
D03*
Y4667500D02*
D03*
Y4662500D02*
D03*
Y4657500D02*
D03*
Y4652500D02*
D03*
Y4647500D02*
D03*
Y4642500D02*
D03*
Y4637500D02*
D03*
Y4632500D02*
D03*
Y4627500D02*
D03*
Y4622500D02*
D03*
Y4617500D02*
D03*
Y4612500D02*
D03*
X10287000D02*
D03*
Y4617500D02*
D03*
Y4622500D02*
D03*
Y4627500D02*
D03*
Y4632500D02*
D03*
Y4637500D02*
D03*
Y4642500D02*
D03*
Y4647500D02*
D03*
Y4652500D02*
D03*
Y4657500D02*
D03*
Y4662500D02*
D03*
Y4667500D02*
D03*
Y4672500D02*
D03*
Y4677500D02*
D03*
Y4682500D02*
D03*
Y4687500D02*
D03*
D11*
X10192500Y4593000D02*
D03*
X10197500D02*
D03*
X10202500D02*
D03*
X10207500D02*
D03*
X10212500D02*
D03*
X10217500D02*
D03*
X10222500D02*
D03*
X10227500D02*
D03*
X10232500D02*
D03*
X10237500D02*
D03*
X10242500D02*
D03*
X10247500D02*
D03*
X10252500D02*
D03*
X10257500D02*
D03*
X10262500D02*
D03*
X10267500D02*
D03*
Y4707000D02*
D03*
X10262500D02*
D03*
X10257500D02*
D03*
X10252500D02*
D03*
X10247500D02*
D03*
X10242500D02*
D03*
X10237500D02*
D03*
X10232500D02*
D03*
X10227500D02*
D03*
X10222500D02*
D03*
X10217500D02*
D03*
X10212500D02*
D03*
X10207500D02*
D03*
X10202500D02*
D03*
X10197500D02*
D03*
X10192500D02*
D03*
D12*
X10223660Y4823950D02*
D03*
X10228658D02*
D03*
X10233660D02*
D03*
X10238661D02*
D03*
X10243660D02*
D03*
Y4853450D02*
D03*
X10238661D02*
D03*
X10233660D02*
D03*
X10228658D02*
D03*
X10223660D02*
D03*
D13*
X10233660Y4838700D02*
D03*
D14*
X10218659Y4841199D02*
D03*
Y4836201D02*
D03*
X10248661Y4841199D02*
D03*
Y4836201D02*
D03*
D15*
X10296001Y3407999D02*
D03*
D16*
X10161000Y3412500D02*
D03*
D17*
Y3454001D02*
D03*
D18*
Y3515999D02*
D03*
X10272501Y3558999D02*
D03*
D19*
X10170499D02*
D03*
X10179999D02*
D03*
X10191000D02*
D03*
X10202000D02*
D03*
X10213001D02*
D03*
X10224000D02*
D03*
X10235000D02*
D03*
X10246001D02*
D03*
X10257000D02*
D03*
D20*
X10148000Y4600000D02*
D03*
X10137000D02*
D03*
X10235500Y4737500D02*
D03*
X10224500D02*
D03*
D21*
X10290811Y4954270D02*
D03*
Y4974590D02*
D03*
X10145000Y4650320D02*
D03*
Y4630000D02*
D03*
D22*
X10253979Y4953970D02*
D03*
Y4979970D02*
D03*
D23*
X10191750Y4973240D02*
D03*
Y4963240D02*
D03*
D24*
X10260330Y4895960D02*
D03*
Y4877960D02*
D03*
X10213340Y4796900D02*
D03*
Y4778900D02*
D03*
D25*
X10241281Y4896960D02*
D03*
Y4876960D02*
D03*
X10279380D02*
D03*
Y4896960D02*
D03*
X10229850Y3582830D02*
D03*
Y3602830D02*
D03*
X10194290Y3601560D02*
D03*
Y3581560D02*
D03*
X10177780Y4894420D02*
D03*
Y4874420D02*
D03*
X10198100D02*
D03*
Y4894420D02*
D03*
X10248900Y3582830D02*
D03*
Y3602830D02*
D03*
X10267950D02*
D03*
Y3582830D02*
D03*
X10175240Y3601560D02*
D03*
Y3581560D02*
D03*
D26*
X10225320Y3640000D02*
D03*
X10205000D02*
D03*
X10154680Y4727500D02*
D03*
X10175000D02*
D03*
D27*
X10312500Y4597000D02*
D03*
Y4608000D02*
D03*
Y4667000D02*
D03*
Y4678000D02*
D03*
X10190480Y5003380D02*
D03*
Y5014380D02*
D03*
D28*
X10284460Y4823220D02*
D03*
Y4793220D02*
D03*
D29*
X10241281Y4797820D02*
D03*
Y4767820D02*
D03*
D30*
X10220960Y4877460D02*
D03*
Y4896460D02*
D03*
D31*
X10248000Y5044500D02*
D03*
X10241500D02*
D03*
X10235000D02*
D03*
X10228500D02*
D03*
X10222000D02*
D03*
D32*
X10212832Y4954524D02*
D03*
X10222230D02*
D03*
X10231628D02*
D03*
Y4981956D02*
D03*
X10212832D02*
D03*
D33*
X10210500Y4930140D02*
D03*
X10236500D02*
D03*
D34*
X10201910Y5003880D02*
D03*
Y5013880D02*
D03*
D40*
X10152500Y4455240D02*
D03*
Y4470480D02*
D03*
Y4350480D02*
D03*
Y4335240D02*
D03*
Y4215240D02*
D03*
Y4230480D02*
D03*
Y4110480D02*
D03*
Y4095240D02*
D03*
Y3975240D02*
D03*
Y3990480D02*
D03*
X10310000Y4470480D02*
D03*
Y4455240D02*
D03*
Y4335240D02*
D03*
Y4350480D02*
D03*
Y4230480D02*
D03*
Y4215240D02*
D03*
Y4095240D02*
D03*
Y4110480D02*
D03*
Y3990480D02*
D03*
Y3975240D02*
D03*
D41*
X10325800Y4752700D02*
D03*
X10313101D02*
D03*
X10300400D02*
D03*
X10287700D02*
D03*
X10275000D02*
D03*
X10325800Y4740000D02*
D03*
X10313101D02*
D03*
X10300400D02*
D03*
X10287700D02*
D03*
D42*
X10275000D02*
D03*
D43*
X10257250Y5041250D02*
D03*
X10212750D02*
D03*
D44*
X10198500Y5072500D02*
D03*
X10271500D02*
D03*
D45*
X10228580Y3774430D02*
D03*
Y4503430D02*
D03*
D46*
Y3860880D02*
D03*
D47*
Y4416980D02*
D03*
D48*
X10330000Y5020000D02*
D03*
X10130000D02*
D03*
D49*
X10330000Y4994600D02*
D03*
Y4969200D02*
D03*
Y4943800D02*
D03*
Y4918400D02*
D03*
Y4893000D02*
D03*
Y4867600D02*
D03*
Y4842200D02*
D03*
Y4816800D02*
D03*
Y4791400D02*
D03*
X10130000Y4994600D02*
D03*
Y4969200D02*
D03*
Y4943800D02*
D03*
Y4918400D02*
D03*
Y4893000D02*
D03*
Y4867600D02*
D03*
Y4842200D02*
D03*
Y4816800D02*
D03*
Y4791400D02*
D03*
M02*
