G04 Layer_Color=16711935*
%FSLAX44Y44*%
%MOMM*%
G71*
G01*
G75*
%ADD66C,0.1000*%
%ADD112C,0.0500*%
%ADD113C,0.0762*%
D66*
X10194000Y4691000D02*
G03*
X10194000Y4691000I-5000J0D01*
G01*
X10180000Y4600000D02*
Y4700000D01*
X10280000Y4600000D02*
Y4700000D01*
X10180000D02*
X10280000D01*
X10180000Y4600000D02*
X10280000D01*
X10187730Y5003630D02*
Y5014130D01*
X10193230Y5003630D02*
Y5014130D01*
X10187730Y5003630D02*
X10193230D01*
X10187730Y5014130D02*
X10193230D01*
X10224750Y4734750D02*
X10235250D01*
X10224750Y4740250D02*
X10235250D01*
Y4734750D02*
Y4740250D01*
X10224750Y4734750D02*
Y4740250D01*
X10137250Y4597250D02*
X10147750D01*
X10137250Y4602750D02*
X10147750D01*
Y4597250D02*
Y4602750D01*
X10137250Y4597250D02*
Y4602750D01*
X10309750Y4667250D02*
Y4677751D01*
X10315250Y4667250D02*
Y4677751D01*
X10309750Y4667250D02*
X10315250D01*
X10309750Y4677751D02*
X10315250D01*
X10309750Y4597249D02*
Y4607750D01*
X10315250Y4597249D02*
Y4607750D01*
X10309750Y4597249D02*
X10315250D01*
X10309750Y4607750D02*
X10315250D01*
X10194500Y5041500D02*
X10275500D01*
X10194500D02*
Y5098750D01*
X10275500D01*
Y5041500D02*
Y5098750D01*
Y5092750D02*
X10281500Y5098750D01*
X10275500D02*
X10281500D01*
X10188500D02*
X10194500Y5092750D01*
X10188500Y5098750D02*
X10194500D01*
X10199160Y5003380D02*
Y5014380D01*
X10204660Y5003380D02*
Y5014380D01*
X10199160Y5003380D02*
X10204660D01*
X10199160Y5014380D02*
X10204660D01*
D112*
X10250380Y4981964D02*
Y4982970D01*
X10247980D02*
X10259980D01*
X10247980Y4981964D02*
Y4982970D01*
X10259980Y4981964D02*
Y4982970D01*
X10257581Y4981964D02*
Y4982970D01*
Y4950970D02*
Y4951976D01*
X10247980Y4950970D02*
X10259980D01*
Y4951976D01*
X10247980Y4950970D02*
Y4951976D01*
X10250380Y4950970D02*
Y4951976D01*
X10261980Y4951970D02*
Y4981970D01*
X10245980Y4951970D02*
X10261980D01*
X10261350Y4952599D02*
X10261980Y4951970D01*
X10261350Y4981341D02*
X10261980Y4981970D01*
X10245980D02*
X10261980D01*
X10246609Y4952599D02*
X10261350D01*
X10246609Y4976341D02*
X10261350D01*
Y4952599D02*
Y4981341D01*
X10246609D02*
X10261350D01*
X10245980Y4951970D02*
Y4981970D01*
Y4951970D02*
X10246609Y4952599D01*
Y4981341D01*
X10245980Y4981970D02*
X10246609Y4981341D01*
X10238494Y4933740D02*
X10239500D01*
Y4924140D02*
Y4936140D01*
X10238494D02*
X10239500D01*
X10238494Y4924140D02*
X10239500D01*
X10238494Y4926540D02*
X10239500D01*
X10207500D02*
X10208506D01*
X10207500Y4924140D02*
Y4936140D01*
Y4924140D02*
X10208506D01*
X10207500Y4936140D02*
X10208506D01*
X10207500Y4933740D02*
X10208506D01*
X10208500Y4922140D02*
X10238500D01*
X10208500D02*
Y4938140D01*
Y4922140D02*
X10209129Y4922769D01*
X10237871D02*
X10238500Y4922140D01*
Y4938140D01*
X10209129Y4922769D02*
Y4937511D01*
X10232870Y4922769D02*
Y4937511D01*
X10209129Y4922769D02*
X10237871D01*
Y4937511D01*
X10208500Y4938140D02*
X10238500D01*
X10208500D02*
X10209129Y4937511D01*
X10237871D01*
X10238500Y4938140D01*
X10214734Y4878235D02*
X10227186D01*
X10214734D02*
Y4895685D01*
Y4883234D02*
X10227186D01*
Y4878235D02*
Y4895685D01*
X10214734D02*
X10227186D01*
Y4878235D02*
X10227710Y4877710D01*
X10214210D02*
X10227710D01*
X10214210D02*
X10214734Y4878235D01*
X10227186Y4895685D02*
X10227710Y4896210D01*
Y4877710D02*
Y4896210D01*
X10214210Y4877710D02*
Y4896210D01*
X10214734Y4895685D01*
X10214210Y4896210D02*
X10227710D01*
X10225960Y4896208D02*
Y4897210D01*
X10223460Y4896208D02*
Y4897210D01*
X10215960D02*
X10225960D01*
X10215960Y4896208D02*
Y4897210D01*
X10218460Y4896208D02*
Y4897210D01*
X10215960Y4876710D02*
Y4877712D01*
X10218460Y4876710D02*
Y4877712D01*
X10215960Y4876710D02*
X10225960D01*
X10223460D02*
Y4877712D01*
X10225960Y4876710D02*
Y4877712D01*
X10267380Y4878960D02*
Y4894960D01*
X10253280Y4878960D02*
Y4894960D01*
X10253080D02*
X10267581D01*
X10253080Y4897960D02*
X10267581D01*
Y4894960D02*
Y4897960D01*
X10253080Y4894960D02*
Y4897960D01*
X10267581Y4875960D02*
Y4878960D01*
X10253080Y4875960D02*
Y4878960D01*
X10267581D01*
X10253080Y4875960D02*
X10267581D01*
X10227280Y4764820D02*
X10255280D01*
X10227280Y4769820D02*
X10255280D01*
X10227280Y4764820D02*
Y4769820D01*
X10255280Y4764820D02*
Y4769820D01*
X10227280Y4795820D02*
Y4800820D01*
X10255280Y4795820D02*
Y4800820D01*
X10227280D02*
X10255280D01*
X10227280Y4795820D02*
X10255280D01*
X10227480Y4769820D02*
Y4795820D01*
X10255079Y4769820D02*
Y4795820D01*
X10220390Y4779900D02*
Y4795900D01*
X10206290Y4779900D02*
Y4795900D01*
X10206090D02*
X10220590D01*
X10206090Y4798900D02*
X10220590D01*
Y4795900D02*
Y4798900D01*
X10206090Y4795900D02*
Y4798900D01*
X10220590Y4776900D02*
Y4779900D01*
X10206090Y4776900D02*
Y4779900D01*
X10220590D01*
X10206090Y4776900D02*
X10220590D01*
X10236600Y3581830D02*
Y3586830D01*
X10223100Y3581830D02*
X10236600D01*
X10223100Y3586830D02*
X10236600D01*
X10223100Y3581830D02*
Y3586830D01*
X10236600Y3598830D02*
Y3603830D01*
X10223100Y3598830D02*
X10236600D01*
X10223100D02*
Y3603830D01*
X10236600D01*
X10223110Y3586830D02*
Y3598830D01*
X10223115Y3586830D01*
X10236585Y3598830D02*
X10236590Y3586830D01*
X10236585Y3598830D02*
X10236590Y3586830D01*
X10255649Y3581830D02*
Y3586830D01*
X10242150Y3581830D02*
X10255649D01*
X10242150Y3586830D02*
X10255649D01*
X10242150Y3581830D02*
Y3586830D01*
X10255649Y3598830D02*
Y3603830D01*
X10242150Y3598830D02*
X10255649D01*
X10242150D02*
Y3603830D01*
X10255649D01*
X10242159Y3586830D02*
Y3598830D01*
X10242164Y3586830D01*
X10255635Y3598830D02*
X10255640Y3586830D01*
X10255635Y3598830D02*
X10255640Y3586830D01*
X10261200Y3598830D02*
Y3603830D01*
X10274700D01*
X10261200Y3598830D02*
X10274700D01*
Y3603830D01*
X10261200Y3581830D02*
Y3586830D01*
X10274700D01*
Y3581830D02*
Y3586830D01*
X10261200Y3581830D02*
X10274700D01*
X10274690Y3586830D02*
Y3598830D01*
X10274685D02*
X10274690Y3586830D01*
X10261210Y3598830D02*
X10261215Y3586830D01*
X10261210Y3598830D02*
X10261215Y3586830D01*
X10168490Y3597560D02*
Y3602560D01*
X10181990D01*
X10168490Y3597560D02*
X10181990D01*
Y3602560D01*
X10168490Y3580560D02*
Y3585560D01*
X10181990D01*
Y3580560D02*
Y3585560D01*
X10168490Y3580560D02*
X10181990D01*
X10181980Y3585560D02*
Y3597560D01*
X10181975D02*
X10181980Y3585560D01*
X10168500Y3597560D02*
X10168505Y3585560D01*
X10168500Y3597560D02*
X10168505Y3585560D01*
X10187540Y3597560D02*
Y3602560D01*
X10201040D01*
X10187540Y3597560D02*
X10201040D01*
Y3602560D01*
X10187540Y3580560D02*
Y3585560D01*
X10201040D01*
Y3580560D02*
Y3585560D01*
X10187540Y3580560D02*
X10201040D01*
X10201030Y3585560D02*
Y3597560D01*
X10201025D02*
X10201030Y3585560D01*
X10187550Y3597560D02*
X10187555Y3585560D01*
X10187550Y3597560D02*
X10187555Y3585560D01*
X10189000Y4970490D02*
Y4973490D01*
X10194500D01*
X10189000Y4970490D02*
X10194500D01*
Y4973490D01*
X10189000Y4962990D02*
Y4965990D01*
X10194500D01*
Y4962990D02*
Y4965990D01*
X10189000Y4962990D02*
X10194500D01*
X10194490Y4965990D02*
Y4970490D01*
X10194485D02*
X10194490Y4965990D01*
X10189010Y4970490D02*
X10189015Y4965990D01*
X10189010Y4970490D02*
X10189015Y4965990D01*
X10286130Y4875960D02*
Y4880960D01*
X10272631Y4875960D02*
X10286130D01*
X10272631Y4880960D02*
X10286130D01*
X10272631Y4875960D02*
Y4880960D01*
X10286130Y4892960D02*
Y4897960D01*
X10272631Y4892960D02*
X10286130D01*
X10272631D02*
Y4897960D01*
X10286130D01*
X10272640Y4880960D02*
Y4892960D01*
X10272645Y4880960D01*
X10286115Y4892960D02*
X10286121Y4880960D01*
X10286115Y4892960D02*
X10286121Y4880960D01*
X10204850Y4873420D02*
Y4878420D01*
X10191350Y4873420D02*
X10204850D01*
X10191350Y4878420D02*
X10204850D01*
X10191350Y4873420D02*
Y4878420D01*
X10204850Y4890420D02*
Y4895420D01*
X10191350Y4890420D02*
X10204850D01*
X10191350D02*
Y4895420D01*
X10204850D01*
X10191360Y4878420D02*
Y4890420D01*
X10191365Y4878420D01*
X10204835Y4890420D02*
X10204840Y4878420D01*
X10204835Y4890420D02*
X10204840Y4878420D01*
X10234530Y4892960D02*
Y4897960D01*
X10248030D01*
X10234530Y4892960D02*
X10248030D01*
Y4897960D01*
X10234530Y4875960D02*
Y4880960D01*
X10248030D01*
Y4875960D02*
Y4880960D01*
X10234530Y4875960D02*
X10248030D01*
X10248020Y4880960D02*
Y4892960D01*
X10248015D02*
X10248020Y4880960D01*
X10234540Y4892960D02*
X10234545Y4880960D01*
X10234540Y4892960D02*
X10234545Y4880960D01*
X10171030Y4890420D02*
Y4895420D01*
X10184530D01*
X10171030Y4890420D02*
X10184530D01*
Y4895420D01*
X10171030Y4873420D02*
Y4878420D01*
X10184530D01*
Y4873420D02*
Y4878420D01*
X10171030Y4873420D02*
X10184530D01*
X10184520Y4878420D02*
Y4890420D01*
X10184515D02*
X10184520Y4878420D01*
X10171040Y4890420D02*
X10171045Y4878420D01*
X10171040Y4890420D02*
X10171045Y4878420D01*
D113*
X10297960Y4790720D02*
Y4825720D01*
X10270959Y4790720D02*
Y4825720D01*
X10297960D01*
X10270959Y4790720D02*
X10297960D01*
M02*
