G04 Layer_Physical_Order=1*
G04 Layer_Color=255*
%FSLAX44Y44*%
%MOMM*%
G71*
G01*
G75*
G04:AMPARAMS|DCode=10|XSize=0.32mm|YSize=0.8mm|CornerRadius=0.08mm|HoleSize=0mm|Usage=FLASHONLY|Rotation=90.000|XOffset=0mm|YOffset=0mm|HoleType=Round|Shape=RoundedRectangle|*
%AMROUNDEDRECTD10*
21,1,0.3200,0.6400,0,0,90.0*
21,1,0.1600,0.8000,0,0,90.0*
1,1,0.1600,0.3200,0.0800*
1,1,0.1600,0.3200,-0.0800*
1,1,0.1600,-0.3200,-0.0800*
1,1,0.1600,-0.3200,0.0800*
%
%ADD10ROUNDEDRECTD10*%
G04:AMPARAMS|DCode=11|XSize=0.32mm|YSize=0.8mm|CornerRadius=0.08mm|HoleSize=0mm|Usage=FLASHONLY|Rotation=0.000|XOffset=0mm|YOffset=0mm|HoleType=Round|Shape=RoundedRectangle|*
%AMROUNDEDRECTD11*
21,1,0.3200,0.6400,0,0,0.0*
21,1,0.1600,0.8000,0,0,0.0*
1,1,0.1600,0.0800,-0.3200*
1,1,0.1600,-0.0800,-0.3200*
1,1,0.1600,-0.0800,0.3200*
1,1,0.1600,0.0800,0.3200*
%
%ADD11ROUNDEDRECTD11*%
%ADD12R,0.2969X0.8499*%
%ADD13R,2.4001X1.6500*%
%ADD14R,0.7000X0.2799*%
%ADD15R,1.3000X1.8999*%
%ADD16R,1.0000X2.8001*%
%ADD17R,1.0000X0.8001*%
%ADD18R,1.0000X1.1999*%
%ADD19R,0.7000X1.1999*%
%ADD20R,0.9000X0.6000*%
%ADD21R,1.6002X1.0922*%
G04:AMPARAMS|DCode=22|XSize=1.8mm|YSize=1.2mm|CornerRadius=0.15mm|HoleSize=0mm|Usage=FLASHONLY|Rotation=270.000|XOffset=0mm|YOffset=0mm|HoleType=Round|Shape=RoundedRectangle|*
%AMROUNDEDRECTD22*
21,1,1.8000,0.9000,0,0,270.0*
21,1,1.5000,1.2000,0,0,270.0*
1,1,0.3000,-0.4500,-0.7500*
1,1,0.3000,-0.4500,0.7500*
1,1,0.3000,0.4500,0.7500*
1,1,0.3000,0.4500,-0.7500*
%
%ADD22ROUNDEDRECTD22*%
G04:AMPARAMS|DCode=23|XSize=0.6mm|YSize=0.6mm|CornerRadius=0.06mm|HoleSize=0mm|Usage=FLASHONLY|Rotation=180.000|XOffset=0mm|YOffset=0mm|HoleType=Round|Shape=RoundedRectangle|*
%AMROUNDEDRECTD23*
21,1,0.6000,0.4800,0,0,180.0*
21,1,0.4800,0.6000,0,0,180.0*
1,1,0.1200,-0.2400,0.2400*
1,1,0.1200,0.2400,0.2400*
1,1,0.1200,0.2400,-0.2400*
1,1,0.1200,-0.2400,-0.2400*
%
%ADD23ROUNDEDRECTD23*%
G04:AMPARAMS|DCode=24|XSize=1.4mm|YSize=1mm|CornerRadius=0.125mm|HoleSize=0mm|Usage=FLASHONLY|Rotation=0.000|XOffset=0mm|YOffset=0mm|HoleType=Round|Shape=RoundedRectangle|*
%AMROUNDEDRECTD24*
21,1,1.4000,0.7500,0,0,0.0*
21,1,1.1500,1.0000,0,0,0.0*
1,1,0.2500,0.5750,-0.3750*
1,1,0.2500,-0.5750,-0.3750*
1,1,0.2500,-0.5750,0.3750*
1,1,0.2500,0.5750,0.3750*
%
%ADD24ROUNDEDRECTD24*%
G04:AMPARAMS|DCode=25|XSize=1.3mm|YSize=0.8mm|CornerRadius=0.1mm|HoleSize=0mm|Usage=FLASHONLY|Rotation=180.000|XOffset=0mm|YOffset=0mm|HoleType=Round|Shape=RoundedRectangle|*
%AMROUNDEDRECTD25*
21,1,1.3000,0.6000,0,0,180.0*
21,1,1.1000,0.8000,0,0,180.0*
1,1,0.2000,-0.5500,0.3000*
1,1,0.2000,0.5500,0.3000*
1,1,0.2000,0.5500,-0.3000*
1,1,0.2000,-0.5500,-0.3000*
%
%ADD25ROUNDEDRECTD25*%
%ADD26R,1.0922X1.6002*%
%ADD27R,0.6000X0.9000*%
G04:AMPARAMS|DCode=28|XSize=2mm|YSize=1.2mm|CornerRadius=0.15mm|HoleSize=0mm|Usage=FLASHONLY|Rotation=180.000|XOffset=0mm|YOffset=0mm|HoleType=Round|Shape=RoundedRectangle|*
%AMROUNDEDRECTD28*
21,1,2.0000,0.9000,0,0,180.0*
21,1,1.7000,1.2000,0,0,180.0*
1,1,0.3000,-0.8500,0.4500*
1,1,0.3000,0.8500,0.4500*
1,1,0.3000,0.8500,-0.4500*
1,1,0.3000,-0.8500,-0.4500*
%
%ADD28ROUNDEDRECTD28*%
G04:AMPARAMS|DCode=29|XSize=2.7mm|YSize=1.15mm|CornerRadius=0.1437mm|HoleSize=0mm|Usage=FLASHONLY|Rotation=0.000|XOffset=0mm|YOffset=0mm|HoleType=Round|Shape=RoundedRectangle|*
%AMROUNDEDRECTD29*
21,1,2.7000,0.8625,0,0,0.0*
21,1,2.4125,1.1500,0,0,0.0*
1,1,0.2875,1.2063,-0.4313*
1,1,0.2875,-1.2063,-0.4313*
1,1,0.2875,-1.2063,0.4313*
1,1,0.2875,1.2063,0.4313*
%
%ADD29ROUNDEDRECTD29*%
G04:AMPARAMS|DCode=30|XSize=1.2mm|YSize=1.35mm|CornerRadius=0.15mm|HoleSize=0mm|Usage=FLASHONLY|Rotation=180.000|XOffset=0mm|YOffset=0mm|HoleType=Round|Shape=RoundedRectangle|*
%AMROUNDEDRECTD30*
21,1,1.2000,1.0500,0,0,180.0*
21,1,0.9000,1.3500,0,0,180.0*
1,1,0.3000,-0.4500,0.5250*
1,1,0.3000,0.4500,0.5250*
1,1,0.3000,0.4500,-0.5250*
1,1,0.3000,-0.4500,-0.5250*
%
%ADD30ROUNDEDRECTD30*%
%ADD31R,0.4000X1.3500*%
%ADD32R,0.5588X1.3208*%
G04:AMPARAMS|DCode=33|XSize=1.8mm|YSize=1.2mm|CornerRadius=0.15mm|HoleSize=0mm|Usage=FLASHONLY|Rotation=180.000|XOffset=0mm|YOffset=0mm|HoleType=Round|Shape=RoundedRectangle|*
%AMROUNDEDRECTD33*
21,1,1.8000,0.9000,0,0,180.0*
21,1,1.5000,1.2000,0,0,180.0*
1,1,0.3000,-0.7500,0.4500*
1,1,0.3000,0.7500,0.4500*
1,1,0.3000,0.7500,-0.4500*
1,1,0.3000,-0.7500,-0.4500*
%
%ADD33ROUNDEDRECTD33*%
%ADD34R,0.5500X0.6000*%
%ADD35C,0.1778*%
%ADD36C,0.1600*%
%ADD37C,0.1485*%
%ADD38C,0.1399*%
%ADD39R,1.8000X1.9000*%
%ADD40C,0.4572*%
%ADD41C,1.1000*%
%ADD42R,1.1000X1.1000*%
G04:AMPARAMS|DCode=43|XSize=1.05mm|YSize=1.25mm|CornerRadius=0.525mm|HoleSize=0mm|Usage=FLASHONLY|Rotation=180.000|XOffset=0mm|YOffset=0mm|HoleType=Round|Shape=RoundedRectangle|*
%AMROUNDEDRECTD43*
21,1,1.0500,0.2000,0,0,180.0*
21,1,0.0000,1.2500,0,0,180.0*
1,1,1.0500,0.0000,0.1000*
1,1,1.0500,0.0000,0.1000*
1,1,1.0500,0.0000,-0.1000*
1,1,1.0500,0.0000,-0.1000*
%
%ADD43ROUNDEDRECTD43*%
G04:AMPARAMS|DCode=44|XSize=2.1mm|YSize=1.9mm|CornerRadius=0.494mm|HoleSize=0mm|Usage=FLASHONLY|Rotation=180.000|XOffset=0mm|YOffset=0mm|HoleType=Round|Shape=RoundedRectangle|*
%AMROUNDEDRECTD44*
21,1,2.1000,0.9120,0,0,180.0*
21,1,1.1120,1.9000,0,0,180.0*
1,1,0.9880,-0.5560,0.4560*
1,1,0.9880,0.5560,0.4560*
1,1,0.9880,0.5560,-0.4560*
1,1,0.9880,-0.5560,-0.4560*
%
%ADD44ROUNDEDRECTD44*%
%ADD45R,4.5720X3.3020*%
%ADD46C,4.5000*%
%ADD47R,4.5000X4.5000*%
%ADD48R,1.5240X1.5240*%
%ADD49C,1.5240*%
%ADD50C,0.4000*%
G36*
X10142812Y4978674D02*
Y4699000D01*
X10142980Y4698158D01*
X10143458Y4697444D01*
X10148538Y4692363D01*
X10149252Y4691886D01*
X10150094Y4691719D01*
X10178646D01*
X10182437Y4687928D01*
Y4686430D01*
X10181167Y4685666D01*
X10180320Y4685834D01*
X10179397Y4685651D01*
X10178533Y4686277D01*
X10178292Y4686605D01*
X10178311Y4686700D01*
Y4688300D01*
X10178150Y4689108D01*
X10177693Y4689792D01*
X10177008Y4690250D01*
X10176200Y4690410D01*
X10169800D01*
X10168992Y4690250D01*
X10168307Y4689792D01*
X10168186Y4689611D01*
X10165731D01*
X10165730Y4689611D01*
X10164922Y4689450D01*
X10164238Y4688992D01*
X10164238Y4688992D01*
X10158830Y4683585D01*
X10158444Y4683326D01*
X10157966Y4682612D01*
X10157798Y4681770D01*
Y4603989D01*
X10156529Y4603183D01*
X10155770Y4603334D01*
X10155040Y4603189D01*
X10153770Y4604007D01*
Y4604270D01*
X10131230D01*
Y4604007D01*
X10129960Y4603189D01*
X10129229Y4603334D01*
X10127953Y4603080D01*
X10126872Y4602357D01*
X10126149Y4601276D01*
X10125895Y4600000D01*
X10126149Y4598724D01*
X10126872Y4597643D01*
X10127953Y4596920D01*
X10129229Y4596666D01*
X10129960Y4596811D01*
X10131230Y4595993D01*
Y4595730D01*
X10153770D01*
Y4595993D01*
X10155040Y4596811D01*
X10155770Y4596666D01*
X10156529Y4596817D01*
X10157798Y4596011D01*
Y4483100D01*
X10124440D01*
Y4833852D01*
X10125710Y4834355D01*
X10127679Y4833539D01*
X10130000Y4833233D01*
X10132321Y4833539D01*
X10134484Y4834435D01*
X10136340Y4835860D01*
X10137766Y4837717D01*
X10138661Y4839879D01*
X10138967Y4842200D01*
X10138661Y4844521D01*
X10137766Y4846683D01*
X10136340Y4848541D01*
X10134484Y4849966D01*
X10132321Y4850861D01*
X10130000Y4851167D01*
X10127679Y4850861D01*
X10125710Y4850045D01*
X10124440Y4850548D01*
Y4859252D01*
X10125710Y4859755D01*
X10127679Y4858939D01*
X10130000Y4858633D01*
X10132321Y4858939D01*
X10134484Y4859835D01*
X10136340Y4861260D01*
X10137766Y4863117D01*
X10138661Y4865280D01*
X10138967Y4867600D01*
X10138661Y4869921D01*
X10137766Y4872083D01*
X10136340Y4873940D01*
X10134484Y4875366D01*
X10132321Y4876261D01*
X10130000Y4876567D01*
X10127679Y4876261D01*
X10125710Y4875446D01*
X10124440Y4875948D01*
Y4884652D01*
X10125710Y4885155D01*
X10127679Y4884339D01*
X10130000Y4884034D01*
X10132321Y4884339D01*
X10134484Y4885235D01*
X10136340Y4886660D01*
X10137766Y4888517D01*
X10138661Y4890679D01*
X10138967Y4893000D01*
X10138661Y4895321D01*
X10137766Y4897484D01*
X10136340Y4899341D01*
X10134484Y4900765D01*
X10132321Y4901661D01*
X10130000Y4901967D01*
X10127679Y4901661D01*
X10125710Y4900846D01*
X10124440Y4901348D01*
Y4910052D01*
X10125710Y4910555D01*
X10127679Y4909739D01*
X10130000Y4909433D01*
X10132321Y4909739D01*
X10134484Y4910635D01*
X10136340Y4912060D01*
X10137766Y4913917D01*
X10138661Y4916079D01*
X10138967Y4918400D01*
X10138661Y4920721D01*
X10137766Y4922884D01*
X10136340Y4924741D01*
X10134484Y4926165D01*
X10132321Y4927061D01*
X10130000Y4927367D01*
X10127679Y4927061D01*
X10125710Y4926246D01*
X10124440Y4926748D01*
Y4935452D01*
X10125710Y4935955D01*
X10127679Y4935139D01*
X10130000Y4934833D01*
X10132321Y4935139D01*
X10134484Y4936035D01*
X10136340Y4937460D01*
X10137766Y4939317D01*
X10138661Y4941479D01*
X10138967Y4943800D01*
X10138661Y4946121D01*
X10137766Y4948283D01*
X10136340Y4950140D01*
X10134484Y4951566D01*
X10132321Y4952461D01*
X10130000Y4952767D01*
X10127679Y4952461D01*
X10125710Y4951646D01*
X10124440Y4952148D01*
Y4960852D01*
X10125710Y4961355D01*
X10127679Y4960539D01*
X10130000Y4960233D01*
X10132321Y4960539D01*
X10134484Y4961435D01*
X10136340Y4962860D01*
X10137766Y4964717D01*
X10138661Y4966879D01*
X10138967Y4969200D01*
X10138661Y4971521D01*
X10137766Y4973683D01*
X10136340Y4975540D01*
X10134484Y4976966D01*
X10132321Y4977861D01*
X10130000Y4978167D01*
X10127679Y4977861D01*
X10125710Y4977046D01*
X10124440Y4977548D01*
Y4986252D01*
X10125710Y4986755D01*
X10127679Y4985939D01*
X10130000Y4985634D01*
X10132321Y4985939D01*
X10134484Y4986835D01*
X10134579Y4986908D01*
X10142812Y4978674D01*
D02*
G37*
G36*
X10199797Y5039216D02*
X10200640Y5039048D01*
X10206332D01*
X10206398Y5038548D01*
X10207055Y5036962D01*
X10208100Y5035600D01*
X10209462Y5034554D01*
X10210549Y5034104D01*
Y5011822D01*
X10206600Y5007872D01*
X10205930Y5008150D01*
Y5008150D01*
X10197890D01*
Y5006081D01*
X10196314D01*
X10196020Y5006023D01*
X10194894Y5006749D01*
X10194750Y5006959D01*
Y5020150D01*
X10194487D01*
X10193669Y5021420D01*
X10193814Y5022151D01*
X10193560Y5023427D01*
X10192838Y5024508D01*
X10191756Y5025231D01*
X10190480Y5025485D01*
X10189204Y5025231D01*
X10188123Y5024508D01*
X10187400Y5023427D01*
X10187146Y5022151D01*
X10187291Y5021420D01*
X10186473Y5020150D01*
X10186210D01*
Y5008610D01*
Y4997610D01*
X10194750D01*
Y5001179D01*
X10195814D01*
X10196620Y5001339D01*
X10196659Y5001345D01*
X10197890Y5000669D01*
Y4999610D01*
X10205930D01*
Y5001720D01*
X10206562Y5001846D01*
X10207277Y5002323D01*
X10214307Y5009353D01*
X10214784Y5010068D01*
X10214952Y5010910D01*
Y5034104D01*
X10216038Y5034554D01*
X10217401Y5035600D01*
X10217676Y5035959D01*
X10218730Y5036480D01*
X10232060D01*
X10232493Y5035210D01*
X10224991Y5027708D01*
X10224514Y5026994D01*
X10224347Y5026152D01*
Y4973320D01*
X10224514Y4972478D01*
X10224991Y4971764D01*
X10237555Y4959200D01*
Y4947920D01*
X10237722Y4947078D01*
X10238199Y4946364D01*
X10244550Y4940013D01*
X10245264Y4939536D01*
X10246106Y4939369D01*
X10287104D01*
X10313501Y4912972D01*
Y4839208D01*
X10313668Y4838365D01*
X10314146Y4837651D01*
X10321003Y4830793D01*
X10321718Y4830316D01*
X10322560Y4830149D01*
X10333079D01*
X10335260Y4827967D01*
Y4721379D01*
X10293954Y4680073D01*
X10293179Y4680162D01*
X10293004Y4680286D01*
X10292250Y4681396D01*
X10292311Y4681700D01*
Y4683300D01*
X10292299Y4683362D01*
X10292491Y4683655D01*
X10293398Y4684339D01*
X10294270Y4684166D01*
X10295546Y4684420D01*
X10296627Y4685143D01*
X10297350Y4686224D01*
X10297604Y4687500D01*
X10297350Y4688776D01*
X10296627Y4689857D01*
X10295546Y4690580D01*
X10294270Y4690834D01*
X10292994Y4690580D01*
X10292786Y4690441D01*
X10291692Y4689792D01*
X10291008Y4690250D01*
X10290200Y4690410D01*
X10283800D01*
X10282992Y4690250D01*
X10282307Y4689792D01*
X10281851Y4689108D01*
X10281689Y4688300D01*
Y4686700D01*
X10280637Y4685596D01*
X10280233Y4685536D01*
X10280055Y4685714D01*
X10279797Y4686101D01*
X10279083Y4686578D01*
X10278241Y4686746D01*
X10277783D01*
X10277679Y4686902D01*
X10276598Y4687625D01*
X10275321Y4687878D01*
X10274469Y4687709D01*
X10273199Y4688470D01*
Y4690028D01*
X10273540Y4690538D01*
X10273707Y4691380D01*
Y4727702D01*
X10273540Y4728544D01*
X10273063Y4729258D01*
X10270264Y4732057D01*
X10270751Y4733230D01*
X10281770D01*
Y4734521D01*
X10282380Y4734882D01*
X10283040Y4735042D01*
X10284286Y4734087D01*
X10285933Y4733405D01*
X10287700Y4733172D01*
X10289468Y4733405D01*
X10291115Y4734087D01*
X10292528Y4735172D01*
X10293287Y4736161D01*
X10293555Y4736256D01*
X10294546D01*
X10294812Y4736161D01*
X10295571Y4735172D01*
X10296986Y4734087D01*
X10298633Y4733405D01*
X10300400Y4733172D01*
X10302168Y4733405D01*
X10303815Y4734087D01*
X10305228Y4735172D01*
X10305988Y4736161D01*
X10306255Y4736256D01*
X10307246D01*
X10307512Y4736161D01*
X10308271Y4735172D01*
X10309686Y4734087D01*
X10311333Y4733405D01*
X10313101Y4733172D01*
X10314867Y4733405D01*
X10316514Y4734087D01*
X10317928Y4735172D01*
X10318688Y4736161D01*
X10318954Y4736256D01*
X10319946D01*
X10320212Y4736161D01*
X10320972Y4735172D01*
X10322385Y4734087D01*
X10324033Y4733405D01*
X10325800Y4733172D01*
X10327567Y4733405D01*
X10329214Y4734087D01*
X10330629Y4735172D01*
X10331714Y4736586D01*
X10332396Y4738233D01*
X10332628Y4740000D01*
X10332396Y4741768D01*
X10331714Y4743414D01*
X10330629Y4744828D01*
X10329639Y4745588D01*
X10329545Y4745854D01*
Y4746846D01*
X10329639Y4747112D01*
X10330629Y4747872D01*
X10331714Y4749286D01*
X10332396Y4750933D01*
X10332628Y4752700D01*
X10332396Y4754467D01*
X10331714Y4756115D01*
X10330629Y4757529D01*
X10329214Y4758614D01*
X10327567Y4759296D01*
X10325800Y4759529D01*
X10324033Y4759296D01*
X10322385Y4758614D01*
X10320972Y4757529D01*
X10320212Y4756539D01*
X10319946Y4756445D01*
X10318954D01*
X10318688Y4756539D01*
X10317928Y4757529D01*
X10316514Y4758614D01*
X10314867Y4759296D01*
X10313101Y4759529D01*
X10311333Y4759296D01*
X10309686Y4758614D01*
X10308271Y4757529D01*
X10307512Y4756539D01*
X10307246Y4756445D01*
X10306255D01*
X10305988Y4756539D01*
X10305228Y4757529D01*
X10303815Y4758614D01*
X10302168Y4759296D01*
X10300400Y4759529D01*
X10298633Y4759296D01*
X10296986Y4758614D01*
X10295571Y4757529D01*
X10294812Y4756539D01*
X10294546Y4756445D01*
X10293555D01*
X10293287Y4756539D01*
X10292528Y4757529D01*
X10291115Y4758614D01*
X10289468Y4759296D01*
X10287700Y4759529D01*
X10285933Y4759296D01*
X10284286Y4758614D01*
X10282871Y4757529D01*
X10282112Y4756539D01*
X10281846Y4756445D01*
X10280854D01*
X10280587Y4756539D01*
X10279828Y4757529D01*
X10278414Y4758614D01*
X10276768Y4759296D01*
X10275000Y4759529D01*
X10273232Y4759296D01*
X10271586Y4758614D01*
X10270172Y4757529D01*
X10269087Y4756115D01*
X10268405Y4754467D01*
X10268171Y4752700D01*
X10268405Y4750933D01*
X10269087Y4749286D01*
X10270043Y4748040D01*
X10269882Y4747381D01*
X10269521Y4746770D01*
X10268230D01*
Y4735750D01*
X10267057Y4735264D01*
X10264563Y4737758D01*
Y4772914D01*
X10264396Y4773756D01*
X10263918Y4774471D01*
X10258076Y4780312D01*
X10257362Y4780790D01*
X10256520Y4780957D01*
X10227564D01*
X10226722Y4780790D01*
X10226008Y4780312D01*
X10222833Y4777138D01*
X10221660Y4777624D01*
Y4782469D01*
X10222340Y4783150D01*
Y4792650D01*
X10221660Y4793331D01*
Y4794838D01*
X10221802Y4794867D01*
X10222516Y4795344D01*
X10225187Y4798014D01*
X10225314Y4798010D01*
X10226457Y4797614D01*
Y4793508D01*
X10226667Y4792451D01*
X10227266Y4791556D01*
X10228161Y4790957D01*
X10229218Y4790747D01*
X10253342D01*
X10254399Y4790957D01*
X10255294Y4791556D01*
X10255892Y4792451D01*
X10256104Y4793508D01*
Y4793777D01*
X10257373Y4794621D01*
X10258051Y4794486D01*
X10259326Y4794740D01*
X10260408Y4795463D01*
X10261130Y4796544D01*
X10261384Y4797820D01*
X10261130Y4799096D01*
X10260408Y4800178D01*
X10259326Y4800901D01*
X10258051Y4801154D01*
X10257373Y4801020D01*
X10256104Y4801863D01*
Y4802133D01*
X10255892Y4803189D01*
X10255294Y4804085D01*
X10254399Y4804683D01*
X10253342Y4804893D01*
X10229218D01*
X10228161Y4804683D01*
X10227266Y4804085D01*
X10226982Y4803660D01*
X10225712Y4804045D01*
Y4812940D01*
X10226982Y4813618D01*
X10227383Y4813351D01*
X10228658Y4813097D01*
X10229935Y4813351D01*
X10230338Y4813620D01*
X10231608Y4812941D01*
Y4812274D01*
X10231459Y4811522D01*
X10231627Y4810680D01*
X10232103Y4809966D01*
X10234644Y4807426D01*
X10235358Y4806948D01*
X10236200Y4806781D01*
X10259568D01*
X10260410Y4806948D01*
X10261124Y4807426D01*
X10271937Y4818238D01*
X10273314Y4817820D01*
X10273351Y4817639D01*
X10273962Y4816723D01*
X10274879Y4816111D01*
X10275959Y4815896D01*
X10292960D01*
X10294041Y4816111D01*
X10294957Y4816723D01*
X10295569Y4817639D01*
X10295784Y4818720D01*
Y4827720D01*
X10295569Y4828801D01*
X10294957Y4829717D01*
X10294041Y4830330D01*
X10292960Y4830544D01*
X10275959D01*
X10274879Y4830330D01*
X10273962Y4829717D01*
X10273351Y4828801D01*
X10273136Y4827720D01*
Y4825288D01*
X10272964Y4825254D01*
X10272250Y4824777D01*
X10258656Y4811183D01*
X10237368D01*
X10236462Y4812184D01*
X10236497Y4812417D01*
X10236681Y4812610D01*
X10237904Y4813247D01*
X10238661Y4813097D01*
X10239937Y4813351D01*
X10241019Y4814073D01*
X10241742Y4815155D01*
X10241996Y4816431D01*
X10241742Y4817707D01*
X10241416Y4818431D01*
X10241416Y4818431D01*
X10241416Y4818431D01*
Y4829180D01*
X10246930D01*
Y4833531D01*
X10253431D01*
X10253431Y4833531D01*
Y4833531D01*
X10253907Y4833261D01*
X10254155Y4833120D01*
X10254503Y4833051D01*
X10254503Y4833051D01*
X10254512Y4833049D01*
X10255431Y4832867D01*
X10256708Y4833120D01*
X10257789Y4833843D01*
X10258512Y4834925D01*
X10258766Y4836201D01*
X10258512Y4837477D01*
X10257789Y4838558D01*
X10256708Y4839281D01*
X10255431Y4839535D01*
X10254701Y4839390D01*
X10253431Y4840208D01*
Y4843869D01*
X10246930D01*
Y4848220D01*
X10241416D01*
Y4858969D01*
X10240713D01*
Y4868548D01*
X10242837Y4870671D01*
X10243314Y4871385D01*
X10243365Y4871646D01*
X10246780D01*
X10247666Y4871822D01*
X10248417Y4872324D01*
X10248918Y4873074D01*
X10249094Y4873960D01*
Y4874759D01*
X10252010D01*
Y4874210D01*
X10252206Y4873227D01*
X10252764Y4872393D01*
X10253596Y4871836D01*
X10254580Y4871640D01*
X10266080D01*
X10267063Y4871836D01*
X10267897Y4872393D01*
X10268453Y4873227D01*
X10268650Y4874210D01*
Y4875758D01*
X10270087D01*
X10270441Y4875403D01*
X10271155Y4874926D01*
X10271565Y4874845D01*
Y4873960D01*
X10271742Y4873074D01*
X10272244Y4872324D01*
X10272994Y4871822D01*
X10273879Y4871646D01*
X10284880D01*
X10285765Y4871822D01*
X10286516Y4872324D01*
X10287018Y4873074D01*
X10287195Y4873960D01*
Y4879960D01*
X10287018Y4880846D01*
X10287017Y4880847D01*
X10287880Y4881710D01*
Y4892210D01*
X10285880Y4894210D01*
X10272880D01*
X10270880Y4892210D01*
Y4881710D01*
X10271194Y4881396D01*
X10271144Y4881086D01*
X10270632Y4880161D01*
X10268650D01*
Y4881530D01*
X10269330Y4882210D01*
Y4891710D01*
X10267330Y4893710D01*
X10253330D01*
X10251329Y4891710D01*
Y4882210D01*
X10252010Y4881529D01*
Y4879749D01*
X10251661Y4879516D01*
X10251306Y4879161D01*
X10249094D01*
Y4879960D01*
X10248918Y4880846D01*
X10248917Y4880847D01*
X10249780Y4881710D01*
Y4892210D01*
X10248917Y4893073D01*
X10248918Y4893074D01*
X10249094Y4893960D01*
Y4899960D01*
X10248918Y4900846D01*
X10248417Y4901596D01*
X10247666Y4902098D01*
X10246780Y4902274D01*
X10235780D01*
X10234894Y4902098D01*
X10234144Y4901596D01*
X10233642Y4900846D01*
X10232231Y4900150D01*
X10231509Y4900294D01*
X10230234Y4900040D01*
X10229554Y4899586D01*
X10228318Y4900116D01*
X10228284Y4900149D01*
Y4901710D01*
X10228069Y4902791D01*
X10227457Y4903707D01*
X10226541Y4904319D01*
X10225460Y4904534D01*
X10225004D01*
X10224160Y4905804D01*
X10224294Y4906480D01*
X10224041Y4907756D01*
X10223317Y4908838D01*
X10222236Y4909561D01*
X10220960Y4909814D01*
X10219684Y4909561D01*
X10218602Y4908838D01*
X10217880Y4907756D01*
X10217626Y4906480D01*
X10217761Y4905804D01*
X10216917Y4904534D01*
X10216460D01*
X10215379Y4904319D01*
X10214463Y4903707D01*
X10213851Y4902791D01*
X10213636Y4901710D01*
Y4891210D01*
X10213430Y4890960D01*
X10212960D01*
Y4882960D01*
X10228960D01*
Y4890960D01*
X10228489D01*
X10228284Y4891210D01*
Y4893771D01*
X10228318Y4893804D01*
X10229554Y4894334D01*
X10230234Y4893880D01*
X10231509Y4893626D01*
X10232231Y4893770D01*
X10232440Y4893666D01*
X10232780Y4892210D01*
Y4881710D01*
X10233643Y4880847D01*
X10233642Y4880846D01*
X10233466Y4879960D01*
Y4873960D01*
X10233642Y4873074D01*
X10234144Y4872324D01*
X10234894Y4871822D01*
X10235780Y4871646D01*
X10235898D01*
X10236613Y4870476D01*
X10236613Y4870376D01*
X10236460Y4869609D01*
X10236609Y4868857D01*
Y4858969D01*
X10235906D01*
Y4848220D01*
X10231414D01*
Y4858969D01*
X10225589D01*
X10225555Y4859137D01*
X10225111Y4859803D01*
X10209575Y4875339D01*
X10209149Y4875977D01*
X10208434Y4876454D01*
X10207592Y4876621D01*
X10205914D01*
Y4877420D01*
X10205739Y4878306D01*
X10205737Y4878307D01*
X10206600Y4879170D01*
Y4889670D01*
X10205737Y4890533D01*
X10205739Y4890534D01*
X10205914Y4891420D01*
Y4897420D01*
X10205739Y4898306D01*
X10205237Y4899056D01*
X10204485Y4899558D01*
X10203600Y4899734D01*
X10192600D01*
X10191714Y4899558D01*
X10190963Y4899056D01*
X10190461Y4898306D01*
X10189052Y4897610D01*
X10188329Y4897754D01*
X10187054Y4897500D01*
X10186865Y4897374D01*
X10186630Y4897382D01*
X10185483Y4897979D01*
X10185418Y4898306D01*
X10184916Y4899056D01*
X10184166Y4899558D01*
X10183280Y4899734D01*
X10172280D01*
X10171394Y4899558D01*
X10170643Y4899056D01*
X10170142Y4898306D01*
X10168731Y4897610D01*
X10168010Y4897754D01*
X10167281Y4897609D01*
X10166011Y4898429D01*
Y5039360D01*
X10199582D01*
X10199797Y5039216D01*
D02*
G37*
G36*
X10255892Y4587850D02*
X10256700Y4587690D01*
X10258300D01*
X10259108Y4587850D01*
X10259120Y4587858D01*
X10260389Y4587180D01*
Y4491099D01*
X10252391Y4483100D01*
X10204611D01*
Y4587180D01*
X10205880Y4587858D01*
X10205892Y4587850D01*
X10206700Y4587690D01*
X10208300D01*
X10209108Y4587850D01*
X10209792Y4588308D01*
X10210208D01*
X10210892Y4587850D01*
X10211700Y4587690D01*
X10213300D01*
X10213362Y4587702D01*
X10213655Y4587509D01*
X10214340Y4586601D01*
X10214166Y4585730D01*
X10214420Y4584454D01*
X10215142Y4583373D01*
X10216224Y4582650D01*
X10217500Y4582396D01*
X10218776Y4582650D01*
X10219858Y4583373D01*
X10220580Y4584454D01*
X10220834Y4585730D01*
X10220660Y4586602D01*
X10221345Y4587509D01*
X10221638Y4587702D01*
X10221700Y4587690D01*
X10223300D01*
X10224108Y4587850D01*
X10224792Y4588308D01*
X10225208D01*
X10225892Y4587850D01*
X10226700Y4587690D01*
X10228300D01*
X10229108Y4587850D01*
X10229792Y4588308D01*
X10230208D01*
X10230892Y4587850D01*
X10231700Y4587690D01*
X10233300D01*
X10234108Y4587850D01*
X10234792Y4588308D01*
X10235208D01*
X10235892Y4587850D01*
X10236700Y4587690D01*
X10238300D01*
X10239108Y4587850D01*
X10239792Y4588308D01*
X10240208D01*
X10240892Y4587850D01*
X10241700Y4587690D01*
X10243301D01*
X10244108Y4587850D01*
X10244792Y4588308D01*
X10245208D01*
X10245892Y4587850D01*
X10246700Y4587690D01*
X10248300D01*
X10249108Y4587850D01*
X10249792Y4588308D01*
X10250208D01*
X10250892Y4587850D01*
X10251700Y4587690D01*
X10253301D01*
X10254108Y4587850D01*
X10254792Y4588308D01*
X10255208D01*
X10255892Y4587850D01*
D02*
G37*
G36*
X10277480Y5081960D02*
X10278010Y5081890D01*
X10278540Y5081740D01*
X10278970Y5081580D01*
X10279390Y5081380D01*
X10279830Y5081100D01*
X10280210Y5080810D01*
X10280601Y5080470D01*
X10280890Y5080110D01*
X10281169Y5079740D01*
X10281410Y5079330D01*
X10281610Y5078910D01*
X10281770Y5078490D01*
X10281890Y5077980D01*
X10281960Y5077530D01*
X10282000Y5077000D01*
Y5068000D01*
X10281960Y5067450D01*
X10281880Y5067000D01*
X10281760Y5066500D01*
X10281600Y5066100D01*
X10281470Y5065770D01*
X10281219Y5065340D01*
X10280959Y5064970D01*
X10280649Y5064590D01*
X10280200Y5064180D01*
X10279800Y5063880D01*
X10279340Y5063590D01*
X10278810Y5063350D01*
X10277939Y5063090D01*
X10277000Y5063000D01*
X10261000D01*
Y5082000D01*
X10277000D01*
X10277480Y5081960D01*
D02*
G37*
G36*
X10209000Y5063000D02*
X10193000D01*
X10192520Y5063040D01*
X10191990Y5063110D01*
X10191460Y5063260D01*
X10191030Y5063420D01*
X10190610Y5063620D01*
X10190170Y5063900D01*
X10189790Y5064190D01*
X10189400Y5064530D01*
X10189110Y5064890D01*
X10188830Y5065260D01*
X10188590Y5065670D01*
X10188390Y5066090D01*
X10188230Y5066510D01*
X10188110Y5067020D01*
X10188040Y5067470D01*
X10188000Y5068000D01*
Y5077000D01*
X10188040Y5077550D01*
X10188120Y5078000D01*
X10188240Y5078500D01*
X10188400Y5078900D01*
X10188530Y5079230D01*
X10188780Y5079660D01*
X10189040Y5080030D01*
X10189350Y5080410D01*
X10189800Y5080820D01*
X10190200Y5081120D01*
X10190660Y5081410D01*
X10191190Y5081650D01*
X10192060Y5081910D01*
X10193000Y5082000D01*
X10209000D01*
Y5063000D01*
D02*
G37*
%LPC*%
G36*
X10154271Y4636731D02*
X10135729D01*
Y4634008D01*
X10134459Y4633189D01*
X10133729Y4633334D01*
X10132453Y4633080D01*
X10131371Y4632357D01*
X10130649Y4631276D01*
X10130395Y4630000D01*
X10130649Y4628724D01*
X10131371Y4627643D01*
X10132453Y4626920D01*
X10133729Y4626666D01*
X10134459Y4626811D01*
X10135729Y4625992D01*
Y4623269D01*
X10154271D01*
Y4636731D01*
D02*
G37*
G36*
Y4657051D02*
X10135729D01*
Y4654327D01*
X10134459Y4653509D01*
X10133729Y4653654D01*
X10132453Y4653400D01*
X10131371Y4652677D01*
X10130649Y4651596D01*
X10130395Y4650320D01*
X10130649Y4649044D01*
X10131371Y4647962D01*
X10132453Y4647240D01*
X10133729Y4646986D01*
X10134459Y4647131D01*
X10135729Y4646312D01*
Y4643589D01*
X10154271D01*
Y4657051D01*
D02*
G37*
G36*
X10218000Y4937464D02*
X10203000D01*
X10201919Y4937249D01*
X10201003Y4936637D01*
X10200391Y4935721D01*
X10200176Y4934640D01*
Y4925640D01*
X10200391Y4924559D01*
X10201003Y4923643D01*
X10201919Y4923031D01*
X10203000Y4922816D01*
X10218000D01*
X10219081Y4923031D01*
X10219997Y4923643D01*
X10220609Y4924559D01*
X10220824Y4925640D01*
Y4926096D01*
X10222094Y4926940D01*
X10222770Y4926806D01*
X10224046Y4927060D01*
X10225128Y4927783D01*
X10225850Y4928864D01*
X10226104Y4930140D01*
X10225850Y4931416D01*
X10225128Y4932498D01*
X10224046Y4933220D01*
X10222770Y4933474D01*
X10222094Y4933340D01*
X10220824Y4934184D01*
Y4934640D01*
X10220609Y4935721D01*
X10219997Y4936637D01*
X10219081Y4937249D01*
X10218000Y4937464D01*
D02*
G37*
G36*
X10197926Y4982750D02*
X10196650Y4982496D01*
X10195568Y4981773D01*
X10194846Y4980692D01*
X10194592Y4979416D01*
X10194628Y4979232D01*
X10192944Y4977547D01*
X10189350D01*
X10188621Y4977402D01*
X10188002Y4976989D01*
X10187589Y4976370D01*
X10187443Y4975640D01*
Y4970934D01*
X10186750Y4970240D01*
Y4966240D01*
X10187443Y4965547D01*
Y4960840D01*
X10187589Y4960110D01*
X10188002Y4959492D01*
X10188620Y4959079D01*
X10188579Y4957792D01*
X10188416Y4956970D01*
X10188669Y4955694D01*
X10189393Y4954612D01*
X10190474Y4953890D01*
X10191750Y4953636D01*
X10193026Y4953890D01*
X10194108Y4954612D01*
X10194830Y4955694D01*
X10195084Y4956970D01*
X10194921Y4957792D01*
X10194880Y4959079D01*
X10195498Y4959492D01*
X10195911Y4960110D01*
X10196057Y4960840D01*
Y4965547D01*
X10196750Y4966240D01*
Y4970240D01*
X10196057Y4970934D01*
Y4974434D01*
X10197742Y4976118D01*
X10197926Y4976082D01*
X10199202Y4976336D01*
X10200283Y4977058D01*
X10201006Y4978140D01*
X10201260Y4979416D01*
X10201006Y4980692D01*
X10200283Y4981773D01*
X10199202Y4982496D01*
X10197926Y4982750D01*
D02*
G37*
G36*
X10201910Y5023484D02*
X10200634Y5023230D01*
X10199553Y5022508D01*
X10198830Y5021426D01*
X10198576Y5020150D01*
X10198721Y5019420D01*
X10197903Y5018150D01*
X10197890D01*
Y5009610D01*
X10205930D01*
Y5018150D01*
X10205917D01*
X10205099Y5019420D01*
X10205244Y5020150D01*
X10204990Y5021426D01*
X10204268Y5022508D01*
X10203186Y5023230D01*
X10201910Y5023484D01*
D02*
G37*
G36*
X10216896Y4989830D02*
X10208768D01*
Y4974082D01*
X10208846D01*
X10209650Y4972812D01*
X10209498Y4972050D01*
X10209752Y4970774D01*
X10210474Y4969692D01*
X10211556Y4968970D01*
X10212832Y4968716D01*
X10214108Y4968970D01*
X10215189Y4969692D01*
X10215912Y4970774D01*
X10216166Y4972050D01*
X10216014Y4972812D01*
X10216818Y4974082D01*
X10216896D01*
Y4989830D01*
D02*
G37*
G36*
X10226294Y4962398D02*
X10218166D01*
Y4946650D01*
X10218223D01*
X10219041Y4945380D01*
X10218896Y4944650D01*
X10219150Y4943374D01*
X10219872Y4942292D01*
X10220954Y4941570D01*
X10222230Y4941316D01*
X10223506Y4941570D01*
X10224587Y4942292D01*
X10225310Y4943374D01*
X10225564Y4944650D01*
X10225419Y4945380D01*
X10226238Y4946650D01*
X10226294D01*
Y4962398D01*
D02*
G37*
G36*
X10216896D02*
X10208768D01*
Y4946650D01*
X10216896D01*
Y4962398D01*
D02*
G37*
%LPD*%
D10*
X10173000Y4687500D02*
D03*
Y4682500D02*
D03*
Y4677500D02*
D03*
Y4672500D02*
D03*
Y4667500D02*
D03*
Y4662500D02*
D03*
Y4657500D02*
D03*
Y4652500D02*
D03*
Y4647500D02*
D03*
Y4642500D02*
D03*
Y4637500D02*
D03*
Y4632500D02*
D03*
Y4627500D02*
D03*
Y4622500D02*
D03*
Y4617500D02*
D03*
Y4612500D02*
D03*
X10287000D02*
D03*
Y4617500D02*
D03*
Y4622500D02*
D03*
Y4627500D02*
D03*
Y4632500D02*
D03*
Y4637500D02*
D03*
Y4642500D02*
D03*
Y4647500D02*
D03*
Y4652500D02*
D03*
Y4657500D02*
D03*
Y4662500D02*
D03*
Y4667500D02*
D03*
Y4672500D02*
D03*
Y4677500D02*
D03*
Y4682500D02*
D03*
Y4687500D02*
D03*
D11*
X10192500Y4593000D02*
D03*
X10197500D02*
D03*
X10202500D02*
D03*
X10207500D02*
D03*
X10212500D02*
D03*
X10217500D02*
D03*
X10222500D02*
D03*
X10227500D02*
D03*
X10232500D02*
D03*
X10237500D02*
D03*
X10242500D02*
D03*
X10247500D02*
D03*
X10252500D02*
D03*
X10257500D02*
D03*
X10262500D02*
D03*
X10267500D02*
D03*
Y4707000D02*
D03*
X10262500D02*
D03*
X10257500D02*
D03*
X10252500D02*
D03*
X10247500D02*
D03*
X10242500D02*
D03*
X10237500D02*
D03*
X10232500D02*
D03*
X10227500D02*
D03*
X10222500D02*
D03*
X10217500D02*
D03*
X10212500D02*
D03*
X10207500D02*
D03*
X10202500D02*
D03*
X10197500D02*
D03*
X10192500D02*
D03*
D12*
X10223660Y4823950D02*
D03*
X10228658D02*
D03*
X10233660D02*
D03*
X10238661D02*
D03*
X10243660D02*
D03*
Y4853450D02*
D03*
X10238661D02*
D03*
X10233660D02*
D03*
X10228658D02*
D03*
X10223660D02*
D03*
D13*
X10233660Y4838700D02*
D03*
D14*
X10218659Y4841199D02*
D03*
Y4836201D02*
D03*
X10248661Y4841199D02*
D03*
Y4836201D02*
D03*
D15*
X10296001Y3407999D02*
D03*
D16*
X10161000Y3412500D02*
D03*
D17*
Y3454001D02*
D03*
D18*
Y3515999D02*
D03*
X10272501Y3558999D02*
D03*
D19*
X10170499D02*
D03*
X10179999D02*
D03*
X10191000D02*
D03*
X10202000D02*
D03*
X10213001D02*
D03*
X10224000D02*
D03*
X10235000D02*
D03*
X10246001D02*
D03*
X10257000D02*
D03*
D20*
X10148000Y4600000D02*
D03*
X10137000D02*
D03*
X10235500Y4737500D02*
D03*
X10224500D02*
D03*
D21*
X10290811Y4954270D02*
D03*
Y4974590D02*
D03*
X10145000Y4650320D02*
D03*
Y4630000D02*
D03*
D22*
X10253979Y4953970D02*
D03*
Y4979970D02*
D03*
D23*
X10191750Y4973240D02*
D03*
Y4963240D02*
D03*
D24*
X10260330Y4895960D02*
D03*
Y4877960D02*
D03*
X10213340Y4796900D02*
D03*
Y4778900D02*
D03*
D25*
X10241281Y4896960D02*
D03*
Y4876960D02*
D03*
X10279380D02*
D03*
Y4896960D02*
D03*
X10229850Y3582830D02*
D03*
Y3602830D02*
D03*
X10194290Y3601560D02*
D03*
Y3581560D02*
D03*
X10177780Y4894420D02*
D03*
Y4874420D02*
D03*
X10198100D02*
D03*
Y4894420D02*
D03*
X10248900Y3582830D02*
D03*
Y3602830D02*
D03*
X10267950D02*
D03*
Y3582830D02*
D03*
X10175240Y3601560D02*
D03*
Y3581560D02*
D03*
D26*
X10225320Y3640000D02*
D03*
X10205000D02*
D03*
X10154680Y4727500D02*
D03*
X10175000D02*
D03*
D27*
X10312500Y4597000D02*
D03*
Y4608000D02*
D03*
Y4667000D02*
D03*
Y4678000D02*
D03*
X10190480Y5003380D02*
D03*
Y5014380D02*
D03*
D28*
X10284460Y4823220D02*
D03*
Y4793220D02*
D03*
D29*
X10241281Y4797820D02*
D03*
Y4767820D02*
D03*
D30*
X10220960Y4877460D02*
D03*
Y4896460D02*
D03*
D31*
X10248000Y5044500D02*
D03*
X10241500D02*
D03*
X10235000D02*
D03*
X10228500D02*
D03*
X10222000D02*
D03*
D32*
X10212832Y4954524D02*
D03*
X10222230D02*
D03*
X10231628D02*
D03*
Y4981956D02*
D03*
X10212832D02*
D03*
D33*
X10210500Y4930140D02*
D03*
X10236500D02*
D03*
D34*
X10201910Y5003880D02*
D03*
Y5013880D02*
D03*
D35*
X10152500Y4335240D02*
X10190854Y4296886D01*
Y4283283D02*
Y4296886D01*
X10183876Y4276305D02*
X10190854Y4283283D01*
X10183876Y4270756D02*
Y4276305D01*
X10312400Y4622500D02*
X10325100Y4609800D01*
Y4456748D02*
Y4609800D01*
X10278193Y4409842D02*
X10325100Y4456748D01*
X10307421Y4615770D02*
X10309860D01*
X10263605Y4408845D02*
X10310000Y4455240D01*
X10307240D02*
X10310000D01*
X10299700Y4462780D02*
X10307240Y4455240D01*
X10299700Y4462780D02*
Y4549140D01*
X10152500Y4215240D02*
Y4221590D01*
X10148055Y4226035D02*
X10152500Y4221590D01*
X10148055Y4226035D02*
Y4234935D01*
X10156952Y4243832D01*
X10139680Y4248912D02*
X10153650Y4262882D01*
X10139680Y4218686D02*
Y4248912D01*
Y4218686D02*
X10190988Y4167378D01*
X10152500Y4230480D02*
X10159370Y4237350D01*
X10166472D01*
X10202500Y4273378D01*
X10294620Y4793220D02*
X10306304D01*
X10284460D02*
X10294620D01*
X10246001Y3569462D02*
Y3575409D01*
X10198100Y4874420D02*
X10207592D01*
X10177780D02*
X10187940D01*
X10185000Y4737500D02*
X10224500D01*
X10175000Y4727500D02*
X10185000Y4737500D01*
X10241281Y4872228D02*
Y4876960D01*
X10238661Y4869609D02*
X10241281Y4872228D01*
X10235000Y5034604D02*
Y5044500D01*
X10226548Y5026152D02*
X10235000Y5034604D01*
X10226548Y4973320D02*
Y5026152D01*
Y4973320D02*
X10239756Y4960112D01*
Y4947920D02*
Y4960112D01*
Y4947920D02*
X10246106Y4941570D01*
X10288016D01*
X10315702Y4913884D01*
Y4839208D02*
Y4913884D01*
Y4839208D02*
X10322560Y4832350D01*
X10333990D01*
X10339832Y4826508D01*
Y4722966D02*
Y4826508D01*
X10253472Y4481068D02*
X10262500Y4490096D01*
X10253472Y4389628D02*
Y4481068D01*
X10248392Y4384548D02*
X10253472Y4389628D01*
X10248392Y3885459D02*
Y4384548D01*
Y3885459D02*
X10253240Y3880612D01*
Y3815080D02*
Y3880612D01*
X10248159Y3810000D02*
X10253240Y3815080D01*
X10181590Y3810000D02*
X10248159D01*
X10161270Y3789680D02*
X10181590Y3810000D01*
X10161270Y3579368D02*
Y3789680D01*
X10263605Y4381635D02*
X10310000Y4335240D01*
X10263605Y4381635D02*
Y4408845D01*
X10274194Y4409842D02*
X10278193D01*
X10270558Y4406206D02*
X10274194Y4409842D01*
X10270558Y4382448D02*
Y4406206D01*
Y4382448D02*
X10314686Y4338320D01*
Y4331716D02*
Y4338320D01*
X10270743Y4287774D02*
X10314686Y4331716D01*
X10270743Y4262120D02*
Y4287774D01*
Y4262120D02*
X10314686Y4218178D01*
Y4210812D02*
Y4218178D01*
X10266680Y4162806D02*
X10314686Y4210812D01*
X10266680Y4147312D02*
Y4162806D01*
Y4147312D02*
X10314686Y4099306D01*
Y4088892D02*
Y4099306D01*
X10269474Y4043680D02*
X10314686Y4088892D01*
X10269474Y4031006D02*
Y4043680D01*
Y4031006D02*
X10310000Y3990480D01*
X10190734Y4602480D02*
X10204704D01*
X10185654Y4597400D02*
X10190734Y4602480D01*
X10185654Y4430522D02*
Y4597400D01*
Y4430522D02*
X10194036Y4422140D01*
Y4273042D02*
Y4422140D01*
X10183876Y4262882D02*
X10194036Y4273042D01*
X10153650Y4262882D02*
X10183876D01*
X10190988Y4148968D02*
Y4167378D01*
X10152500Y4110480D02*
X10190988Y4148968D01*
X10212832Y4972050D02*
Y4981956D01*
X10191750Y4973240D02*
X10197926Y4979416D01*
X10267950Y3576066D02*
Y3582830D01*
X10257000Y3565115D02*
X10267950Y3576066D01*
X10257000Y3558999D02*
Y3565115D01*
X10175240Y3572443D02*
Y3581560D01*
Y3572443D02*
X10179999Y3567684D01*
Y3558999D02*
Y3567684D01*
X10194290Y3581560D02*
X10203180D01*
X10212832Y3591212D01*
Y3714750D01*
X10256288Y3758205D01*
Y3883740D01*
X10251440Y3888587D02*
X10256288Y3883740D01*
X10251440Y3888587D02*
Y4358386D01*
X10257028Y4363974D01*
Y4432046D01*
X10267500Y4442518D01*
X10281920Y4853432D02*
X10288270Y4859782D01*
Y4895690D01*
X10287000Y4896960D02*
X10288270Y4895690D01*
X10279380Y4896960D02*
X10287000D01*
X10271998Y4876960D02*
X10279380D01*
X10270999Y4877960D02*
X10271998Y4876960D01*
X10260330Y4877960D02*
X10270999D01*
X10261329Y4896960D02*
X10279380D01*
X10260330Y4895960D02*
X10261329Y4896960D01*
X10230358Y4930140D02*
X10236500D01*
X10212578Y4912360D02*
X10230358Y4930140D01*
X10212578Y4879340D02*
Y4912360D01*
Y4879340D02*
X10214458Y4877460D01*
X10220960D01*
X10187686Y4675882D02*
Y4693920D01*
X10180320Y4701286D02*
X10187686Y4693920D01*
X10170160Y4701286D02*
X10180320D01*
X10162540Y4708906D02*
X10170160Y4701286D01*
X10162540Y4708906D02*
Y4745228D01*
X10154412Y4753356D02*
X10162540Y4745228D01*
X10154412Y4753356D02*
Y4995588D01*
X10130000Y5020000D02*
X10154412Y4995588D01*
X10220079Y3604260D02*
Y3605370D01*
Y3604260D02*
X10221509Y3602830D01*
X10229850D01*
X10235000Y3552190D02*
Y3558999D01*
Y3552190D02*
X10236524Y3550666D01*
X10278364D01*
X10279888Y3552190D01*
Y3885946D01*
X10254489Y3911346D02*
X10279888Y3885946D01*
X10254489Y3911346D02*
Y4356101D01*
X10260557Y4362171D01*
Y4410429D01*
X10278364Y4428236D01*
Y4592574D01*
X10271760Y4599178D02*
X10278364Y4592574D01*
X10289540Y4853432D02*
X10296652Y4846320D01*
Y4795252D02*
Y4846320D01*
X10294620Y4793220D02*
X10296652Y4795252D01*
X10233660Y4811522D02*
X10236200Y4808982D01*
X10259568D01*
X10273806Y4823220D01*
X10284460D01*
X10152500Y4215240D02*
X10198354Y4169386D01*
Y4141094D02*
Y4169386D01*
X10152500Y4095240D02*
X10198354Y4141094D01*
X10152500Y4335240D02*
X10190988Y4373728D01*
Y4416752D01*
X10152500Y4455240D02*
X10190988Y4416752D01*
X10309860Y4615770D02*
X10312500Y4613130D01*
Y4608000D02*
Y4613130D01*
X10257535Y4267704D02*
X10310000Y4215240D01*
X10257535Y4267704D02*
Y4282776D01*
X10310000Y4335240D01*
X10257535Y4147704D02*
X10310000Y4095240D01*
X10257535Y4147704D02*
Y4162776D01*
X10310000Y4215240D01*
X10257535Y4027704D02*
X10310000Y3975240D01*
X10257535Y4027704D02*
Y4042776D01*
X10310000Y4095240D01*
X10222780Y3628729D02*
X10225320Y3631269D01*
Y3640000D01*
X10275321Y4684544D02*
X10278241D01*
X10270999Y4681390D02*
Y4690872D01*
X10271506Y4691380D01*
Y4727702D01*
X10262362Y4736846D02*
X10271506Y4727702D01*
X10262362Y4736846D02*
Y4772914D01*
X10256520Y4778756D02*
X10262362Y4772914D01*
X10227564Y4778756D02*
X10256520D01*
X10215880Y4767072D02*
X10227564Y4778756D01*
X10170160Y4767072D02*
X10215880D01*
X10163810Y4773422D02*
X10170160Y4767072D01*
X10163810Y4773422D02*
Y5067046D01*
X10181844Y5085080D01*
X10233660D01*
X10234930Y5083810D01*
Y5061424D02*
Y5083810D01*
Y5061424D02*
X10241500Y5054854D01*
Y5044500D02*
Y5054854D01*
X10241281Y4876960D02*
X10252218D01*
X10253218Y4877960D01*
X10260330D01*
X10220960Y4867402D02*
Y4877460D01*
X10275875Y5052873D02*
Y5072500D01*
X10264252Y5041250D02*
X10275875Y5052873D01*
X10257250Y5041250D02*
X10264252D01*
X10194125Y5047765D02*
Y5072500D01*
Y5047765D02*
X10200640Y5041250D01*
X10212750D01*
X10220960Y4796900D02*
X10223660Y4799600D01*
X10213340Y4796900D02*
X10220960D01*
X10175000Y4705604D02*
Y4727500D01*
X10201910Y5003880D02*
X10205720D01*
X10212750Y5010910D01*
Y5041250D01*
X10248000Y5029570D02*
Y5044500D01*
X10231628Y5013198D02*
X10248000Y5029570D01*
X10231628Y4981956D02*
Y5013198D01*
X10184638Y4678680D02*
Y4688840D01*
X10179558Y4693920D02*
X10184638Y4688840D01*
X10150094Y4693920D02*
X10179558D01*
X10145014Y4699000D02*
X10150094Y4693920D01*
X10145014Y4699000D02*
Y4979586D01*
X10130000Y4994600D02*
X10145014Y4979586D01*
X10160000Y4462740D02*
Y4681770D01*
X10152500Y4455240D02*
X10160000Y4462740D01*
X10152500Y3975240D02*
X10198354Y4021094D01*
Y4049386D01*
X10152500Y4095240D02*
X10198354Y4049386D01*
X10252456Y4823714D02*
X10259822Y4831080D01*
Y4846320D01*
X10252710Y4853432D02*
X10259822Y4846320D01*
X10130000Y4791400D02*
Y4816800D01*
X10308124Y4791400D02*
X10330000D01*
X10306304Y4793220D02*
X10308124Y4791400D01*
X10330000D02*
Y4816800D01*
X10231628Y4944664D02*
Y4954524D01*
Y4944664D02*
X10236500Y4939792D01*
Y4930140D02*
Y4939792D01*
X10243773Y4979970D02*
X10253979D01*
X10241788Y4981956D02*
X10243773Y4979970D01*
X10231628Y4981956D02*
X10241788D01*
X10248900Y3572361D02*
Y3582830D01*
X10246001Y3569462D02*
X10248900Y3572361D01*
X10246001Y3558999D02*
Y3569462D01*
X10187940Y4874420D02*
X10198100D01*
X10196314Y5003880D02*
X10201910D01*
X10195814Y5003380D02*
X10196314Y5003880D01*
X10190480Y5003380D02*
X10195814D01*
X10229850Y3573342D02*
Y3582830D01*
Y3573342D02*
X10235000Y3568192D01*
Y3558999D02*
Y3568192D01*
X10194290Y3571736D02*
Y3581560D01*
X10191000Y3568446D02*
X10194290Y3571736D01*
X10191000Y3558999D02*
Y3568446D01*
X10165469Y3601560D02*
X10175240D01*
X10184520D02*
X10194290D01*
X10224000Y3558999D02*
Y3568269D01*
X10205000Y3628729D02*
Y3640000D01*
X10239130Y3602830D02*
X10248900D01*
X10258180D02*
X10267950D01*
X10129229Y4600000D02*
X10137000D01*
X10133729Y4630000D02*
X10145000D01*
X10165730Y4652500D02*
X10173000D01*
X10212500Y4593000D02*
Y4600270D01*
X10295759Y4615456D02*
X10298678D01*
X10293716Y4617500D02*
X10295759Y4615456D01*
X10287000Y4617500D02*
X10293716D01*
X10287000Y4687500D02*
X10294270D01*
X10228658Y4816431D02*
Y4823950D01*
X10241281Y4797820D02*
X10258051D01*
X10188329Y4894420D02*
X10198100D01*
X10312500Y4678000D02*
Y4685771D01*
X10279539Y4974590D02*
X10290811D01*
X10202000Y3558999D02*
Y3568269D01*
X10148000Y4600000D02*
X10155770D01*
X10133729Y4650320D02*
X10145000D01*
X10173000Y4657500D02*
X10180270D01*
X10154680Y4727500D02*
Y4738771D01*
X10217500Y4585730D02*
Y4593000D01*
X10279730Y4612500D02*
X10287000D01*
X10203070Y4778900D02*
X10213340D01*
X10235500Y4737500D02*
X10243270D01*
X10312500Y4589229D02*
Y4597000D01*
X10168010Y4894420D02*
X10177780D01*
X10241281Y4767820D02*
X10258051D01*
X10211888Y4836201D02*
X10218659D01*
X10238661Y4816431D02*
Y4823950D01*
X10312500Y4659230D02*
Y4667000D01*
X10248661Y4836201D02*
X10255431D01*
X10220960Y4896460D02*
Y4906480D01*
X10191750Y4956970D02*
Y4963240D01*
X10210500Y4930140D02*
X10222770D01*
X10231509Y4896960D02*
X10241281D01*
X10190480Y5014380D02*
Y5022151D01*
X10222230Y4944650D02*
Y4954524D01*
X10201910Y5013880D02*
Y5020150D01*
X10253979Y4953970D02*
Y4966240D01*
X10222000Y5044500D02*
Y5054520D01*
X10279539Y4954270D02*
X10290811D01*
D36*
X10287000Y4622500D02*
X10312400D01*
X10294366Y4677500D02*
X10339832Y4722966D01*
X10287000Y4677500D02*
X10294366D01*
X10262500Y4490096D02*
Y4593000D01*
X10173000Y4682500D02*
X10180320D01*
X10207500Y4593000D02*
Y4599684D01*
X10204704Y4602480D02*
X10207500Y4599684D01*
X10202500Y4273378D02*
Y4593000D01*
X10197500Y4446778D02*
Y4593000D01*
X10267500Y4442518D02*
Y4593000D01*
X10222500Y4693920D02*
Y4707000D01*
X10173000Y4667500D02*
X10179304D01*
X10187686Y4675882D01*
X10253979Y4599178D02*
X10271760D01*
X10252500Y4597698D02*
X10253979Y4599178D01*
X10252500Y4593000D02*
Y4597698D01*
X10192500Y4470480D02*
Y4593000D01*
X10278241Y4684544D02*
X10280284Y4682500D01*
X10287000D01*
X10279888Y4672500D02*
X10287000D01*
X10270999Y4681390D02*
X10279888Y4672500D01*
X10227500Y4707000D02*
Y4721173D01*
X10235070Y4714270D02*
X10237580D01*
X10232500Y4711700D02*
X10235070Y4714270D01*
X10232500Y4707000D02*
Y4711700D01*
X10243800Y4714270D02*
X10245040D01*
X10242500Y4712970D02*
X10243800Y4714270D01*
X10242500Y4707000D02*
Y4712970D01*
X10252500Y4707000D02*
Y4756448D01*
X10237500Y4699822D02*
Y4707000D01*
X10237470Y4699792D02*
X10237500Y4699822D01*
X10173000Y4672500D02*
X10178458D01*
X10184638Y4678680D01*
X10165730Y4687500D02*
X10173000D01*
X10160000Y4681770D02*
X10165730Y4687500D01*
D37*
X10281920Y4853432D02*
X10289540D01*
X10252710D02*
X10281920D01*
X10238661Y4853450D02*
Y4869609D01*
X10233660Y4811522D02*
Y4823950D01*
Y4853450D02*
Y4861052D01*
X10243660Y4853450D02*
Y4860969D01*
X10223660Y4853450D02*
Y4858352D01*
X10207592Y4874420D02*
X10223660Y4858352D01*
Y4799600D02*
Y4823950D01*
X10243660Y4823714D02*
Y4823950D01*
Y4823714D02*
X10252456D01*
X10243660Y4853432D02*
X10252710D01*
X10243660D02*
Y4853450D01*
X10228658Y4838700D02*
Y4853450D01*
D38*
X10220706Y4838700D02*
X10228658D01*
X10233660D01*
X10220706D02*
X10233660D01*
X10220706D02*
Y4841199D01*
X10218659D02*
X10220706D01*
X10218659Y4836201D02*
X10220706D01*
Y4838700D01*
X10248646Y4836201D02*
X10248661D01*
X10248646D02*
Y4841199D01*
X10248661D01*
D39*
X10223504Y5072500D02*
D03*
X10246499D02*
D03*
D40*
X10152500Y4455240D02*
D03*
Y4470480D02*
D03*
Y4350480D02*
D03*
Y4335240D02*
D03*
Y4215240D02*
D03*
Y4230480D02*
D03*
Y4110480D02*
D03*
Y4095240D02*
D03*
Y3975240D02*
D03*
Y3990480D02*
D03*
X10310000Y4470480D02*
D03*
Y4455240D02*
D03*
Y4335240D02*
D03*
Y4350480D02*
D03*
Y4230480D02*
D03*
Y4215240D02*
D03*
Y4095240D02*
D03*
Y4110480D02*
D03*
Y3990480D02*
D03*
Y3975240D02*
D03*
X10149840Y4528820D02*
D03*
X10139680D02*
D03*
X10132060Y4686300D02*
D03*
D41*
X10325800Y4752700D02*
D03*
X10313101D02*
D03*
X10300400D02*
D03*
X10287700D02*
D03*
X10275000D02*
D03*
X10325800Y4740000D02*
D03*
X10313101D02*
D03*
X10300400D02*
D03*
X10287700D02*
D03*
D42*
X10275000D02*
D03*
D43*
X10257250Y5041250D02*
D03*
X10212750D02*
D03*
D44*
X10198500Y5072500D02*
D03*
X10271500D02*
D03*
D45*
X10228580Y3774430D02*
D03*
Y4503430D02*
D03*
D46*
Y3860880D02*
D03*
D47*
Y4416980D02*
D03*
D48*
X10330000Y5020000D02*
D03*
X10130000D02*
D03*
D49*
X10330000Y4994600D02*
D03*
Y4969200D02*
D03*
Y4943800D02*
D03*
Y4918400D02*
D03*
Y4893000D02*
D03*
Y4867600D02*
D03*
Y4842200D02*
D03*
Y4816800D02*
D03*
Y4791400D02*
D03*
X10130000Y4994600D02*
D03*
Y4969200D02*
D03*
Y4943800D02*
D03*
Y4918400D02*
D03*
Y4893000D02*
D03*
Y4867600D02*
D03*
Y4842200D02*
D03*
Y4816800D02*
D03*
Y4791400D02*
D03*
D50*
X10183876Y4270756D02*
D03*
X10307421Y4615770D02*
D03*
X10299700Y4549140D02*
D03*
X10156952Y4243832D02*
D03*
X10220960Y4867402D02*
D03*
X10161270Y3579368D02*
D03*
X10246001Y3575409D02*
D03*
X10180320Y4682500D02*
D03*
X10197500Y4446778D02*
D03*
X10212832Y4972050D02*
D03*
X10197926Y4979416D02*
D03*
X10222500Y4693920D02*
D03*
X10220079Y3605370D02*
D03*
X10192500Y4470480D02*
D03*
X10222780Y3628729D02*
D03*
X10275321Y4684544D02*
D03*
X10233660Y4861052D02*
D03*
X10243660Y4860969D02*
D03*
X10227500Y4721173D02*
D03*
X10237580Y4714270D02*
D03*
X10245040D02*
D03*
X10252500Y4756448D02*
D03*
X10237470Y4699792D02*
D03*
X10175000Y4705604D02*
D03*
X10165469Y3601560D02*
D03*
X10184520D02*
D03*
X10224000Y3568269D02*
D03*
X10205000Y3628729D02*
D03*
X10239130Y3602830D02*
D03*
X10258180D02*
D03*
X10129229Y4600000D02*
D03*
X10133729Y4630000D02*
D03*
X10165730Y4652500D02*
D03*
X10212500Y4600270D02*
D03*
X10298678Y4615456D02*
D03*
X10294270Y4687500D02*
D03*
X10228658Y4816431D02*
D03*
X10258051Y4797820D02*
D03*
X10188329Y4894420D02*
D03*
X10312500Y4685771D02*
D03*
X10279539Y4974590D02*
D03*
X10202000Y3568269D02*
D03*
X10155770Y4600000D02*
D03*
X10133729Y4650320D02*
D03*
X10180270Y4657500D02*
D03*
X10154680Y4738771D02*
D03*
X10217500Y4585730D02*
D03*
X10279730Y4612500D02*
D03*
X10203070Y4778900D02*
D03*
X10243270Y4737500D02*
D03*
X10312500Y4589229D02*
D03*
X10168010Y4894420D02*
D03*
X10258051Y4767820D02*
D03*
X10211888Y4836201D02*
D03*
X10238661Y4816431D02*
D03*
X10312500Y4659230D02*
D03*
X10255431Y4836201D02*
D03*
X10220960Y4906480D02*
D03*
X10191750Y4956970D02*
D03*
X10222770Y4930140D02*
D03*
X10231509Y4896960D02*
D03*
X10190480Y5022151D02*
D03*
X10222230Y4944650D02*
D03*
X10201910Y5020150D02*
D03*
X10253979Y4966240D02*
D03*
X10222000Y5054520D02*
D03*
X10279539Y4954270D02*
D03*
M02*
