G04 Layer_Physical_Order=4*
G04 Layer_Color=16711680*
%FSLAX44Y44*%
%MOMM*%
G71*
G01*
G75*
%ADD35C,0.1778*%
%ADD40C,0.4572*%
%ADD41C,1.1000*%
%ADD42R,1.1000X1.1000*%
G04:AMPARAMS|DCode=43|XSize=1.05mm|YSize=1.25mm|CornerRadius=0.525mm|HoleSize=0mm|Usage=FLASHONLY|Rotation=180.000|XOffset=0mm|YOffset=0mm|HoleType=Round|Shape=RoundedRectangle|*
%AMROUNDEDRECTD43*
21,1,1.0500,0.2000,0,0,180.0*
21,1,0.0000,1.2500,0,0,180.0*
1,1,1.0500,0.0000,0.1000*
1,1,1.0500,0.0000,0.1000*
1,1,1.0500,0.0000,-0.1000*
1,1,1.0500,0.0000,-0.1000*
%
%ADD43ROUNDEDRECTD43*%
G04:AMPARAMS|DCode=44|XSize=2.1mm|YSize=1.9mm|CornerRadius=0.494mm|HoleSize=0mm|Usage=FLASHONLY|Rotation=180.000|XOffset=0mm|YOffset=0mm|HoleType=Round|Shape=RoundedRectangle|*
%AMROUNDEDRECTD44*
21,1,2.1000,0.9120,0,0,180.0*
21,1,1.1120,1.9000,0,0,180.0*
1,1,0.9880,-0.5560,0.4560*
1,1,0.9880,0.5560,0.4560*
1,1,0.9880,0.5560,-0.4560*
1,1,0.9880,-0.5560,-0.4560*
%
%ADD44ROUNDEDRECTD44*%
%ADD45R,4.5720X3.3020*%
%ADD46C,4.5000*%
%ADD47R,4.5000X4.5000*%
%ADD48R,1.5240X1.5240*%
%ADD49C,1.5240*%
%ADD50C,0.4000*%
G36*
X10345000Y4165000D02*
X10275000D01*
Y4235000D01*
X10345000D01*
Y4165000D01*
D02*
G37*
G36*
X10187500D02*
X10117500D01*
Y4235000D01*
X10187500D01*
Y4165000D01*
D02*
G37*
G36*
X10345000Y4045000D02*
X10275000D01*
Y4115000D01*
X10345000D01*
Y4045000D01*
D02*
G37*
G36*
X10187500Y4285000D02*
X10117500D01*
Y4355000D01*
X10187500D01*
Y4285000D01*
D02*
G37*
G36*
X10345000Y4405000D02*
X10275000D01*
Y4475000D01*
X10345000D01*
Y4405000D01*
D02*
G37*
G36*
X10187500D02*
X10117500D01*
Y4475000D01*
X10187500D01*
Y4405000D01*
D02*
G37*
G36*
X10345000Y4285000D02*
X10275000D01*
Y4355000D01*
X10345000D01*
Y4285000D01*
D02*
G37*
G36*
X10187500Y4045000D02*
X10117500D01*
Y4115000D01*
X10187500D01*
Y4045000D01*
D02*
G37*
G36*
X10334689Y4877371D02*
X10334597Y4876622D01*
X10333279Y4875865D01*
X10332321Y4876261D01*
X10330000Y4876567D01*
X10327679Y4876261D01*
X10325516Y4875366D01*
X10323660Y4873940D01*
X10322235Y4872083D01*
X10321339Y4869921D01*
X10321034Y4867600D01*
X10321339Y4865280D01*
X10322235Y4863117D01*
X10323660Y4861260D01*
X10325516Y4859835D01*
X10327679Y4858939D01*
X10330000Y4858633D01*
X10332321Y4858939D01*
X10333990Y4859630D01*
X10335260Y4858952D01*
Y4850848D01*
X10333990Y4850170D01*
X10332321Y4850861D01*
X10330000Y4851167D01*
X10327679Y4850861D01*
X10325516Y4849966D01*
X10323660Y4848541D01*
X10322235Y4846683D01*
X10321339Y4844521D01*
X10321034Y4842200D01*
X10321339Y4839879D01*
X10322235Y4837717D01*
X10323660Y4835860D01*
X10325516Y4834435D01*
X10327679Y4833539D01*
X10330000Y4833233D01*
X10332321Y4833539D01*
X10333990Y4834230D01*
X10335260Y4833552D01*
Y4490720D01*
X10124440D01*
X10119360Y4495800D01*
X10121900Y4498340D01*
Y4836067D01*
X10123170Y4836498D01*
X10123660Y4835860D01*
X10125517Y4834435D01*
X10127679Y4833539D01*
X10130000Y4833233D01*
X10132321Y4833539D01*
X10134484Y4834435D01*
X10136340Y4835860D01*
X10137766Y4837717D01*
X10138661Y4839879D01*
X10138967Y4842200D01*
X10138661Y4844521D01*
X10137766Y4846683D01*
X10136340Y4848541D01*
X10134484Y4849966D01*
X10132321Y4850861D01*
X10130000Y4851167D01*
X10127679Y4850861D01*
X10125517Y4849966D01*
X10123660Y4848541D01*
X10123170Y4847903D01*
X10121900Y4848334D01*
Y4861467D01*
X10123170Y4861898D01*
X10123660Y4861260D01*
X10125517Y4859835D01*
X10127679Y4858939D01*
X10130000Y4858633D01*
X10132321Y4858939D01*
X10134484Y4859835D01*
X10136340Y4861260D01*
X10137766Y4863117D01*
X10138661Y4865280D01*
X10138967Y4867600D01*
X10138661Y4869921D01*
X10137766Y4872083D01*
X10136340Y4873940D01*
X10134484Y4875366D01*
X10132321Y4876261D01*
X10130000Y4876567D01*
X10127679Y4876261D01*
X10125517Y4875366D01*
X10123660Y4873940D01*
X10123170Y4873302D01*
X10121900Y4873734D01*
Y4881880D01*
X10330179D01*
X10334689Y4877371D01*
D02*
G37*
G36*
X10187500Y3925000D02*
X10117500D01*
Y3995000D01*
X10187500D01*
Y3925000D01*
D02*
G37*
G36*
X10277480Y5081960D02*
X10278010Y5081890D01*
X10278540Y5081740D01*
X10278970Y5081580D01*
X10279390Y5081380D01*
X10279830Y5081100D01*
X10280210Y5080810D01*
X10280601Y5080470D01*
X10280890Y5080110D01*
X10281169Y5079740D01*
X10281410Y5079330D01*
X10281610Y5078910D01*
X10281770Y5078490D01*
X10281890Y5077980D01*
X10281960Y5077530D01*
X10282000Y5077000D01*
Y5068000D01*
X10281960Y5067450D01*
X10281880Y5067000D01*
X10281760Y5066500D01*
X10281600Y5066100D01*
X10281470Y5065770D01*
X10281219Y5065340D01*
X10280959Y5064970D01*
X10280649Y5064590D01*
X10280200Y5064180D01*
X10279800Y5063880D01*
X10279340Y5063590D01*
X10278810Y5063350D01*
X10277939Y5063090D01*
X10277000Y5063000D01*
X10261000D01*
Y5082000D01*
X10277000D01*
X10277480Y5081960D01*
D02*
G37*
G36*
X10209000Y5063000D02*
X10193000D01*
X10192520Y5063040D01*
X10191990Y5063110D01*
X10191460Y5063260D01*
X10191030Y5063420D01*
X10190610Y5063620D01*
X10190170Y5063900D01*
X10189790Y5064190D01*
X10189400Y5064530D01*
X10189110Y5064890D01*
X10188830Y5065260D01*
X10188590Y5065670D01*
X10188390Y5066090D01*
X10188230Y5066510D01*
X10188110Y5067020D01*
X10188040Y5067470D01*
X10188000Y5068000D01*
Y5077000D01*
X10188040Y5077550D01*
X10188120Y5078000D01*
X10188240Y5078500D01*
X10188400Y5078900D01*
X10188530Y5079230D01*
X10188780Y5079660D01*
X10189040Y5080030D01*
X10189350Y5080410D01*
X10189800Y5080820D01*
X10190200Y5081120D01*
X10190660Y5081410D01*
X10191190Y5081650D01*
X10192060Y5081910D01*
X10193000Y5082000D01*
X10209000D01*
Y5063000D01*
D02*
G37*
G36*
X10345000Y3925000D02*
X10275000D01*
Y3995000D01*
X10345000D01*
Y3925000D01*
D02*
G37*
%LPC*%
G36*
X10334500Y4225000D02*
X10285500D01*
Y4175000D01*
X10298500D01*
Y4212000D01*
X10303500D01*
Y4175000D01*
X10316500D01*
Y4212000D01*
X10321500D01*
Y4175000D01*
X10334500D01*
Y4225000D01*
D02*
G37*
%LPD*%
G36*
X10329500Y4180000D02*
X10326500D01*
Y4217000D01*
X10311500D01*
Y4180000D01*
X10308500D01*
Y4217000D01*
X10293500D01*
Y4180000D01*
X10290500D01*
Y4220000D01*
X10329500D01*
Y4180000D01*
D02*
G37*
%LPC*%
G36*
X10177000Y4225000D02*
X10128000D01*
Y4175000D01*
X10141000D01*
Y4212000D01*
X10146000D01*
Y4175000D01*
X10159000D01*
Y4212000D01*
X10164000D01*
Y4175000D01*
X10177000D01*
Y4225000D01*
D02*
G37*
%LPD*%
G36*
X10172000Y4180000D02*
X10169000D01*
Y4217000D01*
X10154000D01*
Y4180000D01*
X10151000D01*
Y4217000D01*
X10136000D01*
Y4180000D01*
X10133000D01*
Y4220000D01*
X10172000D01*
Y4180000D01*
D02*
G37*
%LPC*%
G36*
X10334500Y4105000D02*
X10285500D01*
Y4055000D01*
X10298500D01*
Y4092000D01*
X10303500D01*
Y4055000D01*
X10316500D01*
Y4092000D01*
X10321500D01*
Y4055000D01*
X10334500D01*
Y4105000D01*
D02*
G37*
%LPD*%
G36*
X10329500Y4060000D02*
X10326500D01*
Y4097000D01*
X10311500D01*
Y4060000D01*
X10308500D01*
Y4097000D01*
X10293500D01*
Y4060000D01*
X10290500D01*
Y4100000D01*
X10329500D01*
Y4060000D01*
D02*
G37*
%LPC*%
G36*
X10177000Y4345000D02*
X10128000D01*
Y4295000D01*
X10141000D01*
Y4332000D01*
X10146000D01*
Y4295000D01*
X10159000D01*
Y4332000D01*
X10164000D01*
Y4295000D01*
X10177000D01*
Y4345000D01*
D02*
G37*
%LPD*%
G36*
X10172000Y4300000D02*
X10169000D01*
Y4337000D01*
X10154000D01*
Y4300000D01*
X10151000D01*
Y4337000D01*
X10136000D01*
Y4300000D01*
X10133000D01*
Y4340000D01*
X10172000D01*
Y4300000D01*
D02*
G37*
%LPC*%
G36*
X10334500Y4465000D02*
X10285500D01*
Y4415000D01*
X10298500D01*
Y4452000D01*
X10303500D01*
Y4415000D01*
X10316500D01*
Y4452000D01*
X10321500D01*
Y4415000D01*
X10334500D01*
Y4465000D01*
D02*
G37*
%LPD*%
G36*
X10329500Y4420000D02*
X10326500D01*
Y4457000D01*
X10311500D01*
Y4420000D01*
X10308500D01*
Y4457000D01*
X10293500D01*
Y4420000D01*
X10290500D01*
Y4460000D01*
X10329500D01*
Y4420000D01*
D02*
G37*
%LPC*%
G36*
X10177000Y4465000D02*
X10128000D01*
Y4415000D01*
X10141000D01*
Y4452000D01*
X10146000D01*
Y4415000D01*
X10159000D01*
Y4452000D01*
X10164000D01*
Y4415000D01*
X10177000D01*
Y4465000D01*
D02*
G37*
%LPD*%
G36*
X10172000Y4420000D02*
X10169000D01*
Y4457000D01*
X10154000D01*
Y4420000D01*
X10151000D01*
Y4457000D01*
X10136000D01*
Y4420000D01*
X10133000D01*
Y4460000D01*
X10172000D01*
Y4420000D01*
D02*
G37*
%LPC*%
G36*
X10334500Y4345000D02*
X10285500D01*
Y4295000D01*
X10298500D01*
Y4332000D01*
X10303500D01*
Y4295000D01*
X10316500D01*
Y4332000D01*
X10321500D01*
Y4295000D01*
X10334500D01*
Y4345000D01*
D02*
G37*
%LPD*%
G36*
X10329500Y4300000D02*
X10326500D01*
Y4337000D01*
X10311500D01*
Y4300000D01*
X10308500D01*
Y4337000D01*
X10293500D01*
Y4300000D01*
X10290500D01*
Y4340000D01*
X10329500D01*
Y4300000D01*
D02*
G37*
%LPC*%
G36*
X10177000Y4105000D02*
X10128000D01*
Y4055000D01*
X10141000D01*
Y4092000D01*
X10146000D01*
Y4055000D01*
X10159000D01*
Y4092000D01*
X10164000D01*
Y4055000D01*
X10177000D01*
Y4105000D01*
D02*
G37*
%LPD*%
G36*
X10172000Y4060000D02*
X10169000D01*
Y4097000D01*
X10154000D01*
Y4060000D01*
X10151000D01*
Y4097000D01*
X10136000D01*
Y4060000D01*
X10133000D01*
Y4100000D01*
X10172000D01*
Y4060000D01*
D02*
G37*
%LPC*%
G36*
X10312500Y4592563D02*
X10311224Y4592310D01*
X10310143Y4591587D01*
X10309420Y4590505D01*
X10309166Y4589229D01*
X10309420Y4587953D01*
X10310143Y4586872D01*
X10311224Y4586149D01*
X10312500Y4585895D01*
X10313776Y4586149D01*
X10314857Y4586872D01*
X10315580Y4587953D01*
X10315834Y4589229D01*
X10315580Y4590505D01*
X10314857Y4591587D01*
X10313776Y4592310D01*
X10312500Y4592563D01*
D02*
G37*
G36*
X10217500Y4589064D02*
X10216224Y4588810D01*
X10215142Y4588088D01*
X10214420Y4587006D01*
X10214166Y4585730D01*
X10214420Y4584454D01*
X10215142Y4583373D01*
X10216224Y4582650D01*
X10217500Y4582396D01*
X10218776Y4582650D01*
X10219858Y4583373D01*
X10220580Y4584454D01*
X10220834Y4585730D01*
X10220580Y4587006D01*
X10219858Y4588088D01*
X10218776Y4588810D01*
X10217500Y4589064D01*
D02*
G37*
G36*
X10180320Y4685834D02*
X10179044Y4685580D01*
X10177963Y4684858D01*
X10177240Y4683776D01*
X10176986Y4682500D01*
X10177240Y4681224D01*
X10177963Y4680143D01*
X10179044Y4679420D01*
X10180320Y4679166D01*
X10180373Y4679177D01*
X10297150Y4551209D01*
X10296620Y4550416D01*
X10296366Y4549140D01*
X10296620Y4547864D01*
X10297343Y4546783D01*
X10298424Y4546060D01*
X10299700Y4545806D01*
X10300975Y4546060D01*
X10302058Y4546783D01*
X10302781Y4547864D01*
X10303035Y4549140D01*
X10302781Y4550416D01*
X10302058Y4551497D01*
X10301902Y4551602D01*
Y4551680D01*
X10301827Y4552053D01*
X10301770Y4552429D01*
X10301743Y4552472D01*
X10301733Y4552522D01*
X10301522Y4552838D01*
X10301326Y4553164D01*
X10183591Y4682182D01*
X10183654Y4682500D01*
X10183400Y4683776D01*
X10182678Y4684858D01*
X10181596Y4685580D01*
X10180320Y4685834D01*
D02*
G37*
G36*
X10129229Y4603334D02*
X10127953Y4603080D01*
X10126872Y4602357D01*
X10126149Y4601276D01*
X10125895Y4600000D01*
X10126149Y4598724D01*
X10126872Y4597643D01*
X10127953Y4596920D01*
X10129229Y4596666D01*
X10130505Y4596920D01*
X10131587Y4597643D01*
X10132310Y4598724D01*
X10132563Y4600000D01*
X10132310Y4601276D01*
X10131587Y4602357D01*
X10130505Y4603080D01*
X10129229Y4603334D01*
D02*
G37*
G36*
X10312500Y4689105D02*
X10311224Y4688851D01*
X10310143Y4688128D01*
X10309420Y4687047D01*
X10309166Y4685771D01*
X10309420Y4684495D01*
X10310143Y4683413D01*
X10311224Y4682690D01*
X10312500Y4682437D01*
X10313776Y4682690D01*
X10314857Y4683413D01*
X10315580Y4684495D01*
X10315834Y4685771D01*
X10315580Y4687047D01*
X10314857Y4688128D01*
X10313776Y4688851D01*
X10312500Y4689105D01*
D02*
G37*
G36*
X10294270Y4690834D02*
X10292994Y4690580D01*
X10291913Y4689857D01*
X10291190Y4688776D01*
X10290936Y4687500D01*
X10291190Y4686224D01*
X10291913Y4685143D01*
X10292994Y4684420D01*
X10294270Y4684166D01*
X10295546Y4684420D01*
X10296627Y4685143D01*
X10297350Y4686224D01*
X10297604Y4687500D01*
X10297350Y4688776D01*
X10296627Y4689857D01*
X10295546Y4690580D01*
X10294270Y4690834D01*
D02*
G37*
G36*
X10275321Y4687878D02*
X10274045Y4687625D01*
X10272964Y4686902D01*
X10272241Y4685820D01*
X10271987Y4684544D01*
X10272241Y4683268D01*
X10272964Y4682187D01*
X10274045Y4681464D01*
X10275321Y4681210D01*
X10276598Y4681464D01*
X10277679Y4682187D01*
X10278402Y4683268D01*
X10278656Y4684544D01*
X10278402Y4685820D01*
X10277679Y4686902D01*
X10276598Y4687625D01*
X10275321Y4687878D01*
D02*
G37*
G36*
X10180270Y4660834D02*
X10178994Y4660580D01*
X10177913Y4659857D01*
X10177190Y4658776D01*
X10176936Y4657500D01*
X10177190Y4656224D01*
X10177913Y4655143D01*
X10178994Y4654420D01*
X10180270Y4654166D01*
X10181546Y4654420D01*
X10182628Y4655143D01*
X10183350Y4656224D01*
X10183604Y4657500D01*
X10183350Y4658776D01*
X10182628Y4659857D01*
X10181546Y4660580D01*
X10180270Y4660834D01*
D02*
G37*
G36*
X10312500Y4662564D02*
X10311224Y4662310D01*
X10310143Y4661587D01*
X10309420Y4660506D01*
X10309166Y4659230D01*
X10309420Y4657954D01*
X10310143Y4656872D01*
X10311224Y4656149D01*
X10312500Y4655896D01*
X10313776Y4656149D01*
X10314857Y4656872D01*
X10315580Y4657954D01*
X10315834Y4659230D01*
X10315580Y4660506D01*
X10314857Y4661587D01*
X10313776Y4662310D01*
X10312500Y4662564D01*
D02*
G37*
G36*
X10245040Y4717604D02*
X10243765Y4717350D01*
X10242683Y4716628D01*
X10241960Y4715546D01*
X10241958Y4715534D01*
X10240663D01*
X10240660Y4715546D01*
X10239938Y4716628D01*
X10238856Y4717350D01*
X10237580Y4717604D01*
X10236304Y4717350D01*
X10235223Y4716628D01*
X10234500Y4715546D01*
X10234246Y4714270D01*
X10234500Y4712994D01*
X10235223Y4711913D01*
X10236304Y4711190D01*
X10237580Y4710936D01*
X10238856Y4711190D01*
X10239938Y4711913D01*
X10240660Y4712994D01*
X10240663Y4713006D01*
X10241958D01*
X10241960Y4712994D01*
X10242683Y4711913D01*
X10243765Y4711190D01*
X10245040Y4710936D01*
X10246316Y4711190D01*
X10247397Y4711913D01*
X10248120Y4712994D01*
X10248374Y4714270D01*
X10248120Y4715546D01*
X10247397Y4716628D01*
X10246316Y4717350D01*
X10245040Y4717604D01*
D02*
G37*
G36*
X10243270Y4740834D02*
X10241995Y4740580D01*
X10240913Y4739857D01*
X10240190Y4738776D01*
X10239937Y4737500D01*
X10240190Y4736224D01*
X10240913Y4735142D01*
X10241995Y4734420D01*
X10243270Y4734166D01*
X10244546Y4734420D01*
X10245627Y4735142D01*
X10246350Y4736224D01*
X10246604Y4737500D01*
X10246350Y4738776D01*
X10245627Y4739857D01*
X10244546Y4740580D01*
X10243270Y4740834D01*
D02*
G37*
G36*
X10154680Y4742105D02*
X10153405Y4741851D01*
X10152323Y4741128D01*
X10151600Y4740047D01*
X10151346Y4738771D01*
X10151600Y4737495D01*
X10152323Y4736413D01*
X10153405Y4735691D01*
X10154680Y4735437D01*
X10155956Y4735691D01*
X10157038Y4736413D01*
X10157761Y4737495D01*
X10158015Y4738771D01*
X10157761Y4740047D01*
X10157038Y4741128D01*
X10155956Y4741851D01*
X10154680Y4742105D01*
D02*
G37*
G36*
X10203070Y4782234D02*
X10201794Y4781980D01*
X10200712Y4781257D01*
X10199990Y4780176D01*
X10199736Y4778900D01*
X10199990Y4777624D01*
X10200712Y4776542D01*
X10201794Y4775819D01*
X10203070Y4775566D01*
X10204346Y4775819D01*
X10205427Y4776542D01*
X10206150Y4777624D01*
X10206404Y4778900D01*
X10206150Y4780176D01*
X10205427Y4781257D01*
X10204346Y4781980D01*
X10203070Y4782234D01*
D02*
G37*
G36*
X10258051Y4771154D02*
X10256774Y4770900D01*
X10255692Y4770177D01*
X10254969Y4769096D01*
X10254716Y4767820D01*
X10254969Y4766544D01*
X10255692Y4765462D01*
X10256239Y4765097D01*
X10256531Y4763592D01*
X10252684Y4759745D01*
X10252500Y4759782D01*
X10251224Y4759529D01*
X10250143Y4758806D01*
X10249420Y4757724D01*
X10249166Y4756448D01*
X10249420Y4755172D01*
X10250143Y4754091D01*
X10251224Y4753368D01*
X10252500Y4753114D01*
X10253776Y4753368D01*
X10254857Y4754091D01*
X10255581Y4755172D01*
X10255834Y4756448D01*
X10255797Y4756632D01*
X10260371Y4761206D01*
X10264424D01*
X10264910Y4760033D01*
X10249884Y4745006D01*
X10249407Y4744292D01*
X10249238Y4743450D01*
Y4727165D01*
X10245448Y4723374D01*
X10229962D01*
X10229858Y4723530D01*
X10228776Y4724253D01*
X10227500Y4724507D01*
X10226224Y4724253D01*
X10225142Y4723530D01*
X10224420Y4722449D01*
X10224166Y4721173D01*
X10224420Y4719897D01*
X10225142Y4718815D01*
X10226224Y4718092D01*
X10227500Y4717839D01*
X10228776Y4718092D01*
X10229858Y4718815D01*
X10229962Y4718971D01*
X10246360D01*
X10247202Y4719139D01*
X10247916Y4719616D01*
X10252794Y4724494D01*
X10253586Y4724316D01*
X10254065Y4724009D01*
Y4699912D01*
X10250275Y4696121D01*
X10240148D01*
X10239763Y4697391D01*
X10239827Y4697434D01*
X10240551Y4698516D01*
X10240804Y4699792D01*
X10240551Y4701068D01*
X10239827Y4702149D01*
X10238746Y4702872D01*
X10237470Y4703126D01*
X10237286Y4703089D01*
X10233215Y4707161D01*
X10232501Y4707638D01*
X10231658Y4707805D01*
X10177462D01*
X10177358Y4707961D01*
X10176276Y4708684D01*
X10175000Y4708938D01*
X10173724Y4708684D01*
X10172643Y4707961D01*
X10171920Y4706880D01*
X10171666Y4705604D01*
X10171920Y4704328D01*
X10172643Y4703246D01*
X10173724Y4702524D01*
X10175000Y4702270D01*
X10176276Y4702524D01*
X10177358Y4703246D01*
X10177462Y4703403D01*
X10230746D01*
X10234172Y4699976D01*
X10234136Y4699792D01*
X10234390Y4698516D01*
X10235112Y4697434D01*
X10235177Y4697391D01*
X10234792Y4696121D01*
X10224962D01*
X10224858Y4696277D01*
X10223776Y4697000D01*
X10222500Y4697254D01*
X10221224Y4697000D01*
X10220143Y4696277D01*
X10219420Y4695196D01*
X10219166Y4693920D01*
X10219420Y4692644D01*
X10220143Y4691562D01*
X10221224Y4690840D01*
X10222500Y4690586D01*
X10223776Y4690840D01*
X10224858Y4691562D01*
X10224962Y4691719D01*
X10251187D01*
X10252029Y4691886D01*
X10252743Y4692364D01*
X10257822Y4697444D01*
X10258300Y4698158D01*
X10258467Y4699000D01*
Y4737458D01*
X10266960Y4745951D01*
X10268230Y4745425D01*
Y4733230D01*
X10281770D01*
Y4734521D01*
X10282380Y4734882D01*
X10283040Y4735042D01*
X10284286Y4734087D01*
X10285933Y4733405D01*
X10287700Y4733172D01*
X10289468Y4733405D01*
X10291115Y4734087D01*
X10292528Y4735172D01*
X10293287Y4736161D01*
X10293555Y4736256D01*
X10294546D01*
X10294812Y4736161D01*
X10295571Y4735172D01*
X10296986Y4734087D01*
X10298633Y4733405D01*
X10300400Y4733172D01*
X10302168Y4733405D01*
X10303815Y4734087D01*
X10305228Y4735172D01*
X10305988Y4736161D01*
X10306255Y4736256D01*
X10307246D01*
X10307512Y4736161D01*
X10308271Y4735172D01*
X10309686Y4734087D01*
X10311333Y4733405D01*
X10313101Y4733172D01*
X10314867Y4733405D01*
X10316514Y4734087D01*
X10317928Y4735172D01*
X10318688Y4736161D01*
X10318954Y4736256D01*
X10319946D01*
X10320212Y4736161D01*
X10320972Y4735172D01*
X10322385Y4734087D01*
X10324033Y4733405D01*
X10325800Y4733172D01*
X10327567Y4733405D01*
X10329214Y4734087D01*
X10330629Y4735172D01*
X10331714Y4736586D01*
X10332396Y4738233D01*
X10332628Y4740000D01*
X10332396Y4741768D01*
X10331714Y4743414D01*
X10330629Y4744828D01*
X10329639Y4745588D01*
X10329545Y4745854D01*
Y4746846D01*
X10329639Y4747112D01*
X10330629Y4747872D01*
X10331714Y4749286D01*
X10332396Y4750933D01*
X10332628Y4752700D01*
X10332396Y4754467D01*
X10331714Y4756115D01*
X10330629Y4757529D01*
X10329214Y4758614D01*
X10327567Y4759296D01*
X10325800Y4759529D01*
X10324033Y4759296D01*
X10322820Y4758794D01*
X10316649Y4764964D01*
X10315935Y4765441D01*
X10315093Y4765609D01*
X10261917D01*
X10261198Y4766879D01*
X10261384Y4767820D01*
X10261130Y4769096D01*
X10260408Y4770177D01*
X10259326Y4770900D01*
X10258051Y4771154D01*
D02*
G37*
G36*
Y4801154D02*
X10256774Y4800901D01*
X10255692Y4800178D01*
X10254969Y4799096D01*
X10254716Y4797820D01*
X10254969Y4796544D01*
X10255692Y4795463D01*
X10256774Y4794740D01*
X10258051Y4794486D01*
X10259326Y4794740D01*
X10260408Y4795463D01*
X10261130Y4796544D01*
X10261384Y4797820D01*
X10261130Y4799096D01*
X10260408Y4800178D01*
X10259326Y4800901D01*
X10258051Y4801154D01*
D02*
G37*
G36*
X10165730Y4655834D02*
X10164454Y4655580D01*
X10163373Y4654858D01*
X10162650Y4653776D01*
X10162396Y4652500D01*
X10162650Y4651224D01*
X10163373Y4650143D01*
X10164454Y4649420D01*
X10165730Y4649166D01*
X10167006Y4649420D01*
X10168088Y4650143D01*
X10168810Y4651224D01*
X10169064Y4652500D01*
X10168810Y4653776D01*
X10168088Y4654858D01*
X10167006Y4655580D01*
X10165730Y4655834D01*
D02*
G37*
G36*
X10255431Y4839535D02*
X10254155Y4839281D01*
X10253074Y4838558D01*
X10252351Y4837477D01*
X10252097Y4836201D01*
X10252351Y4834925D01*
X10253074Y4833843D01*
X10254155Y4833120D01*
X10255431Y4832867D01*
X10256708Y4833120D01*
X10257789Y4833843D01*
X10258512Y4834925D01*
X10258766Y4836201D01*
X10258512Y4837477D01*
X10257789Y4838558D01*
X10256708Y4839281D01*
X10255431Y4839535D01*
D02*
G37*
G36*
X10211888D02*
X10210613Y4839281D01*
X10209531Y4838558D01*
X10208809Y4837477D01*
X10208555Y4836201D01*
X10208809Y4834925D01*
X10209531Y4833843D01*
X10210613Y4833120D01*
X10211888Y4832867D01*
X10213165Y4833120D01*
X10214246Y4833843D01*
X10214969Y4834925D01*
X10215223Y4836201D01*
X10214969Y4837477D01*
X10214246Y4838558D01*
X10213165Y4839281D01*
X10211888Y4839535D01*
D02*
G37*
G36*
X10298678Y4618790D02*
X10297402Y4618536D01*
X10296321Y4617813D01*
X10295598Y4616732D01*
X10295344Y4615456D01*
X10295598Y4614180D01*
X10296321Y4613098D01*
X10297402Y4612375D01*
X10298678Y4612122D01*
X10299955Y4612375D01*
X10301036Y4613098D01*
X10301759Y4614180D01*
X10302013Y4615456D01*
X10301759Y4616732D01*
X10301036Y4617813D01*
X10299955Y4618536D01*
X10298678Y4618790D01*
D02*
G37*
G36*
X10155770Y4603334D02*
X10154495Y4603080D01*
X10153413Y4602357D01*
X10152690Y4601276D01*
X10152437Y4600000D01*
X10152690Y4598724D01*
X10153413Y4597643D01*
X10154495Y4596920D01*
X10155770Y4596666D01*
X10157047Y4596920D01*
X10158128Y4597643D01*
X10158851Y4598724D01*
X10159105Y4600000D01*
X10158851Y4601276D01*
X10158128Y4602357D01*
X10157047Y4603080D01*
X10155770Y4603334D01*
D02*
G37*
G36*
X10212500Y4603604D02*
X10211224Y4603351D01*
X10210143Y4602628D01*
X10209420Y4601546D01*
X10209166Y4600270D01*
X10209420Y4598994D01*
X10210143Y4597913D01*
X10211224Y4597190D01*
X10212500Y4596936D01*
X10213776Y4597190D01*
X10214858Y4597913D01*
X10215580Y4598994D01*
X10215834Y4600270D01*
X10215580Y4601546D01*
X10214858Y4602628D01*
X10213776Y4603351D01*
X10212500Y4603604D01*
D02*
G37*
G36*
X10279730Y4615834D02*
X10278455Y4615580D01*
X10277373Y4614857D01*
X10276650Y4613776D01*
X10276396Y4612500D01*
X10276650Y4611224D01*
X10277373Y4610142D01*
X10278455Y4609420D01*
X10279730Y4609166D01*
X10281006Y4609420D01*
X10282087Y4610142D01*
X10282810Y4611224D01*
X10283064Y4612500D01*
X10282810Y4613776D01*
X10282087Y4614857D01*
X10281006Y4615580D01*
X10279730Y4615834D01*
D02*
G37*
G36*
X10307421Y4619104D02*
X10306144Y4618851D01*
X10305062Y4618128D01*
X10304340Y4617046D01*
X10304086Y4615770D01*
X10304340Y4614494D01*
X10305062Y4613413D01*
X10306144Y4612690D01*
X10307421Y4612436D01*
X10308696Y4612690D01*
X10309778Y4613413D01*
X10310500Y4614494D01*
X10310754Y4615770D01*
X10310500Y4617046D01*
X10309778Y4618128D01*
X10308696Y4618851D01*
X10307421Y4619104D01*
D02*
G37*
G36*
X10238661Y4819765D02*
X10237385Y4819511D01*
X10236304Y4818788D01*
X10235581Y4817707D01*
X10235327Y4816431D01*
X10235581Y4815155D01*
X10236304Y4814073D01*
X10237385Y4813351D01*
X10238661Y4813097D01*
X10239937Y4813351D01*
X10241019Y4814073D01*
X10241742Y4815155D01*
X10241996Y4816431D01*
X10241742Y4817707D01*
X10241019Y4818788D01*
X10239937Y4819511D01*
X10238661Y4819765D01*
D02*
G37*
G36*
X10133729Y4653654D02*
X10132453Y4653400D01*
X10131371Y4652677D01*
X10130649Y4651596D01*
X10130395Y4650320D01*
X10130649Y4649044D01*
X10131371Y4647962D01*
X10132453Y4647240D01*
X10133729Y4646986D01*
X10135005Y4647240D01*
X10136086Y4647962D01*
X10136809Y4649044D01*
X10137063Y4650320D01*
X10136809Y4651596D01*
X10136086Y4652677D01*
X10135005Y4653400D01*
X10133729Y4653654D01*
D02*
G37*
G36*
Y4633334D02*
X10132453Y4633080D01*
X10131371Y4632357D01*
X10130649Y4631276D01*
X10130395Y4630000D01*
X10130649Y4628724D01*
X10131371Y4627643D01*
X10132453Y4626920D01*
X10133729Y4626666D01*
X10135005Y4626920D01*
X10136086Y4627643D01*
X10136809Y4628724D01*
X10137063Y4630000D01*
X10136809Y4631276D01*
X10136086Y4632357D01*
X10135005Y4633080D01*
X10133729Y4633334D01*
D02*
G37*
G36*
X10228658Y4819765D02*
X10227383Y4819511D01*
X10226301Y4818788D01*
X10225579Y4817707D01*
X10225325Y4816431D01*
X10225579Y4815155D01*
X10226301Y4814073D01*
X10227383Y4813351D01*
X10228658Y4813097D01*
X10229935Y4813351D01*
X10231016Y4814073D01*
X10231739Y4815155D01*
X10231993Y4816431D01*
X10231739Y4817707D01*
X10231016Y4818788D01*
X10229935Y4819511D01*
X10228658Y4819765D01*
D02*
G37*
G36*
X10177000Y3985000D02*
X10128000D01*
Y3935000D01*
X10141000D01*
Y3972000D01*
X10146000D01*
Y3935000D01*
X10159000D01*
Y3972000D01*
X10164000D01*
Y3935000D01*
X10177000D01*
Y3985000D01*
D02*
G37*
%LPD*%
G36*
X10172000Y3940000D02*
X10169000D01*
Y3977000D01*
X10154000D01*
Y3940000D01*
X10151000D01*
Y3977000D01*
X10136000D01*
Y3940000D01*
X10133000D01*
Y3980000D01*
X10172000D01*
Y3940000D01*
D02*
G37*
%LPC*%
G36*
X10334500Y3985000D02*
X10285500D01*
Y3935000D01*
X10298500D01*
Y3972000D01*
X10303500D01*
Y3935000D01*
X10316500D01*
Y3972000D01*
X10321500D01*
Y3935000D01*
X10334500D01*
Y3985000D01*
D02*
G37*
%LPD*%
G36*
X10329500Y3940000D02*
X10326500D01*
Y3977000D01*
X10311500D01*
Y3940000D01*
X10308500D01*
Y3977000D01*
X10293500D01*
Y3940000D01*
X10290500D01*
Y3980000D01*
X10329500D01*
Y3940000D01*
D02*
G37*
D35*
X10156952Y4243832D02*
X10183876Y4270756D01*
X10299700Y4549140D02*
Y4551680D01*
X10124450Y4503430D02*
X10132060D01*
X10214610Y4861052D02*
X10233660D01*
X10124450Y4503430D02*
Y4511040D01*
X10152500Y4470480D02*
X10192500D01*
X10124450Y4785850D02*
X10130000Y4791400D01*
X10124450Y4511040D02*
Y4785850D01*
Y4511040D02*
X10132060Y4503430D01*
X10228580D01*
X10214610Y4861052D02*
X10220960Y4867402D01*
X10174252Y4861052D02*
X10214610D01*
X10161270Y3579368D02*
X10242042D01*
X10246001Y3575409D01*
X10180320Y4682500D02*
X10299700Y4551680D01*
X10152500Y4350480D02*
X10197500Y4395480D01*
Y4446778D01*
X10205466Y4979416D02*
X10212832Y4972050D01*
X10197926Y4979416D02*
X10205466D01*
X10271084Y4748784D02*
X10275000Y4752700D01*
X10266680Y4748784D02*
X10271084D01*
X10256266Y4738370D02*
X10266680Y4748784D01*
X10256266Y4699000D02*
Y4738370D01*
X10251187Y4693920D02*
X10256266Y4699000D01*
X10222500Y4693920D02*
X10251187D01*
X10130000Y4816800D02*
X10174252Y4861052D01*
X10237227Y4867402D02*
X10243660Y4860969D01*
X10220960Y4867402D02*
X10237227D01*
X10280042Y4760359D02*
X10287700Y4752700D01*
X10268350Y4760359D02*
X10280042D01*
X10251440Y4743450D02*
X10268350Y4760359D01*
X10251440Y4726253D02*
Y4743450D01*
X10246360Y4721173D02*
X10251440Y4726253D01*
X10227500Y4721173D02*
X10246360D01*
X10315093Y4763407D02*
X10325800Y4752700D01*
X10259459Y4763407D02*
X10315093D01*
X10252500Y4756448D02*
X10259459Y4763407D01*
X10231658Y4705604D02*
X10237470Y4699792D01*
X10175000Y4705604D02*
X10231658D01*
X10330000Y5013706D02*
Y5020000D01*
X10181534Y5013706D02*
X10330000D01*
X10175240Y5020000D02*
X10181534Y5013706D01*
X10130000Y5020000D02*
X10175240D01*
X10130000Y4994600D02*
X10135390Y4999990D01*
X10324611D01*
X10330000Y4994600D01*
X10268005Y4969200D02*
X10330000D01*
X10266680Y4970526D02*
X10268005Y4969200D01*
X10224516Y4970526D02*
X10266680D01*
X10217150Y4963160D02*
X10224516Y4970526D01*
X10136040Y4963160D02*
X10217150D01*
X10130000Y4969200D02*
X10136040Y4963160D01*
X10130000Y4943800D02*
X10156698D01*
X10160706Y4939792D01*
X10302494D01*
X10306503Y4943800D01*
X10330000D01*
X10152500Y3990480D02*
X10310000D01*
X10152500Y4110480D02*
X10310000D01*
X10152500Y4230480D02*
X10310000D01*
X10152500Y4350480D02*
X10310000D01*
X10192500Y4470480D02*
X10310000D01*
X10212750Y5041250D02*
X10257250D01*
D40*
X10152500Y4455240D02*
D03*
Y4470480D02*
D03*
Y4350480D02*
D03*
Y4335240D02*
D03*
Y4215240D02*
D03*
Y4230480D02*
D03*
Y4110480D02*
D03*
Y4095240D02*
D03*
Y3975240D02*
D03*
Y3990480D02*
D03*
X10310000Y4470480D02*
D03*
Y4455240D02*
D03*
Y4335240D02*
D03*
Y4350480D02*
D03*
Y4230480D02*
D03*
Y4215240D02*
D03*
Y4095240D02*
D03*
Y4110480D02*
D03*
Y3990480D02*
D03*
Y3975240D02*
D03*
X10149840Y4528820D02*
D03*
X10139680D02*
D03*
X10132060Y4686300D02*
D03*
D41*
X10325800Y4752700D02*
D03*
X10313101D02*
D03*
X10300400D02*
D03*
X10287700D02*
D03*
X10275000D02*
D03*
X10325800Y4740000D02*
D03*
X10313101D02*
D03*
X10300400D02*
D03*
X10287700D02*
D03*
D42*
X10275000D02*
D03*
D43*
X10257250Y5041250D02*
D03*
X10212750D02*
D03*
D44*
X10198500Y5072500D02*
D03*
X10271500D02*
D03*
D45*
X10228580Y3774430D02*
D03*
Y4503430D02*
D03*
D46*
Y3860880D02*
D03*
D47*
Y4416980D02*
D03*
D48*
X10330000Y5020000D02*
D03*
X10130000D02*
D03*
D49*
X10330000Y4994600D02*
D03*
Y4969200D02*
D03*
Y4943800D02*
D03*
Y4918400D02*
D03*
Y4893000D02*
D03*
Y4867600D02*
D03*
Y4842200D02*
D03*
Y4816800D02*
D03*
Y4791400D02*
D03*
X10130000Y4994600D02*
D03*
Y4969200D02*
D03*
Y4943800D02*
D03*
Y4918400D02*
D03*
Y4893000D02*
D03*
Y4867600D02*
D03*
Y4842200D02*
D03*
Y4816800D02*
D03*
Y4791400D02*
D03*
D50*
X10183876Y4270756D02*
D03*
X10307421Y4615770D02*
D03*
X10299700Y4549140D02*
D03*
X10156952Y4243832D02*
D03*
X10220960Y4867402D02*
D03*
X10161270Y3579368D02*
D03*
X10246001Y3575409D02*
D03*
X10180320Y4682500D02*
D03*
X10197500Y4446778D02*
D03*
X10212832Y4972050D02*
D03*
X10197926Y4979416D02*
D03*
X10222500Y4693920D02*
D03*
X10220079Y3605370D02*
D03*
X10192500Y4470480D02*
D03*
X10222780Y3628729D02*
D03*
X10275321Y4684544D02*
D03*
X10233660Y4861052D02*
D03*
X10243660Y4860969D02*
D03*
X10227500Y4721173D02*
D03*
X10237580Y4714270D02*
D03*
X10245040D02*
D03*
X10252500Y4756448D02*
D03*
X10237470Y4699792D02*
D03*
X10175000Y4705604D02*
D03*
X10165469Y3601560D02*
D03*
X10184520D02*
D03*
X10224000Y3568269D02*
D03*
X10205000Y3628729D02*
D03*
X10239130Y3602830D02*
D03*
X10258180D02*
D03*
X10129229Y4600000D02*
D03*
X10133729Y4630000D02*
D03*
X10165730Y4652500D02*
D03*
X10212500Y4600270D02*
D03*
X10298678Y4615456D02*
D03*
X10294270Y4687500D02*
D03*
X10228658Y4816431D02*
D03*
X10258051Y4797820D02*
D03*
X10188329Y4894420D02*
D03*
X10312500Y4685771D02*
D03*
X10279539Y4974590D02*
D03*
X10202000Y3568269D02*
D03*
X10155770Y4600000D02*
D03*
X10133729Y4650320D02*
D03*
X10180270Y4657500D02*
D03*
X10154680Y4738771D02*
D03*
X10217500Y4585730D02*
D03*
X10279730Y4612500D02*
D03*
X10203070Y4778900D02*
D03*
X10243270Y4737500D02*
D03*
X10312500Y4589229D02*
D03*
X10168010Y4894420D02*
D03*
X10258051Y4767820D02*
D03*
X10211888Y4836201D02*
D03*
X10238661Y4816431D02*
D03*
X10312500Y4659230D02*
D03*
X10255431Y4836201D02*
D03*
X10220960Y4906480D02*
D03*
X10191750Y4956970D02*
D03*
X10222770Y4930140D02*
D03*
X10231509Y4896960D02*
D03*
X10190480Y5022151D02*
D03*
X10222230Y4944650D02*
D03*
X10201910Y5020150D02*
D03*
X10253979Y4966240D02*
D03*
X10222000Y5054520D02*
D03*
X10279539Y4954270D02*
D03*
M02*
