M48
;Layer_Color=9474304
;FILE_FORMAT=4:4
METRIC,LZ
;TYPE=PLATED
T1F00S00C0.2794
T2F00S00C0.3000
T4F00S00C0.7500
T6F00S00C1.1430
T8F00S00C3.3000
%
T01
X1031Y0435048
Y0433524
Y0423048
Y0421524
Y0411048
Y0409524
Y0399048
Y0397524
X101525
Y0399048
Y0409524
Y0411048
Y0421524
Y0423048
Y0433524
Y0435048
Y0445524
Y0447048
X1014984Y0452882
X1013968
X1013206Y046863
X1031Y0447048
Y0445524
T02
X10224Y03568269
X10202
X1018452Y0360156
X10165469
X1016127Y03579368
X10220079Y0360537
X1023913Y0360283
X1025818
X10246001Y03575409
X1022278Y03628729
X10205
X10183876Y04270756
X10156952Y04243832
X101975Y04446778
X101925Y0447048
X102175Y0458573
X102125Y0460027
X1015577Y046
X10129229
X10133729Y0463
Y0465032
X1016573Y046525
X1018027Y046575
X1018032Y046825
X10175Y04705604
X1015468Y04738771
X1024327Y047375
X1024504Y0471427
X1023758
X1023747Y04699792
X102225Y0469392
X102275Y04721173
X102525Y04756448
X10275321Y04684544
X1029427Y046875
X103125Y04685771
Y0465923
X10307421Y0461577
X10298678Y04615456
X1027973Y046125
X103125Y04589229
X102997Y0454914
X10258051Y0476782
Y0479782
X10238661Y04816431
X10228658
X10211888Y04836201
X1022096Y04867402
X1023366Y04861052
X1024366Y04860969
X10255431Y04836201
X10231509Y0489696
X1022096Y0490648
X1022277Y0493014
X1022223Y0494465
X10212832Y0497205
X10197926Y04979416
X1019175Y0495697
X10188329Y0489442
X1016801
X1019048Y05022151
X1020191Y0502015
X10222Y0505452
X10253979Y0496624
X10279539Y0497459
Y0495427
X1020307Y047789
T04
X103258Y047527
Y0474
X10313101
Y047527
X103004
X102877
X10275
Y0474
X102877
X103004
T06
X1013Y0502
Y049946
Y049692
Y049438
Y049184
Y04893
Y048676
Y048422
Y048168
Y047914
X1033
Y048168
Y048422
Y048676
Y04893
Y049184
Y049438
Y049692
Y049946
Y0502
T08
X1022858Y0386088
Y0441698
M30
