G04 Layer_Color=65535*
%FSLAX44Y44*%
%MOMM*%
G71*
G01*
G75*
%ADD20C,0.1000*%
%ADD21C,0.2000*%
%ADD22C,0.2540*%
%ADD23C,0.1270*%
D20*
X10260988Y3439600D02*
G03*
X10260988Y3439600I-1778J0D01*
G01*
Y3494600D02*
G03*
X10260988Y3494600I-1778J0D01*
G01*
Y3549600D02*
G03*
X10260988Y3549600I-1778J0D01*
G01*
Y3604600D02*
G03*
X10260988Y3604600I-1778J0D01*
G01*
Y3659600D02*
G03*
X10260988Y3659600I-1778J0D01*
G01*
Y3714600D02*
G03*
X10260988Y3714600I-1778J0D01*
G01*
Y3769600D02*
G03*
X10260988Y3769600I-1778J0D01*
G01*
Y3824600D02*
G03*
X10260988Y3824600I-1778J0D01*
G01*
Y3879600D02*
G03*
X10260988Y3879600I-1778J0D01*
G01*
Y3934600D02*
G03*
X10260988Y3934600I-1778J0D01*
G01*
Y3989600D02*
G03*
X10260988Y3989600I-1778J0D01*
G01*
Y4044600D02*
G03*
X10260988Y4044600I-1778J0D01*
G01*
Y4099600D02*
G03*
X10260988Y4099600I-1778J0D01*
G01*
Y4154600D02*
G03*
X10260988Y4154600I-1778J0D01*
G01*
Y4209600D02*
G03*
X10260988Y4209600I-1778J0D01*
G01*
Y4264600D02*
G03*
X10260988Y4264600I-1778J0D01*
G01*
Y4319600D02*
G03*
X10260988Y4319600I-1778J0D01*
G01*
Y4374600D02*
G03*
X10260988Y4374600I-1778J0D01*
G01*
Y4429600D02*
G03*
X10260988Y4429600I-1778J0D01*
G01*
Y4484600D02*
G03*
X10260988Y4484600I-1778J0D01*
G01*
Y4539600D02*
G03*
X10260988Y4539600I-1778J0D01*
G01*
Y4594600D02*
G03*
X10260988Y4594600I-1778J0D01*
G01*
Y4649600D02*
G03*
X10260988Y4649600I-1778J0D01*
G01*
Y4704600D02*
G03*
X10260988Y4704600I-1778J0D01*
G01*
Y4759600D02*
G03*
X10260988Y4759600I-1778J0D01*
G01*
Y4814600D02*
G03*
X10260988Y4814600I-1778J0D01*
G01*
Y4869600D02*
G03*
X10260988Y4869600I-1778J0D01*
G01*
Y4924600D02*
G03*
X10260988Y4924600I-1778J0D01*
G01*
Y4979600D02*
G03*
X10260988Y4979600I-1778J0D01*
G01*
Y5034600D02*
G03*
X10260988Y5034600I-1778J0D01*
G01*
D21*
X10255400Y3439600D02*
Y3442100D01*
Y3487900D02*
Y3490400D01*
X10204600Y3439600D02*
Y3442100D01*
Y3487900D02*
Y3490400D01*
X10255400Y3494600D02*
Y3497100D01*
Y3542900D02*
Y3545400D01*
X10204600Y3494600D02*
Y3497100D01*
Y3542900D02*
Y3545400D01*
X10255400Y3549600D02*
Y3552100D01*
Y3597900D02*
Y3600400D01*
X10204600Y3549600D02*
Y3552100D01*
Y3597900D02*
Y3600400D01*
X10255400Y3604600D02*
Y3607100D01*
Y3652900D02*
Y3655400D01*
X10204600Y3604600D02*
Y3607100D01*
Y3652900D02*
Y3655400D01*
X10255400Y3659600D02*
Y3662100D01*
Y3707900D02*
Y3710400D01*
X10204600Y3659600D02*
Y3662100D01*
Y3707900D02*
Y3710400D01*
X10255400Y3714600D02*
Y3717100D01*
Y3762900D02*
Y3765400D01*
X10204600Y3714600D02*
Y3717100D01*
Y3762900D02*
Y3765400D01*
X10255400Y3769600D02*
Y3772100D01*
Y3817900D02*
Y3820400D01*
X10204600Y3769600D02*
Y3772100D01*
Y3817900D02*
Y3820400D01*
X10255400Y3824600D02*
Y3827100D01*
Y3872900D02*
Y3875400D01*
X10204600Y3824600D02*
Y3827100D01*
Y3872900D02*
Y3875400D01*
X10255400Y3879600D02*
Y3882100D01*
Y3927900D02*
Y3930400D01*
X10204600Y3879600D02*
Y3882100D01*
Y3927900D02*
Y3930400D01*
X10255400Y3934600D02*
Y3937100D01*
Y3982900D02*
Y3985400D01*
X10204600Y3934600D02*
Y3937100D01*
Y3982900D02*
Y3985400D01*
X10255400Y3989600D02*
Y3992100D01*
Y4037900D02*
Y4040400D01*
X10204600Y3989600D02*
Y3992100D01*
Y4037900D02*
Y4040400D01*
X10255400Y4044600D02*
Y4047100D01*
Y4092900D02*
Y4095400D01*
X10204600Y4044600D02*
Y4047100D01*
Y4092900D02*
Y4095400D01*
X10255400Y4099600D02*
Y4102100D01*
Y4147900D02*
Y4150400D01*
X10204600Y4099600D02*
Y4102100D01*
Y4147900D02*
Y4150400D01*
X10255400Y4154600D02*
Y4157100D01*
Y4202900D02*
Y4205400D01*
X10204600Y4154600D02*
Y4157100D01*
Y4202900D02*
Y4205400D01*
X10255400Y4209600D02*
Y4212100D01*
Y4257900D02*
Y4260400D01*
X10204600Y4209600D02*
Y4212100D01*
Y4257900D02*
Y4260400D01*
X10255400Y4264600D02*
Y4267100D01*
Y4312900D02*
Y4315400D01*
X10204600Y4264600D02*
Y4267100D01*
Y4312900D02*
Y4315400D01*
X10255400Y4319600D02*
Y4322100D01*
Y4367900D02*
Y4370400D01*
X10204600Y4319600D02*
Y4322100D01*
Y4367900D02*
Y4370400D01*
X10255400Y4374600D02*
Y4377100D01*
Y4422900D02*
Y4425400D01*
X10204600Y4374600D02*
Y4377100D01*
Y4422900D02*
Y4425400D01*
X10255400Y4429600D02*
Y4432100D01*
Y4477900D02*
Y4480400D01*
X10204600Y4429600D02*
Y4432100D01*
Y4477900D02*
Y4480400D01*
X10255400Y4484600D02*
Y4487100D01*
Y4532900D02*
Y4535400D01*
X10204600Y4484600D02*
Y4487100D01*
Y4532900D02*
Y4535400D01*
X10255400Y4539600D02*
Y4542100D01*
Y4587900D02*
Y4590400D01*
X10204600Y4539600D02*
Y4542100D01*
Y4587900D02*
Y4590400D01*
X10255400Y4594600D02*
Y4597100D01*
Y4642900D02*
Y4645400D01*
X10204600Y4594600D02*
Y4597100D01*
Y4642900D02*
Y4645400D01*
X10255400Y4649600D02*
Y4652100D01*
Y4697900D02*
Y4700400D01*
X10204600Y4649600D02*
Y4652100D01*
Y4697900D02*
Y4700400D01*
X10255400Y4704600D02*
Y4707100D01*
Y4752900D02*
Y4755400D01*
X10204600Y4704600D02*
Y4707100D01*
Y4752900D02*
Y4755400D01*
X10255400Y4759600D02*
Y4762100D01*
Y4807900D02*
Y4810400D01*
X10204600Y4759600D02*
Y4762100D01*
Y4807900D02*
Y4810400D01*
X10255400Y4814600D02*
Y4817100D01*
Y4862900D02*
Y4865400D01*
X10204600Y4814600D02*
Y4817100D01*
Y4862900D02*
Y4865400D01*
X10255400Y4869600D02*
Y4872100D01*
Y4917900D02*
Y4920400D01*
X10204600Y4869600D02*
Y4872100D01*
Y4917900D02*
Y4920400D01*
X10255400Y4924600D02*
Y4927100D01*
Y4972900D02*
Y4975400D01*
X10204600Y4924600D02*
Y4927100D01*
Y4972900D02*
Y4975400D01*
X10255400Y4979600D02*
Y4982100D01*
Y5027900D02*
Y5030400D01*
X10204600Y4979600D02*
Y4982100D01*
Y5027900D02*
Y5030400D01*
X10255400Y5034600D02*
Y5037100D01*
Y5082900D02*
Y5085400D01*
X10204600Y5034600D02*
Y5037100D01*
Y5082900D02*
Y5085400D01*
D22*
X10185000Y5082617D02*
Y5075000D01*
X10188809D01*
X10190078Y5076270D01*
Y5081348D01*
X10188809Y5082617D01*
X10185000D01*
X10192618Y5075000D02*
X10195157D01*
X10193887D01*
Y5082617D01*
X10192618Y5081348D01*
X10185000Y5027617D02*
Y5020000D01*
X10188809D01*
X10190078Y5021270D01*
Y5026348D01*
X10188809Y5027617D01*
X10185000D01*
X10197696Y5020000D02*
X10192618D01*
X10197696Y5025078D01*
Y5026348D01*
X10196426Y5027617D01*
X10193887D01*
X10192618Y5026348D01*
X10185000Y4972617D02*
Y4965000D01*
X10188809D01*
X10190078Y4966270D01*
Y4971348D01*
X10188809Y4972617D01*
X10185000D01*
X10192618Y4971348D02*
X10193887Y4972617D01*
X10196426D01*
X10197696Y4971348D01*
Y4970078D01*
X10196426Y4968809D01*
X10195157D01*
X10196426D01*
X10197696Y4967539D01*
Y4966270D01*
X10196426Y4965000D01*
X10193887D01*
X10192618Y4966270D01*
X10185000Y4917617D02*
Y4910000D01*
X10188809D01*
X10190078Y4911270D01*
Y4916348D01*
X10188809Y4917617D01*
X10185000D01*
X10196426Y4910000D02*
Y4917617D01*
X10192618Y4913809D01*
X10197696D01*
X10185000Y4867617D02*
Y4860000D01*
X10188809D01*
X10190078Y4861270D01*
Y4866348D01*
X10188809Y4867617D01*
X10185000D01*
X10197696D02*
X10192618D01*
Y4863809D01*
X10195157Y4865078D01*
X10196426D01*
X10197696Y4863809D01*
Y4861270D01*
X10196426Y4860000D01*
X10193887D01*
X10192618Y4861270D01*
X10185000Y4807617D02*
Y4800000D01*
X10188809D01*
X10190078Y4801270D01*
Y4806348D01*
X10188809Y4807617D01*
X10185000D01*
X10197696D02*
X10195157Y4806348D01*
X10192618Y4803809D01*
Y4801270D01*
X10193887Y4800000D01*
X10196426D01*
X10197696Y4801270D01*
Y4802539D01*
X10196426Y4803809D01*
X10192618D01*
X10185000Y4752617D02*
Y4745000D01*
X10188809D01*
X10190078Y4746270D01*
Y4751348D01*
X10188809Y4752617D01*
X10185000D01*
X10192618D02*
X10197696D01*
Y4751348D01*
X10192618Y4746270D01*
Y4745000D01*
X10185000Y4697617D02*
Y4690000D01*
X10188809D01*
X10190078Y4691270D01*
Y4696348D01*
X10188809Y4697617D01*
X10185000D01*
X10192618Y4696348D02*
X10193887Y4697617D01*
X10196426D01*
X10197696Y4696348D01*
Y4695078D01*
X10196426Y4693809D01*
X10197696Y4692539D01*
Y4691270D01*
X10196426Y4690000D01*
X10193887D01*
X10192618Y4691270D01*
Y4692539D01*
X10193887Y4693809D01*
X10192618Y4695078D01*
Y4696348D01*
X10193887Y4693809D02*
X10196426D01*
X10185000Y4642617D02*
Y4635000D01*
X10188809D01*
X10190078Y4636270D01*
Y4641348D01*
X10188809Y4642617D01*
X10185000D01*
X10192618Y4636270D02*
X10193887Y4635000D01*
X10196426D01*
X10197696Y4636270D01*
Y4641348D01*
X10196426Y4642617D01*
X10193887D01*
X10192618Y4641348D01*
Y4640078D01*
X10193887Y4638809D01*
X10197696D01*
X10175000Y4587617D02*
Y4580000D01*
X10178809D01*
X10180078Y4581270D01*
Y4586348D01*
X10178809Y4587617D01*
X10175000D01*
X10182618Y4580000D02*
X10185157D01*
X10183887D01*
Y4587617D01*
X10182618Y4586348D01*
X10188965D02*
X10190235Y4587617D01*
X10192774D01*
X10194044Y4586348D01*
Y4581270D01*
X10192774Y4580000D01*
X10190235D01*
X10188965Y4581270D01*
Y4586348D01*
X10180000Y4532617D02*
Y4525000D01*
X10183809D01*
X10185078Y4526270D01*
Y4531348D01*
X10183809Y4532617D01*
X10180000D01*
X10187618Y4525000D02*
X10190157D01*
X10188887D01*
Y4532617D01*
X10187618Y4531348D01*
X10193965Y4525000D02*
X10196505D01*
X10195235D01*
Y4532617D01*
X10193965Y4531348D01*
X10175000Y4477617D02*
Y4470000D01*
X10178809D01*
X10180078Y4471270D01*
Y4476348D01*
X10178809Y4477617D01*
X10175000D01*
X10182618Y4470000D02*
X10185157D01*
X10183887D01*
Y4477617D01*
X10182618Y4476348D01*
X10194044Y4470000D02*
X10188965D01*
X10194044Y4475078D01*
Y4476348D01*
X10192774Y4477617D01*
X10190235D01*
X10188965Y4476348D01*
X10175000Y4422617D02*
Y4415000D01*
X10178809D01*
X10180078Y4416270D01*
Y4421348D01*
X10178809Y4422617D01*
X10175000D01*
X10182618Y4415000D02*
X10185157D01*
X10183887D01*
Y4422617D01*
X10182618Y4421348D01*
X10188965D02*
X10190235Y4422617D01*
X10192774D01*
X10194044Y4421348D01*
Y4420078D01*
X10192774Y4418809D01*
X10191505D01*
X10192774D01*
X10194044Y4417539D01*
Y4416270D01*
X10192774Y4415000D01*
X10190235D01*
X10188965Y4416270D01*
X10175000Y4367617D02*
Y4360000D01*
X10178809D01*
X10180078Y4361270D01*
Y4366348D01*
X10178809Y4367617D01*
X10175000D01*
X10182618Y4360000D02*
X10185157D01*
X10183887D01*
Y4367617D01*
X10182618Y4366348D01*
X10192774Y4360000D02*
Y4367617D01*
X10188965Y4363809D01*
X10194044D01*
X10175000Y4312617D02*
Y4305000D01*
X10178809D01*
X10180078Y4306270D01*
Y4311348D01*
X10178809Y4312617D01*
X10175000D01*
X10182618Y4305000D02*
X10185157D01*
X10183887D01*
Y4312617D01*
X10182618Y4311348D01*
X10194044Y4312617D02*
X10188965D01*
Y4308809D01*
X10191505Y4310078D01*
X10192774D01*
X10194044Y4308809D01*
Y4306270D01*
X10192774Y4305000D01*
X10190235D01*
X10188965Y4306270D01*
X10175000Y4257617D02*
Y4250000D01*
X10178809D01*
X10180078Y4251270D01*
Y4256348D01*
X10178809Y4257617D01*
X10175000D01*
X10182618Y4250000D02*
X10185157D01*
X10183887D01*
Y4257617D01*
X10182618Y4256348D01*
X10194044Y4257617D02*
X10191505Y4256348D01*
X10188965Y4253809D01*
Y4251270D01*
X10190235Y4250000D01*
X10192774D01*
X10194044Y4251270D01*
Y4252539D01*
X10192774Y4253809D01*
X10188965D01*
X10175000Y4202617D02*
Y4195000D01*
X10178809D01*
X10180078Y4196270D01*
Y4201348D01*
X10178809Y4202617D01*
X10175000D01*
X10182618Y4195000D02*
X10185157D01*
X10183887D01*
Y4202617D01*
X10182618Y4201348D01*
X10188965Y4202617D02*
X10194044D01*
Y4201348D01*
X10188965Y4196270D01*
Y4195000D01*
X10175000Y4147617D02*
Y4140000D01*
X10178809D01*
X10180078Y4141270D01*
Y4146348D01*
X10178809Y4147617D01*
X10175000D01*
X10182618Y4140000D02*
X10185157D01*
X10183887D01*
Y4147617D01*
X10182618Y4146348D01*
X10188965D02*
X10190235Y4147617D01*
X10192774D01*
X10194044Y4146348D01*
Y4145078D01*
X10192774Y4143809D01*
X10194044Y4142539D01*
Y4141270D01*
X10192774Y4140000D01*
X10190235D01*
X10188965Y4141270D01*
Y4142539D01*
X10190235Y4143809D01*
X10188965Y4145078D01*
Y4146348D01*
X10190235Y4143809D02*
X10192774D01*
X10175000Y4092617D02*
Y4085000D01*
X10178809D01*
X10180078Y4086270D01*
Y4091348D01*
X10178809Y4092617D01*
X10175000D01*
X10182618Y4085000D02*
X10185157D01*
X10183887D01*
Y4092617D01*
X10182618Y4091348D01*
X10188965Y4086270D02*
X10190235Y4085000D01*
X10192774D01*
X10194044Y4086270D01*
Y4091348D01*
X10192774Y4092617D01*
X10190235D01*
X10188965Y4091348D01*
Y4090078D01*
X10190235Y4088809D01*
X10194044D01*
X10175000Y4037617D02*
Y4030000D01*
X10178809D01*
X10180078Y4031270D01*
Y4036348D01*
X10178809Y4037617D01*
X10175000D01*
X10187696Y4030000D02*
X10182618D01*
X10187696Y4035078D01*
Y4036348D01*
X10186426Y4037617D01*
X10183887D01*
X10182618Y4036348D01*
X10190235D02*
X10191505Y4037617D01*
X10194044D01*
X10195313Y4036348D01*
Y4031270D01*
X10194044Y4030000D01*
X10191505D01*
X10190235Y4031270D01*
Y4036348D01*
X10175000Y3982617D02*
Y3975000D01*
X10178809D01*
X10180078Y3976270D01*
Y3981348D01*
X10178809Y3982617D01*
X10175000D01*
X10187696Y3975000D02*
X10182618D01*
X10187696Y3980078D01*
Y3981348D01*
X10186426Y3982617D01*
X10183887D01*
X10182618Y3981348D01*
X10190235Y3975000D02*
X10192774D01*
X10191505D01*
Y3982617D01*
X10190235Y3981348D01*
X10175000Y3927617D02*
Y3920000D01*
X10178809D01*
X10180078Y3921270D01*
Y3926348D01*
X10178809Y3927617D01*
X10175000D01*
X10187696Y3920000D02*
X10182618D01*
X10187696Y3925078D01*
Y3926348D01*
X10186426Y3927617D01*
X10183887D01*
X10182618Y3926348D01*
X10195313Y3920000D02*
X10190235D01*
X10195313Y3925078D01*
Y3926348D01*
X10194044Y3927617D01*
X10191505D01*
X10190235Y3926348D01*
X10175000Y3872617D02*
Y3865000D01*
X10178809D01*
X10180078Y3866270D01*
Y3871348D01*
X10178809Y3872617D01*
X10175000D01*
X10187696Y3865000D02*
X10182618D01*
X10187696Y3870078D01*
Y3871348D01*
X10186426Y3872617D01*
X10183887D01*
X10182618Y3871348D01*
X10190235D02*
X10191505Y3872617D01*
X10194044D01*
X10195313Y3871348D01*
Y3870078D01*
X10194044Y3868809D01*
X10192774D01*
X10194044D01*
X10195313Y3867539D01*
Y3866270D01*
X10194044Y3865000D01*
X10191505D01*
X10190235Y3866270D01*
X10175000Y3817617D02*
Y3810000D01*
X10178809D01*
X10180078Y3811270D01*
Y3816348D01*
X10178809Y3817617D01*
X10175000D01*
X10187696Y3810000D02*
X10182618D01*
X10187696Y3815078D01*
Y3816348D01*
X10186426Y3817617D01*
X10183887D01*
X10182618Y3816348D01*
X10194044Y3810000D02*
Y3817617D01*
X10190235Y3813809D01*
X10195313D01*
X10175000Y3762617D02*
Y3755000D01*
X10178809D01*
X10180078Y3756270D01*
Y3761348D01*
X10178809Y3762617D01*
X10175000D01*
X10187696Y3755000D02*
X10182618D01*
X10187696Y3760078D01*
Y3761348D01*
X10186426Y3762617D01*
X10183887D01*
X10182618Y3761348D01*
X10195313Y3762617D02*
X10190235D01*
Y3758809D01*
X10192774Y3760078D01*
X10194044D01*
X10195313Y3758809D01*
Y3756270D01*
X10194044Y3755000D01*
X10191505D01*
X10190235Y3756270D01*
X10175000Y3707617D02*
Y3700000D01*
X10178809D01*
X10180078Y3701270D01*
Y3706348D01*
X10178809Y3707617D01*
X10175000D01*
X10187696Y3700000D02*
X10182618D01*
X10187696Y3705078D01*
Y3706348D01*
X10186426Y3707617D01*
X10183887D01*
X10182618Y3706348D01*
X10195313Y3707617D02*
X10192774Y3706348D01*
X10190235Y3703809D01*
Y3701270D01*
X10191505Y3700000D01*
X10194044D01*
X10195313Y3701270D01*
Y3702539D01*
X10194044Y3703809D01*
X10190235D01*
X10175000Y3652617D02*
Y3645000D01*
X10178809D01*
X10180078Y3646270D01*
Y3651348D01*
X10178809Y3652617D01*
X10175000D01*
X10187696Y3645000D02*
X10182618D01*
X10187696Y3650078D01*
Y3651348D01*
X10186426Y3652617D01*
X10183887D01*
X10182618Y3651348D01*
X10190235Y3652617D02*
X10195313D01*
Y3651348D01*
X10190235Y3646270D01*
Y3645000D01*
X10170000Y3597617D02*
Y3590000D01*
X10173809D01*
X10175078Y3591270D01*
Y3596348D01*
X10173809Y3597617D01*
X10170000D01*
X10182696Y3590000D02*
X10177618D01*
X10182696Y3595078D01*
Y3596348D01*
X10181426Y3597617D01*
X10178887D01*
X10177618Y3596348D01*
X10185235D02*
X10186505Y3597617D01*
X10189044D01*
X10190313Y3596348D01*
Y3595078D01*
X10189044Y3593809D01*
X10190313Y3592539D01*
Y3591270D01*
X10189044Y3590000D01*
X10186505D01*
X10185235Y3591270D01*
Y3592539D01*
X10186505Y3593809D01*
X10185235Y3595078D01*
Y3596348D01*
X10186505Y3593809D02*
X10189044D01*
X10170000Y3542617D02*
Y3535000D01*
X10173809D01*
X10175078Y3536270D01*
Y3541348D01*
X10173809Y3542617D01*
X10170000D01*
X10182696Y3535000D02*
X10177618D01*
X10182696Y3540078D01*
Y3541348D01*
X10181426Y3542617D01*
X10178887D01*
X10177618Y3541348D01*
X10185235Y3536270D02*
X10186505Y3535000D01*
X10189044D01*
X10190313Y3536270D01*
Y3541348D01*
X10189044Y3542617D01*
X10186505D01*
X10185235Y3541348D01*
Y3540078D01*
X10186505Y3538809D01*
X10190313D01*
X10170000Y3487617D02*
Y3480000D01*
X10173809D01*
X10175078Y3481270D01*
Y3486348D01*
X10173809Y3487617D01*
X10170000D01*
X10177618Y3486348D02*
X10178887Y3487617D01*
X10181426D01*
X10182696Y3486348D01*
Y3485078D01*
X10181426Y3483809D01*
X10180157D01*
X10181426D01*
X10182696Y3482539D01*
Y3481270D01*
X10181426Y3480000D01*
X10178887D01*
X10177618Y3481270D01*
X10185235Y3486348D02*
X10186505Y3487617D01*
X10189044D01*
X10190313Y3486348D01*
Y3481270D01*
X10189044Y3480000D01*
X10186505D01*
X10185235Y3481270D01*
Y3486348D01*
D23*
X10190000Y3430078D02*
Y3425000D01*
X10193386D01*
X10195078D02*
X10196771D01*
X10195925D01*
Y3428386D01*
X10195078D01*
X10201003Y3423307D02*
X10201849D01*
X10202696Y3424154D01*
Y3428386D01*
X10200157D01*
X10199310Y3427539D01*
Y3425846D01*
X10200157Y3425000D01*
X10202696D01*
X10204388Y3430078D02*
Y3425000D01*
Y3427539D01*
X10205235Y3428386D01*
X10206928D01*
X10207774Y3427539D01*
Y3425000D01*
X10210313Y3429232D02*
Y3428386D01*
X10209467D01*
X10211160D01*
X10210313D01*
Y3425846D01*
X10211160Y3425000D01*
X10217084Y3429232D02*
X10216238Y3430078D01*
X10214545D01*
X10213699Y3429232D01*
Y3428386D01*
X10214545Y3427539D01*
X10216238D01*
X10217084Y3426693D01*
Y3425846D01*
X10216238Y3425000D01*
X10214545D01*
X10213699Y3425846D01*
X10218777Y3430078D02*
Y3425000D01*
Y3427539D01*
X10219623Y3428386D01*
X10221317D01*
X10222163Y3427539D01*
Y3425000D01*
X10224702D02*
X10226395D01*
X10227241Y3425846D01*
Y3427539D01*
X10226395Y3428386D01*
X10224702D01*
X10223856Y3427539D01*
Y3425846D01*
X10224702Y3425000D01*
X10228934Y3428386D02*
Y3425846D01*
X10229780Y3425000D01*
X10230627Y3425846D01*
X10231473Y3425000D01*
X10232319Y3425846D01*
Y3428386D01*
X10239091Y3430078D02*
Y3425000D01*
X10242477D01*
X10247555Y3430078D02*
X10244169D01*
Y3425000D01*
X10247555D01*
X10244169Y3427539D02*
X10245862D01*
X10249247Y3430078D02*
Y3425000D01*
X10251787D01*
X10252633Y3425846D01*
Y3429232D01*
X10251787Y3430078D01*
X10249247D01*
X10254326Y3429232D02*
X10255172Y3430078D01*
X10256865D01*
X10257711Y3429232D01*
Y3428386D01*
X10256865Y3427539D01*
X10256018D01*
X10256865D01*
X10257711Y3426693D01*
Y3425846D01*
X10256865Y3425000D01*
X10255172D01*
X10254326Y3425846D01*
X10259404Y3429232D02*
X10260250Y3430078D01*
X10261943D01*
X10262789Y3429232D01*
Y3425846D01*
X10261943Y3425000D01*
X10260250D01*
X10259404Y3425846D01*
Y3429232D01*
X10175000Y3415000D02*
Y3420078D01*
X10178386Y3415000D01*
Y3420078D01*
X10182618Y3415000D02*
X10180925D01*
X10180078Y3415846D01*
Y3417539D01*
X10180925Y3418386D01*
X10182618D01*
X10183464Y3417539D01*
Y3416693D01*
X10180078D01*
X10185157Y3418386D02*
Y3415846D01*
X10186003Y3415000D01*
X10188542D01*
Y3418386D01*
X10190235D02*
Y3415000D01*
Y3416693D01*
X10191082Y3417539D01*
X10191928Y3418386D01*
X10192774D01*
X10196160D02*
X10197853D01*
X10198699Y3417539D01*
Y3415000D01*
X10196160D01*
X10195313Y3415846D01*
X10196160Y3416693D01*
X10198699D01*
X10200392Y3415000D02*
X10202084D01*
X10201238D01*
Y3420078D01*
X10200392D01*
X10213088Y3419232D02*
X10212241Y3420078D01*
X10210549D01*
X10209702Y3419232D01*
Y3415846D01*
X10210549Y3415000D01*
X10212241D01*
X10213088Y3415846D01*
X10214780Y3415000D02*
X10216473D01*
X10215627D01*
Y3420078D01*
X10214780D01*
X10219859Y3415000D02*
X10221552D01*
X10222398Y3415846D01*
Y3417539D01*
X10221552Y3418386D01*
X10219859D01*
X10219012Y3417539D01*
Y3415846D01*
X10219859Y3415000D01*
X10224091Y3418386D02*
Y3415846D01*
X10224937Y3415000D01*
X10227476D01*
Y3418386D01*
X10232554Y3420078D02*
Y3415000D01*
X10230015D01*
X10229169Y3415846D01*
Y3417539D01*
X10230015Y3418386D01*
X10232554D01*
X10242711Y3419232D02*
X10241865Y3420078D01*
X10240172D01*
X10239326Y3419232D01*
Y3415846D01*
X10240172Y3415000D01*
X10241865D01*
X10242711Y3415846D01*
X10245250Y3415000D02*
X10246943D01*
X10247789Y3415846D01*
Y3417539D01*
X10246943Y3418386D01*
X10245250D01*
X10244404Y3417539D01*
Y3415846D01*
X10245250Y3415000D01*
X10249482D02*
Y3418386D01*
X10250328D01*
X10251176Y3417539D01*
Y3415000D01*
Y3417539D01*
X10252021Y3418386D01*
X10252867Y3417539D01*
Y3415000D01*
X10254561Y3413307D02*
Y3418386D01*
X10257100D01*
X10257947Y3417539D01*
Y3415846D01*
X10257100Y3415000D01*
X10254561D01*
X10259639Y3418386D02*
Y3415846D01*
X10260486Y3415000D01*
X10263025D01*
Y3418386D01*
X10265564Y3419232D02*
Y3418386D01*
X10264718D01*
X10266410D01*
X10265564D01*
Y3415846D01*
X10266410Y3415000D01*
X10268949D02*
X10270642D01*
X10269796D01*
Y3418386D01*
X10268949D01*
X10273181Y3415000D02*
Y3418386D01*
X10275720D01*
X10276567Y3417539D01*
Y3415000D01*
X10279952Y3413307D02*
X10280800D01*
X10281646Y3414154D01*
Y3418386D01*
X10279106D01*
X10278259Y3417539D01*
Y3415846D01*
X10279106Y3415000D01*
X10281646D01*
X10290000Y3460000D02*
Y3462539D01*
X10289154Y3463386D01*
X10288307Y3462539D01*
Y3460846D01*
X10287461Y3460000D01*
X10286615Y3460846D01*
Y3463386D01*
Y3465078D02*
X10289154D01*
X10290000Y3465925D01*
Y3468464D01*
X10286615D01*
X10291693Y3470157D02*
X10286615D01*
Y3472696D01*
X10287461Y3473542D01*
X10289154D01*
X10290000Y3472696D01*
Y3470157D01*
X10291693Y3475235D02*
X10286615D01*
Y3477774D01*
X10287461Y3478621D01*
X10289154D01*
X10290000Y3477774D01*
Y3475235D01*
Y3481160D02*
Y3482852D01*
X10289154Y3483699D01*
X10287461D01*
X10286615Y3482852D01*
Y3481160D01*
X10287461Y3480313D01*
X10289154D01*
X10290000Y3481160D01*
X10286615Y3485392D02*
X10290000D01*
X10288307D01*
X10287461Y3486238D01*
X10286615Y3487084D01*
Y3487931D01*
X10285768Y3491317D02*
X10286615D01*
Y3490470D01*
Y3492163D01*
Y3491317D01*
X10289154D01*
X10290000Y3492163D01*
X10288307Y3497241D02*
X10287461D01*
Y3496395D01*
X10288307D01*
Y3497241D01*
X10287461Y3498087D01*
X10285768D01*
X10284922Y3497241D01*
Y3495548D01*
X10285768Y3494702D01*
X10289154D01*
X10290000Y3495548D01*
Y3498087D01*
Y3499780D02*
X10286615D01*
Y3502320D01*
X10287461Y3503166D01*
X10290000D01*
Y3507398D02*
Y3505705D01*
X10289154Y3504859D01*
X10287461D01*
X10286615Y3505705D01*
Y3507398D01*
X10287461Y3508244D01*
X10288307D01*
Y3504859D01*
X10286615Y3509937D02*
X10289154D01*
X10290000Y3510783D01*
Y3513323D01*
X10286615D01*
Y3515015D02*
X10290000D01*
X10288307D01*
X10287461Y3515862D01*
X10286615Y3516708D01*
Y3517555D01*
Y3520940D02*
Y3522633D01*
X10287461Y3523479D01*
X10290000D01*
Y3520940D01*
X10289154Y3520094D01*
X10288307Y3520940D01*
Y3523479D01*
X10290000Y3525172D02*
Y3526865D01*
Y3526019D01*
X10284922D01*
Y3525172D01*
X10286615Y3532790D02*
Y3530251D01*
X10287461Y3529404D01*
X10289154D01*
X10290000Y3530251D01*
Y3532790D01*
Y3534482D02*
Y3536175D01*
Y3535329D01*
X10284922D01*
Y3534482D01*
X10290000Y3539561D02*
Y3541254D01*
X10289154Y3542100D01*
X10287461D01*
X10286615Y3541254D01*
Y3539561D01*
X10287461Y3538714D01*
X10289154D01*
X10290000Y3539561D01*
X10286615Y3543793D02*
X10289154D01*
X10290000Y3544639D01*
Y3547178D01*
X10286615D01*
X10284922Y3552257D02*
X10290000D01*
Y3549717D01*
X10289154Y3548871D01*
X10287461D01*
X10286615Y3549717D01*
Y3552257D01*
Y3557335D02*
Y3554796D01*
X10287461Y3553950D01*
X10289154D01*
X10290000Y3554796D01*
Y3557335D01*
Y3559874D02*
Y3561567D01*
X10289154Y3562413D01*
X10287461D01*
X10286615Y3561567D01*
Y3559874D01*
X10287461Y3559028D01*
X10289154D01*
X10290000Y3559874D01*
Y3564106D02*
X10286615D01*
Y3564953D01*
X10287461Y3565799D01*
X10290000D01*
X10287461D01*
X10286615Y3566646D01*
X10287461Y3567492D01*
X10290000D01*
X10291693Y3569185D02*
X10286615D01*
Y3571724D01*
X10287461Y3572570D01*
X10289154D01*
X10290000Y3571724D01*
Y3569185D01*
X10286615Y3574263D02*
X10289154D01*
X10290000Y3575109D01*
Y3577648D01*
X10286615D01*
X10285768Y3580188D02*
X10286615D01*
Y3579341D01*
Y3581034D01*
Y3580188D01*
X10289154D01*
X10290000Y3581034D01*
Y3583573D02*
Y3585266D01*
Y3584420D01*
X10286615D01*
Y3583573D01*
X10290000Y3587805D02*
X10286615D01*
Y3590345D01*
X10287461Y3591191D01*
X10290000D01*
X10291693Y3594576D02*
Y3595423D01*
X10290846Y3596269D01*
X10286615D01*
Y3593730D01*
X10287461Y3592884D01*
X10289154D01*
X10290000Y3593730D01*
Y3596269D01*
Y3597962D02*
X10289154D01*
Y3598808D01*
X10290000D01*
Y3597962D01*
X10286615Y3605580D02*
Y3603040D01*
X10287461Y3602194D01*
X10289154D01*
X10290000Y3603040D01*
Y3605580D01*
Y3608119D02*
Y3609811D01*
X10289154Y3610658D01*
X10287461D01*
X10286615Y3609811D01*
Y3608119D01*
X10287461Y3607272D01*
X10289154D01*
X10290000Y3608119D01*
Y3612350D02*
X10286615D01*
Y3613197D01*
X10287461Y3614043D01*
X10290000D01*
X10287461D01*
X10286615Y3614890D01*
X10287461Y3615736D01*
X10290000D01*
X10195000Y3410078D02*
Y3406693D01*
X10196693Y3405000D01*
X10198386Y3406693D01*
Y3410078D01*
X10202618Y3405000D02*
X10200925D01*
X10200078Y3405846D01*
Y3407539D01*
X10200925Y3408386D01*
X10202618D01*
X10203464Y3407539D01*
Y3406693D01*
X10200078D01*
X10205157Y3408386D02*
Y3405000D01*
Y3406693D01*
X10206003Y3407539D01*
X10206849Y3408386D01*
X10207696D01*
X10210235Y3405000D02*
X10212774D01*
X10213621Y3405846D01*
X10212774Y3406693D01*
X10211082D01*
X10210235Y3407539D01*
X10211082Y3408386D01*
X10213621D01*
X10215313Y3405000D02*
X10217006D01*
X10216160D01*
Y3408386D01*
X10215313D01*
X10220392Y3405000D02*
X10222084D01*
X10222931Y3405846D01*
Y3407539D01*
X10222084Y3408386D01*
X10220392D01*
X10219545Y3407539D01*
Y3405846D01*
X10220392Y3405000D01*
X10224623D02*
Y3408386D01*
X10227163D01*
X10228009Y3407539D01*
Y3405000D01*
X10234780D02*
X10236473D01*
X10235627D01*
Y3410078D01*
X10234780Y3409232D01*
X10239012Y3405000D02*
Y3405846D01*
X10239859D01*
Y3405000D01*
X10239012D01*
X10243245Y3409232D02*
X10244091Y3410078D01*
X10245784D01*
X10246630Y3409232D01*
Y3405846D01*
X10245784Y3405000D01*
X10244091D01*
X10243245Y3405846D01*
Y3409232D01*
M02*
