M48
;Layer_Color=9474304
;FILE_FORMAT=4:4
METRIC,LZ
;TYPE=PLATED
T1F00S00C0.4572
T2F00S00C1.1430
%
T01
X1023243Y0344555
X1023235Y0345825
X1023112Y0346964
X1022985Y0350901
Y0352171
X1022989Y0353445
X1022985Y03556
Y035687
X1018159Y0344297
X1017016
X1022985Y035814
Y036195
Y036322
X102303Y0364445
X1022985Y0366522
Y0367792
Y0369062
Y0372872
Y0374142
Y0375412
Y0377571
Y0378841
Y0380111
Y0383921
Y0385191
X1023001Y0386445
X1022985Y038862
Y038989
X1023047Y0391095
X1022985Y0394843
Y0396113
Y0397383
Y0399542
Y0400812
X1022998Y0402095
X1022985Y0405892
Y0407162
Y0408432
Y0410591
Y0411861
Y0413131
Y0416941
Y0418211
Y0419481
Y042164
X1023027Y0422825
X1022985Y042418
Y042799
Y042926
Y0430403
Y0432562
Y0433832
Y0435102
Y0438912
Y0440055
Y0441452
Y0443484
Y0444754
Y0446151
Y0449961
Y0451231
Y0452374
Y0454533
Y045593
Y04572
Y046101
Y046228
Y046355
Y0465582
Y0466725
Y0467995
Y0471805
Y0473075
Y0474345
Y0476504
Y0477774
Y0479044
Y0482727
Y0484124
Y0485394
Y0487045
Y0488315
Y0489585
Y0493395
Y0494665
Y0495935
Y0498856
Y050038
Y0501523
X1023112Y0504698
Y0505968
Y0506984
T02
X1029Y0502
Y049946
Y049692
Y049438
Y049184
Y04893
Y048676
Y048422
Y048168
Y047914
X1017
Y048168
Y048422
Y048676
Y04893
Y049184
Y049438
Y049692
Y049946
Y0502
M30
