G04 Layer_Color=255*
%FSLAX44Y44*%
%MOMM*%
G71*
G01*
G75*
%ADD14C,1.5240*%
%ADD15R,1.5240X1.5240*%
%ADD17O,1.4500X0.6000*%
%ADD18R,0.5000X0.6000*%
%ADD19R,0.6000X0.5000*%
D14*
X10170000Y4791400D02*
D03*
Y4816800D02*
D03*
Y4842200D02*
D03*
Y4867600D02*
D03*
Y4893000D02*
D03*
Y4918400D02*
D03*
Y4943800D02*
D03*
Y4969200D02*
D03*
Y4994600D02*
D03*
X10290000Y4791400D02*
D03*
Y4816800D02*
D03*
Y4842200D02*
D03*
Y4867600D02*
D03*
Y4893000D02*
D03*
Y4918400D02*
D03*
Y4943800D02*
D03*
Y4969200D02*
D03*
Y4994600D02*
D03*
D15*
X10170000Y5020000D02*
D03*
X10290000D02*
D03*
D17*
X10257250Y5069450D02*
D03*
Y5056750D02*
D03*
Y5044050D02*
D03*
Y5031350D02*
D03*
Y5018650D02*
D03*
Y5005950D02*
D03*
Y4993250D02*
D03*
Y4980550D02*
D03*
X10202750Y5069450D02*
D03*
Y5056750D02*
D03*
Y5044050D02*
D03*
Y5031350D02*
D03*
Y5018650D02*
D03*
Y5005950D02*
D03*
Y4993250D02*
D03*
Y4980550D02*
D03*
Y4870550D02*
D03*
Y4883250D02*
D03*
Y4895950D02*
D03*
Y4908650D02*
D03*
Y4921350D02*
D03*
Y4934050D02*
D03*
Y4946750D02*
D03*
Y4959450D02*
D03*
X10257250Y4870550D02*
D03*
Y4883250D02*
D03*
Y4895950D02*
D03*
Y4908650D02*
D03*
Y4921350D02*
D03*
Y4934050D02*
D03*
Y4946750D02*
D03*
Y4959450D02*
D03*
Y4854450D02*
D03*
Y4841750D02*
D03*
Y4829050D02*
D03*
Y4816350D02*
D03*
Y4803650D02*
D03*
Y4790950D02*
D03*
Y4778250D02*
D03*
Y4765550D02*
D03*
X10202750Y4854450D02*
D03*
Y4841750D02*
D03*
Y4829050D02*
D03*
Y4816350D02*
D03*
Y4803650D02*
D03*
Y4790950D02*
D03*
Y4778250D02*
D03*
Y4765550D02*
D03*
Y4655550D02*
D03*
Y4668250D02*
D03*
Y4680950D02*
D03*
Y4693650D02*
D03*
Y4706350D02*
D03*
Y4719050D02*
D03*
Y4731750D02*
D03*
Y4744450D02*
D03*
X10257250Y4655550D02*
D03*
Y4668250D02*
D03*
Y4680950D02*
D03*
Y4693650D02*
D03*
Y4706350D02*
D03*
Y4719050D02*
D03*
Y4731750D02*
D03*
Y4744450D02*
D03*
Y4634450D02*
D03*
Y4621750D02*
D03*
Y4609050D02*
D03*
Y4596350D02*
D03*
Y4583650D02*
D03*
Y4570950D02*
D03*
Y4558250D02*
D03*
Y4545550D02*
D03*
X10202750Y4634450D02*
D03*
Y4621750D02*
D03*
Y4609050D02*
D03*
Y4596350D02*
D03*
Y4583650D02*
D03*
Y4570950D02*
D03*
Y4558250D02*
D03*
Y4545550D02*
D03*
Y4435550D02*
D03*
Y4448250D02*
D03*
Y4460950D02*
D03*
Y4473650D02*
D03*
Y4486350D02*
D03*
Y4499050D02*
D03*
Y4511750D02*
D03*
Y4524450D02*
D03*
X10257250Y4435550D02*
D03*
Y4448250D02*
D03*
Y4460950D02*
D03*
Y4473650D02*
D03*
Y4486350D02*
D03*
Y4499050D02*
D03*
Y4511750D02*
D03*
Y4524450D02*
D03*
Y4414450D02*
D03*
Y4401750D02*
D03*
Y4389050D02*
D03*
Y4376350D02*
D03*
Y4363650D02*
D03*
Y4350950D02*
D03*
Y4338250D02*
D03*
Y4325550D02*
D03*
X10202750Y4414450D02*
D03*
Y4401750D02*
D03*
Y4389050D02*
D03*
Y4376350D02*
D03*
Y4363650D02*
D03*
Y4350950D02*
D03*
Y4338250D02*
D03*
Y4325550D02*
D03*
Y4215550D02*
D03*
Y4228250D02*
D03*
Y4240950D02*
D03*
Y4253650D02*
D03*
Y4266350D02*
D03*
Y4279050D02*
D03*
Y4291750D02*
D03*
Y4304450D02*
D03*
X10257250Y4215550D02*
D03*
Y4228250D02*
D03*
Y4240950D02*
D03*
Y4253650D02*
D03*
Y4266350D02*
D03*
Y4279050D02*
D03*
Y4291750D02*
D03*
Y4304450D02*
D03*
Y4194450D02*
D03*
Y4181750D02*
D03*
Y4169050D02*
D03*
Y4156350D02*
D03*
Y4143650D02*
D03*
Y4130950D02*
D03*
Y4118250D02*
D03*
Y4105550D02*
D03*
X10202750Y4194450D02*
D03*
Y4181750D02*
D03*
Y4169050D02*
D03*
Y4156350D02*
D03*
Y4143650D02*
D03*
Y4130950D02*
D03*
Y4118250D02*
D03*
Y4105550D02*
D03*
Y3995550D02*
D03*
Y4008250D02*
D03*
Y4020950D02*
D03*
Y4033650D02*
D03*
Y4046350D02*
D03*
Y4059050D02*
D03*
Y4071750D02*
D03*
Y4084450D02*
D03*
X10257250Y3995550D02*
D03*
Y4008250D02*
D03*
Y4020950D02*
D03*
Y4033650D02*
D03*
Y4046350D02*
D03*
Y4059050D02*
D03*
Y4071750D02*
D03*
Y4084450D02*
D03*
Y3974450D02*
D03*
Y3961750D02*
D03*
Y3949050D02*
D03*
Y3936350D02*
D03*
Y3923650D02*
D03*
Y3910950D02*
D03*
Y3898250D02*
D03*
Y3885550D02*
D03*
X10202750Y3974450D02*
D03*
Y3961750D02*
D03*
Y3949050D02*
D03*
Y3936350D02*
D03*
Y3923650D02*
D03*
Y3910950D02*
D03*
Y3898250D02*
D03*
Y3885550D02*
D03*
Y3775550D02*
D03*
Y3788250D02*
D03*
Y3800950D02*
D03*
Y3813650D02*
D03*
Y3826350D02*
D03*
Y3839050D02*
D03*
Y3851750D02*
D03*
Y3864450D02*
D03*
X10257250Y3775550D02*
D03*
Y3788250D02*
D03*
Y3800950D02*
D03*
Y3813650D02*
D03*
Y3826350D02*
D03*
Y3839050D02*
D03*
Y3851750D02*
D03*
Y3864450D02*
D03*
Y3754450D02*
D03*
Y3741750D02*
D03*
Y3729050D02*
D03*
Y3716350D02*
D03*
Y3703650D02*
D03*
Y3690950D02*
D03*
Y3678250D02*
D03*
Y3665550D02*
D03*
X10202750Y3754450D02*
D03*
Y3741750D02*
D03*
Y3729050D02*
D03*
Y3716350D02*
D03*
Y3703650D02*
D03*
Y3690950D02*
D03*
Y3678250D02*
D03*
Y3665550D02*
D03*
Y3555550D02*
D03*
Y3568250D02*
D03*
Y3580950D02*
D03*
Y3593650D02*
D03*
Y3606350D02*
D03*
Y3619050D02*
D03*
Y3631750D02*
D03*
Y3644450D02*
D03*
X10257250Y3555550D02*
D03*
Y3568250D02*
D03*
Y3580950D02*
D03*
Y3593650D02*
D03*
Y3606350D02*
D03*
Y3619050D02*
D03*
Y3631750D02*
D03*
Y3644450D02*
D03*
Y3534450D02*
D03*
Y3521750D02*
D03*
Y3509050D02*
D03*
Y3496350D02*
D03*
Y3483650D02*
D03*
Y3470950D02*
D03*
Y3458250D02*
D03*
Y3445550D02*
D03*
X10202750Y3534450D02*
D03*
Y3521750D02*
D03*
Y3509050D02*
D03*
Y3496350D02*
D03*
Y3483650D02*
D03*
Y3470950D02*
D03*
Y3458250D02*
D03*
Y3445550D02*
D03*
D18*
X10275000Y4475000D02*
D03*
Y4485000D02*
D03*
Y3605000D02*
D03*
Y3595000D02*
D03*
X10270000Y4895000D02*
D03*
Y4905000D02*
D03*
X10270491Y4805760D02*
D03*
Y4815760D02*
D03*
X10275000Y4715000D02*
D03*
Y4705000D02*
D03*
Y4690000D02*
D03*
Y4680000D02*
D03*
Y4585000D02*
D03*
Y4595000D02*
D03*
Y4375000D02*
D03*
Y4365000D02*
D03*
Y4035000D02*
D03*
Y4045000D02*
D03*
Y4155000D02*
D03*
Y4145000D02*
D03*
Y3925000D02*
D03*
Y3935000D02*
D03*
Y3815000D02*
D03*
Y3825000D02*
D03*
Y3705000D02*
D03*
Y3715000D02*
D03*
Y4265000D02*
D03*
Y4255000D02*
D03*
D19*
X10225000Y5090000D02*
D03*
X10235000D02*
D03*
X10255000D02*
D03*
X10245000D02*
D03*
M02*
