G04 Layer_Color=8388736*
%FSLAX44Y44*%
%MOMM*%
G71*
G01*
G75*
G04:AMPARAMS|DCode=24|XSize=1.2032mm|YSize=2.0032mm|CornerRadius=0.3516mm|HoleSize=0mm|Usage=FLASHONLY|Rotation=90.000|XOffset=0mm|YOffset=0mm|HoleType=Round|Shape=RoundedRectangle|*
%AMROUNDEDRECTD24*
21,1,1.2032,1.3000,0,0,90.0*
21,1,0.5000,2.0032,0,0,90.0*
1,1,0.7032,0.6500,0.2500*
1,1,0.7032,0.6500,-0.2500*
1,1,0.7032,-0.6500,-0.2500*
1,1,0.7032,-0.6500,0.2500*
%
%ADD24ROUNDEDRECTD24*%
%ADD25R,2.0032X1.2032*%
%ADD26C,1.7272*%
%ADD27R,1.7272X1.7272*%
%ADD28C,0.8382*%
D24*
X10249600Y3450000D02*
D03*
Y3505000D02*
D03*
Y3560000D02*
D03*
Y3615000D02*
D03*
Y3670000D02*
D03*
Y3725000D02*
D03*
Y3780000D02*
D03*
Y3835000D02*
D03*
Y3890000D02*
D03*
Y3945000D02*
D03*
Y4000000D02*
D03*
Y4055000D02*
D03*
Y4110000D02*
D03*
Y4165000D02*
D03*
Y4220000D02*
D03*
Y4275000D02*
D03*
Y4330000D02*
D03*
Y4385000D02*
D03*
Y4440000D02*
D03*
Y4495000D02*
D03*
Y4550000D02*
D03*
Y4605000D02*
D03*
Y4660000D02*
D03*
Y4715000D02*
D03*
Y4770000D02*
D03*
Y4825000D02*
D03*
Y4880000D02*
D03*
Y4935000D02*
D03*
Y4990000D02*
D03*
Y5045000D02*
D03*
D25*
Y3465000D02*
D03*
Y3480000D02*
D03*
X10210400Y3450000D02*
D03*
Y3465000D02*
D03*
Y3480000D02*
D03*
X10249600Y3520000D02*
D03*
Y3535000D02*
D03*
X10210400Y3505000D02*
D03*
Y3520000D02*
D03*
Y3535000D02*
D03*
X10249600Y3575000D02*
D03*
Y3590000D02*
D03*
X10210400Y3560000D02*
D03*
Y3575000D02*
D03*
Y3590000D02*
D03*
X10249600Y3630000D02*
D03*
Y3645000D02*
D03*
X10210400Y3615000D02*
D03*
Y3630000D02*
D03*
Y3645000D02*
D03*
X10249600Y3685000D02*
D03*
Y3700000D02*
D03*
X10210400Y3670000D02*
D03*
Y3685000D02*
D03*
Y3700000D02*
D03*
X10249600Y3740000D02*
D03*
Y3755000D02*
D03*
X10210400Y3725000D02*
D03*
Y3740000D02*
D03*
Y3755000D02*
D03*
X10249600Y3795000D02*
D03*
Y3810000D02*
D03*
X10210400Y3780000D02*
D03*
Y3795000D02*
D03*
Y3810000D02*
D03*
X10249600Y3850000D02*
D03*
Y3865000D02*
D03*
X10210400Y3835000D02*
D03*
Y3850000D02*
D03*
Y3865000D02*
D03*
X10249600Y3905000D02*
D03*
Y3920000D02*
D03*
X10210400Y3890000D02*
D03*
Y3905000D02*
D03*
Y3920000D02*
D03*
X10249600Y3960000D02*
D03*
Y3975000D02*
D03*
X10210400Y3945000D02*
D03*
Y3960000D02*
D03*
Y3975000D02*
D03*
X10249600Y4015000D02*
D03*
Y4030000D02*
D03*
X10210400Y4000000D02*
D03*
Y4015000D02*
D03*
Y4030000D02*
D03*
X10249600Y4070000D02*
D03*
Y4085000D02*
D03*
X10210400Y4055000D02*
D03*
Y4070000D02*
D03*
Y4085000D02*
D03*
X10249600Y4125000D02*
D03*
Y4140000D02*
D03*
X10210400Y4110000D02*
D03*
Y4125000D02*
D03*
Y4140000D02*
D03*
X10249600Y4180000D02*
D03*
Y4195000D02*
D03*
X10210400Y4165000D02*
D03*
Y4180000D02*
D03*
Y4195000D02*
D03*
X10249600Y4235000D02*
D03*
Y4250000D02*
D03*
X10210400Y4220000D02*
D03*
Y4235000D02*
D03*
Y4250000D02*
D03*
X10249600Y4290000D02*
D03*
Y4305000D02*
D03*
X10210400Y4275000D02*
D03*
Y4290000D02*
D03*
Y4305000D02*
D03*
X10249600Y4345000D02*
D03*
Y4360000D02*
D03*
X10210400Y4330000D02*
D03*
Y4345000D02*
D03*
Y4360000D02*
D03*
X10249600Y4400000D02*
D03*
Y4415000D02*
D03*
X10210400Y4385000D02*
D03*
Y4400000D02*
D03*
Y4415000D02*
D03*
X10249600Y4455000D02*
D03*
Y4470000D02*
D03*
X10210400Y4440000D02*
D03*
Y4455000D02*
D03*
Y4470000D02*
D03*
X10249600Y4510000D02*
D03*
Y4525000D02*
D03*
X10210400Y4495000D02*
D03*
Y4510000D02*
D03*
Y4525000D02*
D03*
X10249600Y4565000D02*
D03*
Y4580000D02*
D03*
X10210400Y4550000D02*
D03*
Y4565000D02*
D03*
Y4580000D02*
D03*
X10249600Y4620000D02*
D03*
Y4635000D02*
D03*
X10210400Y4605000D02*
D03*
Y4620000D02*
D03*
Y4635000D02*
D03*
X10249600Y4675000D02*
D03*
Y4690000D02*
D03*
X10210400Y4660000D02*
D03*
Y4675000D02*
D03*
Y4690000D02*
D03*
X10249600Y4730000D02*
D03*
Y4745000D02*
D03*
X10210400Y4715000D02*
D03*
Y4730000D02*
D03*
Y4745000D02*
D03*
X10249600Y4785000D02*
D03*
Y4800000D02*
D03*
X10210400Y4770000D02*
D03*
Y4785000D02*
D03*
Y4800000D02*
D03*
X10249600Y4840000D02*
D03*
Y4855000D02*
D03*
X10210400Y4825000D02*
D03*
Y4840000D02*
D03*
Y4855000D02*
D03*
X10249600Y4895000D02*
D03*
Y4910000D02*
D03*
X10210400Y4880000D02*
D03*
Y4895000D02*
D03*
Y4910000D02*
D03*
X10249600Y4950000D02*
D03*
Y4965000D02*
D03*
X10210400Y4935000D02*
D03*
Y4950000D02*
D03*
Y4965000D02*
D03*
X10249600Y5005000D02*
D03*
Y5020000D02*
D03*
X10210400Y4990000D02*
D03*
Y5005000D02*
D03*
Y5020000D02*
D03*
X10249600Y5060000D02*
D03*
Y5075000D02*
D03*
X10210400Y5045000D02*
D03*
Y5060000D02*
D03*
Y5075000D02*
D03*
D26*
X10170000Y4791400D02*
D03*
Y4816800D02*
D03*
Y4842200D02*
D03*
Y4867600D02*
D03*
Y4893000D02*
D03*
Y4918400D02*
D03*
Y4943800D02*
D03*
Y4969200D02*
D03*
Y4994600D02*
D03*
X10290000Y4791400D02*
D03*
Y4816800D02*
D03*
Y4842200D02*
D03*
Y4867600D02*
D03*
Y4893000D02*
D03*
Y4918400D02*
D03*
Y4943800D02*
D03*
Y4969200D02*
D03*
Y4994600D02*
D03*
D27*
X10170000Y5020000D02*
D03*
X10290000D02*
D03*
D28*
X10231120Y5069840D02*
D03*
Y5059680D02*
D03*
Y5046980D02*
D03*
X10229850Y5015230D02*
D03*
Y5003800D02*
D03*
Y4988560D02*
D03*
Y4959350D02*
D03*
Y4946650D02*
D03*
Y4933950D02*
D03*
Y4895850D02*
D03*
Y4883150D02*
D03*
Y4870450D02*
D03*
Y4853940D02*
D03*
Y4841240D02*
D03*
Y4827270D02*
D03*
Y4790440D02*
D03*
Y4777740D02*
D03*
Y4765040D02*
D03*
Y4743450D02*
D03*
Y4730750D02*
D03*
Y4718050D02*
D03*
Y4679950D02*
D03*
Y4667250D02*
D03*
Y4655820D02*
D03*
Y4635500D02*
D03*
Y4622800D02*
D03*
Y4610100D02*
D03*
Y4572000D02*
D03*
Y4559300D02*
D03*
Y4545330D02*
D03*
Y4523740D02*
D03*
Y4512310D02*
D03*
Y4499610D02*
D03*
X10170160Y3442970D02*
D03*
X10181590D02*
D03*
X10229850Y4461510D02*
D03*
Y4447540D02*
D03*
Y4434840D02*
D03*
Y4414520D02*
D03*
Y4400550D02*
D03*
Y4389120D02*
D03*
Y4351020D02*
D03*
Y4338320D02*
D03*
Y4325620D02*
D03*
Y4304030D02*
D03*
Y4292600D02*
D03*
Y4279900D02*
D03*
Y4241800D02*
D03*
X10230270Y4228250D02*
D03*
X10229850Y4216400D02*
D03*
Y4194810D02*
D03*
Y4182110D02*
D03*
Y4169410D02*
D03*
Y4131310D02*
D03*
Y4118610D02*
D03*
Y4105910D02*
D03*
Y4084320D02*
D03*
Y4071620D02*
D03*
Y4058920D02*
D03*
X10229980Y4020950D02*
D03*
X10229850Y4008120D02*
D03*
Y3995420D02*
D03*
Y3973830D02*
D03*
Y3961130D02*
D03*
Y3948430D02*
D03*
X10230470Y3910950D02*
D03*
X10229850Y3898900D02*
D03*
Y3886200D02*
D03*
X10230010Y3864450D02*
D03*
X10229850Y3851910D02*
D03*
Y3839210D02*
D03*
Y3801110D02*
D03*
Y3788410D02*
D03*
Y3775710D02*
D03*
Y3754120D02*
D03*
Y3741420D02*
D03*
Y3728720D02*
D03*
Y3690620D02*
D03*
Y3677920D02*
D03*
Y3665220D02*
D03*
X10230300Y3644450D02*
D03*
X10229850Y3632200D02*
D03*
Y3619500D02*
D03*
Y3581400D02*
D03*
Y3568700D02*
D03*
Y3556000D02*
D03*
X10229890Y3534450D02*
D03*
X10229850Y3521710D02*
D03*
Y3509010D02*
D03*
X10232350Y3458250D02*
D03*
X10231120Y3469640D02*
D03*
X10232430Y3445550D02*
D03*
M02*
