G04 Layer_Physical_Order=1*
G04 Layer_Color=255*
%FSLAX44Y44*%
%MOMM*%
G71*
G01*
G75*
G04:AMPARAMS|DCode=10|XSize=1mm|YSize=1.8mm|CornerRadius=0.25mm|HoleSize=0mm|Usage=FLASHONLY|Rotation=90.000|XOffset=0mm|YOffset=0mm|HoleType=Round|Shape=RoundedRectangle|*
%AMROUNDEDRECTD10*
21,1,1.0000,1.3000,0,0,90.0*
21,1,0.5000,1.8000,0,0,90.0*
1,1,0.5000,0.6500,0.2500*
1,1,0.5000,0.6500,-0.2500*
1,1,0.5000,-0.6500,-0.2500*
1,1,0.5000,-0.6500,0.2500*
%
%ADD10ROUNDEDRECTD10*%
%ADD11R,1.8000X1.0000*%
%ADD12C,0.1524*%
%ADD13C,0.3810*%
%ADD14C,1.5240*%
%ADD15R,1.5240X1.5240*%
%ADD16C,0.6350*%
G36*
X10303510Y4948530D02*
X10302336Y4948044D01*
X10292072Y4958308D01*
Y4960506D01*
X10292321Y4960539D01*
X10294484Y4961435D01*
X10296340Y4962860D01*
X10297766Y4964717D01*
X10298661Y4966879D01*
X10298967Y4969200D01*
X10298661Y4971521D01*
X10297766Y4973683D01*
X10296340Y4975540D01*
X10294484Y4976966D01*
X10292321Y4977861D01*
X10292072Y4977894D01*
Y4980950D01*
X10292072Y4980950D01*
X10291914Y4981743D01*
X10291465Y4982415D01*
X10291465Y4982415D01*
X10289377Y4984502D01*
X10289751Y4985259D01*
X10290038Y4985638D01*
X10292321Y4985939D01*
X10294484Y4986835D01*
X10296340Y4988260D01*
X10297766Y4990117D01*
X10298661Y4992279D01*
X10298967Y4994600D01*
X10298661Y4996921D01*
X10297766Y4999084D01*
X10296340Y5000941D01*
X10294484Y5002365D01*
X10292321Y5003261D01*
X10290000Y5003567D01*
X10287679Y5003261D01*
X10285516Y5002365D01*
X10285317Y5002213D01*
X10282087Y5005444D01*
Y5011110D01*
X10298890D01*
Y5028890D01*
X10284041D01*
X10275281Y5037650D01*
X10274608Y5038099D01*
X10273816Y5038257D01*
X10273815Y5038257D01*
X10258822D01*
X10258436Y5039527D01*
X10258818Y5039782D01*
X10259651Y5041029D01*
X10259944Y5042500D01*
Y5047500D01*
X10259651Y5048971D01*
X10258818Y5050218D01*
X10257571Y5051051D01*
X10256100Y5051344D01*
X10243101D01*
X10241628Y5051051D01*
X10240382Y5050218D01*
X10239549Y5048971D01*
X10239256Y5047500D01*
Y5047072D01*
X10235634D01*
X10235307Y5048714D01*
X10234325Y5050185D01*
X10232854Y5051167D01*
X10231120Y5051512D01*
X10229386Y5051167D01*
X10227915Y5050185D01*
X10226933Y5048714D01*
X10226588Y5046980D01*
X10226933Y5045246D01*
X10227915Y5043775D01*
X10229386Y5042793D01*
X10231120Y5042448D01*
X10232854Y5042793D01*
X10233066Y5042935D01*
X10233100Y5042928D01*
X10233101Y5042928D01*
X10239256D01*
Y5042500D01*
X10239549Y5041029D01*
X10240382Y5039782D01*
X10240764Y5039527D01*
X10240378Y5038257D01*
X10221940D01*
Y5043730D01*
X10198860D01*
Y5038257D01*
X10189210D01*
X10189210Y5038257D01*
X10188417Y5038099D01*
X10187745Y5037650D01*
X10187745Y5037650D01*
X10179773Y5029678D01*
X10178890Y5028890D01*
Y5028890D01*
X10178890Y5028890D01*
X10161110D01*
Y5011110D01*
X10178890D01*
Y5022935D01*
X10180153Y5024198D01*
X10181423Y5023672D01*
Y5008953D01*
X10174683Y5002213D01*
X10174483Y5002365D01*
X10172321Y5003261D01*
X10170000Y5003567D01*
X10167679Y5003261D01*
X10165516Y5002365D01*
X10163660Y5000941D01*
X10162234Y4999084D01*
X10161339Y4996921D01*
X10161033Y4994600D01*
X10161339Y4992279D01*
X10162234Y4990117D01*
X10163660Y4988260D01*
X10165516Y4986835D01*
X10167679Y4985939D01*
X10170000Y4985634D01*
X10172321Y4985939D01*
X10174483Y4986835D01*
X10176340Y4988260D01*
X10177766Y4990117D01*
X10178661Y4992279D01*
X10178967Y4994600D01*
X10178661Y4996921D01*
X10177766Y4999084D01*
X10177612Y4999283D01*
X10183044Y5004714D01*
X10184217Y5004228D01*
Y4986347D01*
X10174683Y4976813D01*
X10174483Y4976966D01*
X10172321Y4977861D01*
X10170000Y4978167D01*
X10167679Y4977861D01*
X10165516Y4976966D01*
X10163660Y4975540D01*
X10162234Y4973683D01*
X10161339Y4971521D01*
X10161033Y4969200D01*
X10161339Y4966879D01*
X10162234Y4964717D01*
X10163660Y4962860D01*
X10165516Y4961435D01*
X10167679Y4960539D01*
X10170000Y4960233D01*
X10172321Y4960539D01*
X10174483Y4961435D01*
X10176340Y4962860D01*
X10177766Y4964717D01*
X10178661Y4966879D01*
X10178967Y4969200D01*
X10178661Y4971521D01*
X10177766Y4973683D01*
X10177612Y4973883D01*
X10187754Y4984024D01*
X10187754Y4984024D01*
X10188203Y4984696D01*
X10188361Y4985489D01*
Y5022740D01*
X10193765Y5028144D01*
X10197841D01*
X10198860Y5027540D01*
X10198860Y5026874D01*
Y5021270D01*
X10221940D01*
Y5026874D01*
X10221940Y5027540D01*
X10222960Y5028144D01*
X10269250D01*
X10275149Y5022246D01*
Y4993730D01*
X10275149Y4993729D01*
X10275306Y4992936D01*
X10275756Y4992264D01*
X10287928Y4980092D01*
Y4977894D01*
X10287679Y4977861D01*
X10285516Y4976966D01*
X10283660Y4975540D01*
X10282584Y4974138D01*
X10282017Y4974127D01*
X10281187Y4974282D01*
X10281178Y4974286D01*
X10280845Y4974785D01*
X10275129Y4980500D01*
X10274458Y4980949D01*
X10273665Y4981107D01*
X10273665Y4981107D01*
X10205720D01*
X10205720Y4981107D01*
X10204927Y4980949D01*
X10204255Y4980500D01*
X10174957Y4951202D01*
X10174483Y4951566D01*
X10172321Y4952461D01*
X10170000Y4952767D01*
X10167679Y4952461D01*
X10165516Y4951566D01*
X10163660Y4950140D01*
X10162234Y4948283D01*
X10161339Y4946121D01*
X10161033Y4943800D01*
X10161339Y4941479D01*
X10162234Y4939317D01*
X10163660Y4937460D01*
X10165516Y4936035D01*
X10167679Y4935139D01*
X10170000Y4934833D01*
X10172321Y4935139D01*
X10174483Y4936035D01*
X10176340Y4937460D01*
X10177766Y4939317D01*
X10178661Y4941479D01*
X10178967Y4943800D01*
X10178661Y4946121D01*
X10177805Y4948189D01*
X10197687Y4968072D01*
X10198860Y4967586D01*
Y4966270D01*
X10209130D01*
Y4972540D01*
X10203814D01*
X10203328Y4973713D01*
X10206578Y4976963D01*
X10272806D01*
X10277308Y4972462D01*
Y4954420D01*
X10277308Y4954420D01*
X10277466Y4953628D01*
X10277915Y4952955D01*
X10282388Y4948483D01*
X10282235Y4948283D01*
X10281339Y4946121D01*
X10281034Y4943800D01*
X10281339Y4941479D01*
X10282235Y4939317D01*
X10283660Y4937460D01*
X10285516Y4936035D01*
X10287679Y4935139D01*
X10290000Y4934833D01*
X10292321Y4935139D01*
X10294484Y4936035D01*
X10294683Y4936188D01*
X10297628Y4933242D01*
Y4925038D01*
X10296426Y4924630D01*
X10296340Y4924741D01*
X10294484Y4926165D01*
X10292321Y4927061D01*
X10290000Y4927367D01*
X10287679Y4927061D01*
X10285516Y4926165D01*
X10284985Y4925757D01*
X10176510D01*
X10175323Y4925521D01*
X10174483Y4926165D01*
X10172321Y4927061D01*
X10170000Y4927367D01*
X10167679Y4927061D01*
X10165516Y4926165D01*
X10163660Y4924741D01*
X10162234Y4922884D01*
X10161339Y4920721D01*
X10161033Y4918400D01*
X10161339Y4916079D01*
X10162234Y4913917D01*
X10163660Y4912060D01*
X10165516Y4910635D01*
X10166763Y4910119D01*
Y4901282D01*
X10165516Y4900765D01*
X10163660Y4899341D01*
X10162234Y4897484D01*
X10161339Y4895321D01*
X10161033Y4893000D01*
X10161339Y4890679D01*
X10162234Y4888517D01*
X10163660Y4886660D01*
X10165516Y4885235D01*
X10167679Y4884339D01*
X10170000Y4884034D01*
X10172321Y4884339D01*
X10174483Y4885235D01*
X10176340Y4886660D01*
X10177766Y4888517D01*
X10178661Y4890679D01*
X10178967Y4893000D01*
X10178661Y4895321D01*
X10177766Y4897484D01*
X10176340Y4899341D01*
X10174483Y4900765D01*
X10173237Y4901282D01*
Y4910119D01*
X10174483Y4910635D01*
X10176340Y4912060D01*
X10177766Y4913917D01*
X10178661Y4916079D01*
X10178967Y4918400D01*
X10179741Y4919283D01*
X10280260D01*
X10281034Y4918400D01*
X10281339Y4916079D01*
X10282235Y4913917D01*
X10283660Y4912060D01*
X10285516Y4910635D01*
X10286763Y4910119D01*
Y4901282D01*
X10285516Y4900765D01*
X10283660Y4899341D01*
X10282235Y4897484D01*
X10281339Y4895321D01*
X10281034Y4893000D01*
X10281339Y4890679D01*
X10282235Y4888517D01*
X10283660Y4886660D01*
X10285516Y4885235D01*
X10287679Y4884339D01*
X10290000Y4884034D01*
X10292321Y4884339D01*
X10294484Y4885235D01*
X10296340Y4886660D01*
X10296426Y4886770D01*
X10297628Y4886362D01*
Y4874238D01*
X10296426Y4873830D01*
X10296340Y4873940D01*
X10294484Y4875366D01*
X10292321Y4876261D01*
X10290000Y4876567D01*
X10287679Y4876261D01*
X10285516Y4875366D01*
X10283660Y4873940D01*
X10282235Y4872083D01*
X10281339Y4869921D01*
X10281158Y4868552D01*
X10278674Y4866067D01*
X10233577D01*
X10233223Y4866867D01*
X10233116Y4867337D01*
X10233812Y4868378D01*
X10240050D01*
X10240050Y4868378D01*
X10240844Y4868536D01*
X10241515Y4868985D01*
X10246187Y4873656D01*
X10256100D01*
X10257571Y4873949D01*
X10258818Y4874782D01*
X10259651Y4876029D01*
X10259944Y4877500D01*
Y4882500D01*
X10259651Y4883971D01*
X10258818Y4885218D01*
X10257571Y4886051D01*
X10256100Y4886344D01*
X10243101D01*
X10241628Y4886051D01*
X10240382Y4885218D01*
X10239549Y4883971D01*
X10239256Y4882500D01*
Y4877500D01*
X10239549Y4876029D01*
X10240382Y4874782D01*
X10240477Y4873808D01*
X10239192Y4872522D01*
X10233812D01*
X10233055Y4873655D01*
X10231584Y4874637D01*
X10229850Y4874982D01*
X10228116Y4874637D01*
X10226646Y4873655D01*
X10225663Y4872184D01*
X10225318Y4870450D01*
X10225663Y4868716D01*
X10226584Y4867337D01*
X10226478Y4866867D01*
X10226122Y4866067D01*
X10181026D01*
X10178887Y4868206D01*
X10178661Y4869921D01*
X10177766Y4872083D01*
X10176340Y4873940D01*
X10174483Y4875366D01*
X10172321Y4876261D01*
X10170000Y4876567D01*
X10167679Y4876261D01*
X10165516Y4875366D01*
X10163660Y4873940D01*
X10162234Y4872083D01*
X10161339Y4869921D01*
X10161033Y4867600D01*
X10161339Y4865280D01*
X10162234Y4863117D01*
X10163660Y4861260D01*
X10165516Y4859835D01*
X10166763Y4859319D01*
Y4850482D01*
X10165516Y4849966D01*
X10163660Y4848541D01*
X10162234Y4846683D01*
X10161339Y4844521D01*
X10161033Y4842200D01*
X10161339Y4839879D01*
X10162234Y4837717D01*
X10163660Y4835860D01*
X10165516Y4834435D01*
X10167679Y4833539D01*
X10170000Y4833233D01*
X10172321Y4833539D01*
X10174483Y4834435D01*
X10176340Y4835860D01*
X10177766Y4837717D01*
X10178661Y4839879D01*
X10178967Y4842200D01*
X10178661Y4844521D01*
X10177766Y4846683D01*
X10176340Y4848541D01*
X10174483Y4849966D01*
X10173237Y4850482D01*
Y4859319D01*
X10174483Y4859835D01*
X10176340Y4861260D01*
X10176656Y4861281D01*
X10177396Y4860541D01*
X10178446Y4859839D01*
X10179685Y4859593D01*
X10198860D01*
Y4856270D01*
X10221940D01*
Y4859593D01*
X10228975D01*
X10229100Y4858323D01*
X10228116Y4858127D01*
X10226646Y4857145D01*
X10225663Y4855674D01*
X10225318Y4853940D01*
X10225663Y4852206D01*
X10226646Y4850735D01*
X10228116Y4849753D01*
X10229850Y4849408D01*
X10231584Y4849753D01*
X10233055Y4850735D01*
X10234037Y4852206D01*
X10234181Y4852928D01*
X10239330D01*
Y4848730D01*
X10259871D01*
Y4859593D01*
X10280015D01*
X10281254Y4859839D01*
X10282303Y4860541D01*
X10283062Y4861299D01*
X10283660Y4861260D01*
X10285516Y4859835D01*
X10286763Y4859319D01*
Y4850482D01*
X10285516Y4849966D01*
X10283660Y4848541D01*
X10282235Y4846683D01*
X10281339Y4844521D01*
X10281034Y4842200D01*
X10281339Y4839879D01*
X10282235Y4837717D01*
X10283660Y4835860D01*
X10285516Y4834435D01*
X10287679Y4833539D01*
X10290000Y4833233D01*
X10292321Y4833539D01*
X10294484Y4834435D01*
X10296340Y4835860D01*
X10296426Y4835970D01*
X10297628Y4835562D01*
Y4825354D01*
X10296359Y4824728D01*
X10295125Y4825675D01*
X10292653Y4826699D01*
X10291271Y4826880D01*
Y4816800D01*
Y4806720D01*
X10292653Y4806902D01*
X10295125Y4807925D01*
X10296359Y4808872D01*
X10297628Y4808246D01*
Y4799954D01*
X10296359Y4799328D01*
X10295125Y4800275D01*
X10292653Y4801299D01*
X10291271Y4801481D01*
Y4791400D01*
Y4781320D01*
X10292653Y4781501D01*
X10295125Y4782525D01*
X10296359Y4783472D01*
X10297628Y4782846D01*
Y3446368D01*
X10288682Y3437422D01*
X10190068D01*
X10185856Y3441634D01*
X10186122Y3442970D01*
X10185777Y3444704D01*
X10184795Y3446175D01*
X10183325Y3447157D01*
X10181590Y3447502D01*
X10179856Y3447157D01*
X10178385Y3446175D01*
X10177403Y3444704D01*
X10177058Y3442970D01*
X10177403Y3441236D01*
X10178385Y3439765D01*
X10179856Y3438783D01*
X10181590Y3438438D01*
X10182926Y3438704D01*
X10185829Y3435801D01*
X10185343Y3434628D01*
X10173304D01*
X10172232Y3435700D01*
Y3439008D01*
X10173365Y3439765D01*
X10174347Y3441236D01*
X10174692Y3442970D01*
X10174347Y3444704D01*
X10173365Y3446175D01*
X10172157Y3446982D01*
X10172074Y3447399D01*
X10171625Y3448071D01*
X10170953Y3448520D01*
X10170160Y3448678D01*
X10169367Y3448520D01*
X10168695Y3448071D01*
X10168246Y3447399D01*
X10168163Y3446982D01*
X10166956Y3446175D01*
X10165973Y3444704D01*
X10165628Y3442970D01*
X10165973Y3441236D01*
X10166956Y3439765D01*
X10168088Y3439008D01*
Y3434842D01*
X10168088Y3434842D01*
X10168246Y3434049D01*
X10168695Y3433377D01*
X10170981Y3431091D01*
X10170981Y3431091D01*
X10171653Y3430642D01*
X10172446Y3430484D01*
X10290697D01*
X10290697Y3430484D01*
X10291490Y3430642D01*
X10292162Y3431091D01*
X10302336Y3441265D01*
X10303510Y3440779D01*
Y3403600D01*
X10303214Y3402330D01*
X10156190D01*
Y5097780D01*
X10303510D01*
Y4948530D01*
D02*
G37*
%LPC*%
G36*
X10221940Y5082540D02*
X10211670D01*
Y5076270D01*
X10221940D01*
Y5082540D01*
D02*
G37*
G36*
X10209130D02*
X10198860D01*
Y5076270D01*
X10209130D01*
Y5082540D01*
D02*
G37*
G36*
X10259871Y5081270D02*
X10239330D01*
Y5073360D01*
X10237882Y5071912D01*
X10235082D01*
X10234325Y5073045D01*
X10232854Y5074027D01*
X10231120Y5074372D01*
X10229386Y5074027D01*
X10227915Y5073045D01*
X10226933Y5071574D01*
X10226588Y5069840D01*
X10226933Y5068106D01*
X10227915Y5066635D01*
X10229386Y5065653D01*
X10230371Y5065457D01*
X10230620Y5065407D01*
Y5064113D01*
X10230371Y5064063D01*
X10229386Y5063867D01*
X10227915Y5062885D01*
X10226933Y5061414D01*
X10226588Y5059680D01*
X10226933Y5057946D01*
X10227915Y5056475D01*
X10229386Y5055493D01*
X10231120Y5055148D01*
X10232854Y5055493D01*
X10234325Y5056475D01*
X10235295Y5057928D01*
X10239330D01*
Y5053730D01*
X10259871D01*
Y5066270D01*
X10239330D01*
Y5062072D01*
X10234868D01*
X10234325Y5062885D01*
X10232854Y5063867D01*
X10231869Y5064063D01*
X10231620Y5064113D01*
Y5065407D01*
X10231869Y5065457D01*
X10232854Y5065653D01*
X10234325Y5066635D01*
X10235082Y5067768D01*
X10238740D01*
X10238740Y5067768D01*
X10239533Y5067926D01*
X10240205Y5068375D01*
X10240560Y5068730D01*
X10259871D01*
Y5081270D01*
D02*
G37*
G36*
X10221940Y5073730D02*
X10198860D01*
Y5067460D01*
Y5061270D01*
X10221940D01*
Y5067460D01*
Y5073730D01*
D02*
G37*
G36*
Y5058730D02*
X10198860D01*
Y5052460D01*
Y5046270D01*
X10221940D01*
Y5052460D01*
Y5058730D01*
D02*
G37*
G36*
X10259871Y5026270D02*
X10239330D01*
Y5022072D01*
X10234620D01*
X10233828Y5021914D01*
X10233155Y5021465D01*
X10233155Y5021465D01*
X10231187Y5019496D01*
X10229850Y5019762D01*
X10228116Y5019417D01*
X10226646Y5018435D01*
X10225663Y5016964D01*
X10225318Y5015230D01*
X10225663Y5013496D01*
X10226646Y5012025D01*
X10228116Y5011043D01*
X10229850Y5010698D01*
X10231584Y5011043D01*
X10233055Y5012025D01*
X10234037Y5013496D01*
X10234382Y5015230D01*
X10234116Y5016566D01*
X10235479Y5017928D01*
X10239330D01*
Y5013730D01*
X10259871D01*
Y5026270D01*
D02*
G37*
G36*
Y5011270D02*
X10239330D01*
Y5007072D01*
X10232954D01*
X10231584Y5007987D01*
X10229850Y5008332D01*
X10228116Y5007987D01*
X10226646Y5007005D01*
X10225663Y5005534D01*
X10225318Y5003800D01*
X10225663Y5002066D01*
X10226646Y5000595D01*
X10228116Y4999613D01*
X10229850Y4999268D01*
X10231584Y4999613D01*
X10233055Y5000595D01*
X10234037Y5002066D01*
X10234208Y5002928D01*
X10239330D01*
Y4998730D01*
X10259871D01*
Y5011270D01*
D02*
G37*
G36*
X10221940Y5018730D02*
X10198860D01*
Y5012460D01*
Y5006270D01*
X10221940D01*
Y5012460D01*
Y5018730D01*
D02*
G37*
G36*
Y5003730D02*
X10198860D01*
Y4997460D01*
Y4991270D01*
X10221940D01*
Y4997460D01*
Y5003730D01*
D02*
G37*
G36*
X10256100Y4996344D02*
X10243101D01*
X10241628Y4996051D01*
X10240382Y4995218D01*
X10239549Y4993971D01*
X10239256Y4992500D01*
Y4991826D01*
X10238715Y4991465D01*
X10237882Y4990632D01*
X10233812D01*
X10233055Y4991765D01*
X10231584Y4992747D01*
X10229850Y4993092D01*
X10228116Y4992747D01*
X10226646Y4991765D01*
X10225663Y4990294D01*
X10225318Y4988560D01*
X10225663Y4986826D01*
X10226646Y4985355D01*
X10228116Y4984373D01*
X10229850Y4984028D01*
X10231584Y4984373D01*
X10233055Y4985355D01*
X10233812Y4986488D01*
X10238740D01*
X10238740Y4986488D01*
X10238834Y4986507D01*
X10239549Y4986029D01*
X10240382Y4984782D01*
X10241628Y4983949D01*
X10243101Y4983656D01*
X10256100D01*
X10257571Y4983949D01*
X10258818Y4984782D01*
X10259651Y4986029D01*
X10259944Y4987500D01*
Y4992500D01*
X10259651Y4993971D01*
X10258818Y4995218D01*
X10257571Y4996051D01*
X10256100Y4996344D01*
D02*
G37*
G36*
X10221940Y4988730D02*
X10211670D01*
Y4982460D01*
X10221940D01*
Y4988730D01*
D02*
G37*
G36*
X10209130D02*
X10198860D01*
Y4982460D01*
X10209130D01*
Y4988730D01*
D02*
G37*
G36*
X10221940Y4972540D02*
X10211670D01*
Y4966270D01*
X10221940D01*
Y4972540D01*
D02*
G37*
G36*
X10259871Y4971270D02*
X10239330D01*
Y4962870D01*
X10237882Y4961422D01*
X10233812D01*
X10233055Y4962555D01*
X10231584Y4963537D01*
X10229850Y4963882D01*
X10228116Y4963537D01*
X10226646Y4962555D01*
X10225663Y4961084D01*
X10225318Y4959350D01*
X10225663Y4957616D01*
X10226646Y4956145D01*
X10228116Y4955163D01*
X10229850Y4954818D01*
X10231584Y4955163D01*
X10233055Y4956145D01*
X10233812Y4957278D01*
X10238539D01*
X10238852Y4956993D01*
X10239260Y4956241D01*
X10239330Y4956101D01*
X10239330Y4955903D01*
X10239330Y4955143D01*
Y4950170D01*
X10237882Y4948722D01*
X10233812D01*
X10233055Y4949855D01*
X10231584Y4950837D01*
X10229850Y4951182D01*
X10228116Y4950837D01*
X10226646Y4949855D01*
X10225663Y4948384D01*
X10225318Y4946650D01*
X10225663Y4944916D01*
X10226646Y4943445D01*
X10228116Y4942463D01*
X10229850Y4942118D01*
X10231584Y4942463D01*
X10233055Y4943445D01*
X10233812Y4944578D01*
X10238740D01*
X10238740Y4944578D01*
X10239330Y4944094D01*
Y4943730D01*
X10259871D01*
Y4956270D01*
X10240679D01*
X10240477Y4956512D01*
D01*
X10240468Y4956522D01*
X10240416Y4956621D01*
X10240205Y4957885D01*
X10241050Y4958730D01*
X10259871D01*
Y4971270D01*
D02*
G37*
G36*
X10221940Y4963730D02*
X10198860D01*
Y4957460D01*
Y4951270D01*
X10221940D01*
Y4957460D01*
Y4963730D01*
D02*
G37*
G36*
X10256100Y4941344D02*
X10243101D01*
X10241628Y4941051D01*
X10240382Y4940218D01*
X10239549Y4938971D01*
X10239256Y4937500D01*
Y4937072D01*
X10233110D01*
X10233055Y4937155D01*
X10231584Y4938137D01*
X10229850Y4938482D01*
X10228116Y4938137D01*
X10226646Y4937155D01*
X10225663Y4935684D01*
X10225318Y4933950D01*
X10225663Y4932216D01*
X10226646Y4930745D01*
X10228116Y4929763D01*
X10229850Y4929418D01*
X10231584Y4929763D01*
X10233055Y4930745D01*
X10234037Y4932216D01*
X10234179Y4932928D01*
X10239256D01*
Y4932500D01*
X10239549Y4931029D01*
X10240382Y4929782D01*
X10241628Y4928949D01*
X10243101Y4928656D01*
X10256100D01*
X10257571Y4928949D01*
X10258818Y4929782D01*
X10259651Y4931029D01*
X10259944Y4932500D01*
Y4937500D01*
X10259651Y4938971D01*
X10258818Y4940218D01*
X10257571Y4941051D01*
X10256100Y4941344D01*
D02*
G37*
G36*
X10221940Y4948730D02*
X10198860D01*
Y4942460D01*
Y4936270D01*
X10221940D01*
Y4942460D01*
Y4948730D01*
D02*
G37*
G36*
Y4933730D02*
X10211670D01*
Y4927460D01*
X10221940D01*
Y4933730D01*
D02*
G37*
G36*
X10209130D02*
X10198860D01*
Y4927460D01*
X10209130D01*
Y4933730D01*
D02*
G37*
G36*
X10221940Y4917540D02*
X10211670D01*
Y4911270D01*
X10221940D01*
Y4917540D01*
D02*
G37*
G36*
X10209130D02*
X10198860D01*
Y4911270D01*
X10209130D01*
Y4917540D01*
D02*
G37*
G36*
X10221940Y4908730D02*
X10198860D01*
Y4902460D01*
Y4896270D01*
X10221940D01*
Y4902460D01*
Y4908730D01*
D02*
G37*
G36*
X10259871Y4916270D02*
X10239330D01*
Y4908260D01*
X10231187Y4900116D01*
X10229850Y4900382D01*
X10228116Y4900037D01*
X10226646Y4899055D01*
X10225663Y4897584D01*
X10225318Y4895850D01*
X10225663Y4894116D01*
X10226646Y4892645D01*
X10228116Y4891663D01*
X10229850Y4891318D01*
X10231584Y4891663D01*
X10233055Y4892645D01*
X10234037Y4894116D01*
X10234382Y4895850D01*
X10234116Y4897186D01*
X10238060Y4901130D01*
X10239330Y4900604D01*
X10239330Y4900277D01*
X10239330Y4900277D01*
X10239330Y4900276D01*
Y4895560D01*
X10231187Y4887416D01*
X10229850Y4887682D01*
X10228116Y4887337D01*
X10226646Y4886355D01*
X10225663Y4884884D01*
X10225318Y4883150D01*
X10225663Y4881416D01*
X10226646Y4879945D01*
X10228116Y4878963D01*
X10229850Y4878618D01*
X10231584Y4878963D01*
X10233055Y4879945D01*
X10234037Y4881416D01*
X10234382Y4883150D01*
X10234116Y4884486D01*
X10238092Y4888462D01*
X10239330Y4888730D01*
Y4888730D01*
X10239330Y4888730D01*
X10259871D01*
Y4901270D01*
X10240325Y4901270D01*
X10240323D01*
X10240323D01*
X10239996Y4901270D01*
X10239780Y4901792D01*
X10239470Y4902540D01*
X10240660Y4903730D01*
X10259871D01*
Y4916270D01*
D02*
G37*
G36*
X10221940Y4893730D02*
X10198860D01*
Y4887460D01*
Y4881270D01*
X10221940D01*
Y4887460D01*
Y4893730D01*
D02*
G37*
G36*
Y4878730D02*
X10211670D01*
Y4872460D01*
X10221940D01*
Y4878730D01*
D02*
G37*
G36*
X10209130D02*
X10198860D01*
Y4872460D01*
X10209130D01*
Y4878730D01*
D02*
G37*
G36*
X10259871Y4846270D02*
X10239330D01*
Y4842072D01*
X10234216D01*
X10234037Y4842974D01*
X10233055Y4844445D01*
X10231584Y4845427D01*
X10229850Y4845772D01*
X10228116Y4845427D01*
X10226646Y4844445D01*
X10225663Y4842974D01*
X10225318Y4841240D01*
X10225663Y4839506D01*
X10226646Y4838035D01*
X10228116Y4837053D01*
X10229850Y4836708D01*
X10231584Y4837053D01*
X10232894Y4837928D01*
X10239330D01*
Y4833730D01*
X10259871D01*
Y4846270D01*
D02*
G37*
G36*
X10221940Y4853730D02*
X10198860D01*
Y4847460D01*
Y4841270D01*
X10221940D01*
Y4847460D01*
Y4853730D01*
D02*
G37*
G36*
Y4838730D02*
X10198860D01*
Y4832460D01*
Y4826270D01*
X10221940D01*
Y4832460D01*
Y4838730D01*
D02*
G37*
G36*
X10229850Y4831802D02*
X10228116Y4831457D01*
X10226646Y4830475D01*
X10225663Y4829004D01*
X10225318Y4827270D01*
X10225663Y4825536D01*
X10226646Y4824065D01*
X10228116Y4823083D01*
X10229850Y4822738D01*
X10231464Y4823059D01*
X10232120Y4822928D01*
X10232120Y4822928D01*
X10239256D01*
Y4822500D01*
X10239549Y4821029D01*
X10240382Y4819782D01*
X10241628Y4818949D01*
X10243101Y4818656D01*
X10256100D01*
X10257571Y4818949D01*
X10258818Y4819782D01*
X10259651Y4821029D01*
X10259944Y4822500D01*
Y4827500D01*
X10259651Y4828971D01*
X10258818Y4830218D01*
X10257571Y4831052D01*
X10256100Y4831344D01*
X10243101D01*
X10241628Y4831052D01*
X10240382Y4830218D01*
X10239549Y4828971D01*
X10239256Y4827500D01*
Y4827072D01*
X10234545D01*
X10234382Y4827270D01*
X10234037Y4829004D01*
X10233055Y4830475D01*
X10231584Y4831457D01*
X10229850Y4831802D01*
D02*
G37*
G36*
X10288730Y4826880D02*
X10287347Y4826699D01*
X10284877Y4825675D01*
X10282754Y4824046D01*
X10281125Y4821924D01*
X10280101Y4819453D01*
X10279919Y4818070D01*
X10288730D01*
Y4826880D01*
D02*
G37*
G36*
X10171270D02*
Y4818070D01*
X10180081D01*
X10179899Y4819453D01*
X10178875Y4821924D01*
X10177246Y4824046D01*
X10175124Y4825675D01*
X10172653Y4826699D01*
X10171270Y4826880D01*
D02*
G37*
G36*
X10168730D02*
X10167347Y4826699D01*
X10164876Y4825675D01*
X10162754Y4824046D01*
X10161125Y4821924D01*
X10160101Y4819453D01*
X10159919Y4818070D01*
X10168730D01*
Y4826880D01*
D02*
G37*
G36*
X10221940Y4823730D02*
X10211670D01*
Y4817460D01*
X10221940D01*
Y4823730D01*
D02*
G37*
G36*
X10209130D02*
X10198860D01*
Y4817460D01*
X10209130D01*
Y4823730D01*
D02*
G37*
G36*
X10288730Y4815530D02*
X10279919D01*
X10280101Y4814148D01*
X10281125Y4811676D01*
X10282754Y4809554D01*
X10284877Y4807925D01*
X10287347Y4806902D01*
X10288730Y4806720D01*
Y4815530D01*
D02*
G37*
G36*
X10180081D02*
X10171270D01*
Y4806720D01*
X10172653Y4806902D01*
X10175124Y4807925D01*
X10177246Y4809554D01*
X10178875Y4811676D01*
X10179899Y4814148D01*
X10180081Y4815530D01*
D02*
G37*
G36*
X10168730D02*
X10159919D01*
X10160101Y4814148D01*
X10161125Y4811676D01*
X10162754Y4809554D01*
X10164876Y4807925D01*
X10167347Y4806902D01*
X10168730Y4806720D01*
Y4815530D01*
D02*
G37*
G36*
X10221940Y4807540D02*
X10211670D01*
Y4801270D01*
X10221940D01*
Y4807540D01*
D02*
G37*
G36*
X10209130D02*
X10198860D01*
Y4801270D01*
X10209130D01*
Y4807540D01*
D02*
G37*
G36*
X10259871Y4806270D02*
X10239330D01*
Y4799040D01*
X10233856Y4793566D01*
X10233055Y4793645D01*
X10231584Y4794627D01*
X10229850Y4794972D01*
X10228116Y4794627D01*
X10226646Y4793645D01*
X10225663Y4792174D01*
X10225318Y4790440D01*
X10225663Y4788706D01*
X10226646Y4787235D01*
X10228116Y4786253D01*
X10229850Y4785908D01*
X10231584Y4786253D01*
X10233055Y4787235D01*
X10233835Y4788403D01*
X10234453Y4788526D01*
X10235125Y4788975D01*
X10239880Y4793730D01*
X10259871D01*
Y4806270D01*
D02*
G37*
G36*
X10288730Y4801481D02*
X10287347Y4801299D01*
X10284877Y4800275D01*
X10282754Y4798646D01*
X10281125Y4796524D01*
X10280101Y4794052D01*
X10279919Y4792670D01*
X10288730D01*
Y4801481D01*
D02*
G37*
G36*
X10171270D02*
Y4792670D01*
X10180081D01*
X10179899Y4794052D01*
X10178875Y4796524D01*
X10177246Y4798646D01*
X10175124Y4800275D01*
X10172653Y4801299D01*
X10171270Y4801481D01*
D02*
G37*
G36*
X10168730D02*
X10167347Y4801299D01*
X10164876Y4800275D01*
X10162754Y4798646D01*
X10161125Y4796524D01*
X10160101Y4794052D01*
X10159919Y4792670D01*
X10168730D01*
Y4801481D01*
D02*
G37*
G36*
X10221940Y4798730D02*
X10198860D01*
Y4792460D01*
Y4786270D01*
X10221940D01*
Y4792460D01*
Y4798730D01*
D02*
G37*
G36*
X10288730Y4790130D02*
X10279919D01*
X10280101Y4788748D01*
X10281125Y4786276D01*
X10282754Y4784154D01*
X10284877Y4782525D01*
X10287347Y4781501D01*
X10288730Y4781320D01*
Y4790130D01*
D02*
G37*
G36*
X10180081D02*
X10171270D01*
Y4781320D01*
X10172653Y4781501D01*
X10175124Y4782525D01*
X10177246Y4784154D01*
X10178875Y4786276D01*
X10179899Y4788748D01*
X10180081Y4790130D01*
D02*
G37*
G36*
X10168730D02*
X10159919D01*
X10160101Y4788748D01*
X10161125Y4786276D01*
X10162754Y4784154D01*
X10164876Y4782525D01*
X10167347Y4781501D01*
X10168730Y4781320D01*
Y4790130D01*
D02*
G37*
G36*
X10259871Y4791270D02*
X10239330D01*
Y4783800D01*
X10235342Y4779812D01*
X10233812D01*
X10233055Y4780945D01*
X10231584Y4781927D01*
X10229850Y4782272D01*
X10228116Y4781927D01*
X10226646Y4780945D01*
X10225663Y4779474D01*
X10225318Y4777740D01*
X10225663Y4776006D01*
X10226646Y4774535D01*
X10228116Y4773553D01*
X10229850Y4773208D01*
X10231584Y4773553D01*
X10233055Y4774535D01*
X10233812Y4775668D01*
X10236200D01*
X10236200Y4775668D01*
X10236993Y4775826D01*
X10237665Y4776275D01*
X10240120Y4778730D01*
X10259871D01*
Y4791270D01*
D02*
G37*
G36*
X10221940Y4783730D02*
X10198860D01*
Y4777460D01*
Y4771270D01*
X10221940D01*
Y4777460D01*
Y4783730D01*
D02*
G37*
G36*
X10256100Y4776344D02*
X10243101D01*
X10241628Y4776051D01*
X10240382Y4775218D01*
X10239549Y4773971D01*
X10239256Y4772500D01*
Y4767500D01*
X10238038Y4767112D01*
X10233812D01*
X10233055Y4768245D01*
X10231584Y4769227D01*
X10229850Y4769572D01*
X10228116Y4769227D01*
X10226646Y4768245D01*
X10225663Y4766774D01*
X10225318Y4765040D01*
X10225663Y4763306D01*
X10226646Y4761835D01*
X10228116Y4760853D01*
X10229850Y4760508D01*
X10231584Y4760853D01*
X10233055Y4761835D01*
X10233812Y4762968D01*
X10240010D01*
X10240010Y4762968D01*
X10240803Y4763126D01*
X10241475Y4763575D01*
X10241813Y4763912D01*
X10243101Y4763656D01*
X10256100D01*
X10257571Y4763949D01*
X10258818Y4764782D01*
X10259651Y4766029D01*
X10259944Y4767500D01*
Y4772500D01*
X10259651Y4773971D01*
X10258818Y4775218D01*
X10257571Y4776051D01*
X10256100Y4776344D01*
D02*
G37*
G36*
X10221940Y4768730D02*
X10211670D01*
Y4762460D01*
X10221940D01*
Y4768730D01*
D02*
G37*
G36*
X10209130D02*
X10198860D01*
Y4762460D01*
X10209130D01*
Y4768730D01*
D02*
G37*
G36*
X10259871Y4751270D02*
X10239330D01*
Y4747072D01*
X10232430D01*
X10231584Y4747637D01*
X10229850Y4747982D01*
X10228116Y4747637D01*
X10226646Y4746655D01*
X10225663Y4745184D01*
X10225318Y4743450D01*
X10225663Y4741716D01*
X10226646Y4740245D01*
X10228116Y4739263D01*
X10229850Y4738918D01*
X10231584Y4739263D01*
X10233055Y4740245D01*
X10234037Y4741716D01*
X10234279Y4742928D01*
X10239330D01*
Y4738730D01*
X10259871D01*
Y4751270D01*
D02*
G37*
G36*
X10221940Y4752540D02*
X10211670D01*
Y4746270D01*
X10221940D01*
Y4752540D01*
D02*
G37*
G36*
X10209130D02*
X10198860D01*
Y4746270D01*
X10209130D01*
Y4752540D01*
D02*
G37*
G36*
X10259871Y4736270D02*
X10239330D01*
Y4732072D01*
X10234119D01*
X10234037Y4732484D01*
X10233055Y4733955D01*
X10231584Y4734937D01*
X10229850Y4735282D01*
X10228116Y4734937D01*
X10226646Y4733955D01*
X10225663Y4732484D01*
X10225318Y4730750D01*
X10225663Y4729016D01*
X10226646Y4727545D01*
X10228116Y4726563D01*
X10229850Y4726218D01*
X10231584Y4726563D01*
X10233055Y4727545D01*
X10233311Y4727928D01*
X10239330D01*
Y4723730D01*
X10259871D01*
Y4736270D01*
D02*
G37*
G36*
X10221940Y4743730D02*
X10198860D01*
Y4737460D01*
Y4731270D01*
X10221940D01*
Y4737460D01*
Y4743730D01*
D02*
G37*
G36*
Y4728730D02*
X10198860D01*
Y4722460D01*
Y4716270D01*
X10221940D01*
Y4722460D01*
Y4728730D01*
D02*
G37*
G36*
X10229850Y4722582D02*
X10228116Y4722237D01*
X10226646Y4721255D01*
X10225663Y4719784D01*
X10225318Y4718050D01*
X10225663Y4716316D01*
X10226646Y4714845D01*
X10228116Y4713863D01*
X10229850Y4713518D01*
X10231187Y4713784D01*
X10231435Y4713535D01*
X10231435Y4713535D01*
X10232107Y4713086D01*
X10232900Y4712928D01*
X10232900Y4712928D01*
X10239256D01*
Y4712500D01*
X10239549Y4711029D01*
X10240382Y4709782D01*
X10241628Y4708949D01*
X10243101Y4708656D01*
X10256100D01*
X10257571Y4708949D01*
X10258818Y4709782D01*
X10259651Y4711029D01*
X10259944Y4712500D01*
Y4717500D01*
X10259651Y4718971D01*
X10258818Y4720218D01*
X10257571Y4721051D01*
X10256100Y4721344D01*
X10243101D01*
X10241628Y4721051D01*
X10240382Y4720218D01*
X10239549Y4718971D01*
X10239256Y4717500D01*
Y4717072D01*
X10235185D01*
X10234382Y4718050D01*
X10234037Y4719784D01*
X10233055Y4721255D01*
X10231584Y4722237D01*
X10229850Y4722582D01*
D02*
G37*
G36*
X10221940Y4713730D02*
X10211670D01*
Y4707460D01*
X10221940D01*
Y4713730D01*
D02*
G37*
G36*
X10209130D02*
X10198860D01*
Y4707460D01*
X10209130D01*
Y4713730D01*
D02*
G37*
G36*
X10221940Y4697540D02*
X10211670D01*
Y4691270D01*
X10221940D01*
Y4697540D01*
D02*
G37*
G36*
X10209130D02*
X10198860D01*
Y4691270D01*
X10209130D01*
Y4697540D01*
D02*
G37*
G36*
X10259871Y4696270D02*
X10239330D01*
Y4691958D01*
X10239107Y4691914D01*
X10238435Y4691465D01*
X10238434Y4691465D01*
X10231187Y4684216D01*
X10229850Y4684482D01*
X10228116Y4684137D01*
X10226646Y4683155D01*
X10225663Y4681684D01*
X10225318Y4679950D01*
X10225663Y4678216D01*
X10226646Y4676745D01*
X10228116Y4675763D01*
X10229850Y4675418D01*
X10231584Y4675763D01*
X10233055Y4676745D01*
X10234037Y4678216D01*
X10234382Y4679950D01*
X10234116Y4681286D01*
X10238157Y4685327D01*
X10239330Y4684841D01*
Y4683730D01*
X10259871D01*
Y4696270D01*
D02*
G37*
G36*
Y4681270D02*
X10239330D01*
Y4677072D01*
X10237600D01*
X10237600Y4677072D01*
X10236807Y4676914D01*
X10236135Y4676465D01*
X10236135Y4676465D01*
X10231187Y4671516D01*
X10229850Y4671782D01*
X10228116Y4671437D01*
X10226646Y4670455D01*
X10225663Y4668984D01*
X10225318Y4667250D01*
X10225663Y4665516D01*
X10226646Y4664045D01*
X10228116Y4663063D01*
X10229850Y4662718D01*
X10231584Y4663063D01*
X10233055Y4664045D01*
X10234037Y4665516D01*
X10234382Y4667250D01*
X10234116Y4668586D01*
X10238060Y4672530D01*
X10239330Y4672004D01*
Y4668730D01*
X10259871D01*
Y4681270D01*
D02*
G37*
G36*
X10221940Y4688730D02*
X10198860D01*
Y4682460D01*
Y4676270D01*
X10221940D01*
Y4682460D01*
Y4688730D01*
D02*
G37*
G36*
X10256100Y4666344D02*
X10243101D01*
X10241628Y4666051D01*
X10240382Y4665218D01*
X10239549Y4663971D01*
X10239256Y4662500D01*
Y4662072D01*
X10234030D01*
X10234030Y4662072D01*
X10233237Y4661914D01*
X10232565Y4661465D01*
X10231187Y4660086D01*
X10229850Y4660352D01*
X10228116Y4660007D01*
X10226646Y4659025D01*
X10225663Y4657554D01*
X10225318Y4655820D01*
X10225663Y4654086D01*
X10226646Y4652615D01*
X10228116Y4651633D01*
X10229850Y4651288D01*
X10231584Y4651633D01*
X10233055Y4652615D01*
X10234037Y4654086D01*
X10234382Y4655820D01*
X10234155Y4656962D01*
X10235012Y4657928D01*
X10239256D01*
Y4657500D01*
X10239549Y4656029D01*
X10240382Y4654782D01*
X10241628Y4653949D01*
X10243101Y4653656D01*
X10256100D01*
X10257571Y4653949D01*
X10258818Y4654782D01*
X10259651Y4656029D01*
X10259944Y4657500D01*
Y4662500D01*
X10259651Y4663971D01*
X10258818Y4665218D01*
X10257571Y4666051D01*
X10256100Y4666344D01*
D02*
G37*
G36*
X10221940Y4673730D02*
X10198860D01*
Y4667460D01*
Y4661270D01*
X10221940D01*
Y4667460D01*
Y4673730D01*
D02*
G37*
G36*
Y4658730D02*
X10211670D01*
Y4652460D01*
X10221940D01*
Y4658730D01*
D02*
G37*
G36*
X10209130D02*
X10198860D01*
Y4652460D01*
X10209130D01*
Y4658730D01*
D02*
G37*
G36*
X10259871Y4641270D02*
X10239330D01*
Y4637072D01*
X10234069D01*
X10234037Y4637234D01*
X10233055Y4638705D01*
X10231584Y4639687D01*
X10229850Y4640032D01*
X10228116Y4639687D01*
X10226646Y4638705D01*
X10225663Y4637234D01*
X10225318Y4635500D01*
X10225663Y4633766D01*
X10226646Y4632295D01*
X10228116Y4631313D01*
X10229850Y4630968D01*
X10231584Y4631313D01*
X10233055Y4632295D01*
X10233478Y4632928D01*
X10239330D01*
Y4628730D01*
X10259871D01*
Y4641270D01*
D02*
G37*
G36*
X10221940Y4642540D02*
X10211670D01*
Y4636270D01*
X10221940D01*
Y4642540D01*
D02*
G37*
G36*
X10209130D02*
X10198860D01*
Y4636270D01*
X10209130D01*
Y4642540D01*
D02*
G37*
G36*
X10221940Y4633730D02*
X10198860D01*
Y4627460D01*
Y4621270D01*
X10221940D01*
Y4627460D01*
Y4633730D01*
D02*
G37*
G36*
X10229850Y4627332D02*
X10228116Y4626987D01*
X10226646Y4626005D01*
X10225663Y4624534D01*
X10225318Y4622800D01*
X10225663Y4621066D01*
X10226646Y4619595D01*
X10228116Y4618613D01*
X10229850Y4618268D01*
X10231187Y4618534D01*
X10231857Y4618086D01*
X10232650Y4617928D01*
X10232650Y4617928D01*
X10239330D01*
Y4613730D01*
X10259871D01*
Y4626270D01*
X10239330D01*
Y4622072D01*
X10234980D01*
X10234382Y4622800D01*
X10234037Y4624534D01*
X10233055Y4626005D01*
X10231584Y4626987D01*
X10229850Y4627332D01*
D02*
G37*
G36*
X10221940Y4618730D02*
X10198860D01*
Y4612460D01*
Y4606270D01*
X10221940D01*
Y4612460D01*
Y4618730D01*
D02*
G37*
G36*
X10229850Y4614632D02*
X10228116Y4614287D01*
X10226646Y4613305D01*
X10225663Y4611834D01*
X10225318Y4610100D01*
X10225663Y4608366D01*
X10226646Y4606895D01*
X10228116Y4605913D01*
X10229850Y4605568D01*
X10231187Y4605834D01*
X10233484Y4603535D01*
X10233484Y4603535D01*
X10234157Y4603086D01*
X10234950Y4602928D01*
X10234950Y4602928D01*
X10239256D01*
Y4602500D01*
X10239549Y4601029D01*
X10240382Y4599782D01*
X10241628Y4598949D01*
X10243101Y4598656D01*
X10256100D01*
X10257571Y4598949D01*
X10258818Y4599782D01*
X10259651Y4601029D01*
X10259944Y4602500D01*
Y4607500D01*
X10259651Y4608971D01*
X10258818Y4610218D01*
X10257571Y4611051D01*
X10256100Y4611344D01*
X10243101D01*
X10241628Y4611051D01*
X10240382Y4610218D01*
X10239549Y4608971D01*
X10239256Y4607500D01*
Y4607072D01*
X10235808D01*
X10234116Y4608764D01*
X10234382Y4610100D01*
X10234037Y4611834D01*
X10233055Y4613305D01*
X10231584Y4614287D01*
X10229850Y4614632D01*
D02*
G37*
G36*
X10221940Y4603730D02*
X10211670D01*
Y4597460D01*
X10221940D01*
Y4603730D01*
D02*
G37*
G36*
X10209130D02*
X10198860D01*
Y4597460D01*
X10209130D01*
Y4603730D01*
D02*
G37*
G36*
X10259871Y4586270D02*
X10239330D01*
Y4582072D01*
X10237850D01*
X10237850Y4582072D01*
X10237057Y4581914D01*
X10236385Y4581465D01*
X10236385Y4581465D01*
X10231187Y4576266D01*
X10229850Y4576532D01*
X10228116Y4576187D01*
X10226646Y4575205D01*
X10225663Y4573734D01*
X10225318Y4572000D01*
X10225663Y4570266D01*
X10226646Y4568795D01*
X10228116Y4567813D01*
X10229850Y4567468D01*
X10231584Y4567813D01*
X10233055Y4568795D01*
X10234037Y4570266D01*
X10234382Y4572000D01*
X10234116Y4573336D01*
X10238060Y4577280D01*
X10239330Y4576754D01*
Y4573730D01*
X10259871D01*
Y4586270D01*
D02*
G37*
G36*
X10221940Y4587540D02*
X10211670D01*
Y4581270D01*
X10221940D01*
Y4587540D01*
D02*
G37*
G36*
X10209130D02*
X10198860D01*
Y4581270D01*
X10209130D01*
Y4587540D01*
D02*
G37*
G36*
X10259871Y4571270D02*
X10239330D01*
Y4567072D01*
X10235550D01*
X10235550Y4567072D01*
X10234757Y4566914D01*
X10234085Y4566465D01*
X10234084Y4566465D01*
X10231187Y4563566D01*
X10229850Y4563832D01*
X10228116Y4563487D01*
X10226646Y4562505D01*
X10225663Y4561034D01*
X10225318Y4559300D01*
X10225663Y4557566D01*
X10226646Y4556095D01*
X10228116Y4555113D01*
X10229850Y4554768D01*
X10231584Y4555113D01*
X10233055Y4556095D01*
X10234037Y4557566D01*
X10234382Y4559300D01*
X10234116Y4560636D01*
X10236408Y4562928D01*
X10239330D01*
Y4558730D01*
X10259871D01*
Y4571270D01*
D02*
G37*
G36*
X10221940Y4578730D02*
X10198860D01*
Y4572460D01*
Y4566270D01*
X10221940D01*
Y4572460D01*
Y4578730D01*
D02*
G37*
G36*
Y4563730D02*
X10198860D01*
Y4557460D01*
Y4551270D01*
X10221940D01*
Y4557460D01*
Y4563730D01*
D02*
G37*
G36*
X10256100Y4556344D02*
X10243101D01*
X10241628Y4556051D01*
X10240382Y4555218D01*
X10239549Y4553971D01*
X10239256Y4552500D01*
Y4552072D01*
X10234520D01*
X10233727Y4551914D01*
X10233055Y4551465D01*
X10233055Y4551465D01*
X10231187Y4549596D01*
X10229850Y4549862D01*
X10228116Y4549517D01*
X10226646Y4548535D01*
X10225663Y4547064D01*
X10225318Y4545330D01*
X10225663Y4543596D01*
X10226646Y4542125D01*
X10228116Y4541143D01*
X10229850Y4540798D01*
X10231584Y4541143D01*
X10233055Y4542125D01*
X10234037Y4543596D01*
X10234382Y4545330D01*
X10234116Y4546666D01*
X10235378Y4547928D01*
X10239256D01*
Y4547500D01*
X10239549Y4546029D01*
X10240382Y4544782D01*
X10241628Y4543949D01*
X10243101Y4543656D01*
X10256100D01*
X10257571Y4543949D01*
X10258818Y4544782D01*
X10259651Y4546029D01*
X10259944Y4547500D01*
Y4552500D01*
X10259651Y4553971D01*
X10258818Y4555218D01*
X10257571Y4556051D01*
X10256100Y4556344D01*
D02*
G37*
G36*
X10221940Y4548730D02*
X10211670D01*
Y4542460D01*
X10221940D01*
Y4548730D01*
D02*
G37*
G36*
X10209130D02*
X10198860D01*
Y4542460D01*
X10209130D01*
Y4548730D01*
D02*
G37*
G36*
X10259871Y4531270D02*
X10239330D01*
Y4527072D01*
X10232864D01*
X10231584Y4527927D01*
X10229850Y4528272D01*
X10228116Y4527927D01*
X10226646Y4526945D01*
X10225663Y4525474D01*
X10225318Y4523740D01*
X10225663Y4522006D01*
X10226646Y4520535D01*
X10228116Y4519553D01*
X10229850Y4519208D01*
X10231584Y4519553D01*
X10233055Y4520535D01*
X10234037Y4522006D01*
X10234221Y4522928D01*
X10239330D01*
Y4518730D01*
X10259871D01*
Y4531270D01*
D02*
G37*
G36*
X10221940Y4532540D02*
X10211670D01*
Y4526270D01*
X10221940D01*
Y4532540D01*
D02*
G37*
G36*
X10209130D02*
X10198860D01*
Y4526270D01*
X10209130D01*
Y4532540D01*
D02*
G37*
G36*
X10221940Y4523730D02*
X10198860D01*
Y4517460D01*
Y4511270D01*
X10221940D01*
Y4517460D01*
Y4523730D01*
D02*
G37*
G36*
X10229850Y4516842D02*
X10228116Y4516497D01*
X10226646Y4515515D01*
X10225663Y4514044D01*
X10225318Y4512310D01*
X10225663Y4510576D01*
X10226646Y4509105D01*
X10228116Y4508123D01*
X10229850Y4507778D01*
X10231383Y4508083D01*
X10232160Y4507928D01*
X10232160Y4507928D01*
X10239330D01*
Y4503730D01*
X10259871D01*
Y4516270D01*
X10239330D01*
Y4512072D01*
X10234578D01*
X10234382Y4512310D01*
X10234037Y4514044D01*
X10233055Y4515515D01*
X10231584Y4516497D01*
X10229850Y4516842D01*
D02*
G37*
G36*
X10221940Y4508730D02*
X10198860D01*
Y4502460D01*
Y4496270D01*
X10221940D01*
Y4502460D01*
Y4508730D01*
D02*
G37*
G36*
X10229850Y4504142D02*
X10228116Y4503797D01*
X10226646Y4502815D01*
X10225663Y4501344D01*
X10225318Y4499610D01*
X10225663Y4497876D01*
X10226646Y4496405D01*
X10228116Y4495423D01*
X10229850Y4495078D01*
X10231187Y4495344D01*
X10232995Y4493535D01*
X10232995Y4493535D01*
X10233668Y4493086D01*
X10234460Y4492928D01*
X10234460Y4492928D01*
X10239256D01*
Y4492500D01*
X10239549Y4491029D01*
X10240382Y4489782D01*
X10241628Y4488949D01*
X10243101Y4488656D01*
X10256100D01*
X10257571Y4488949D01*
X10258818Y4489782D01*
X10259651Y4491029D01*
X10259944Y4492500D01*
Y4497500D01*
X10259651Y4498971D01*
X10258818Y4500218D01*
X10257571Y4501051D01*
X10256100Y4501344D01*
X10243101D01*
X10241628Y4501051D01*
X10240382Y4500218D01*
X10239549Y4498971D01*
X10239256Y4497500D01*
Y4497072D01*
X10235319D01*
X10234116Y4498274D01*
X10234382Y4499610D01*
X10234037Y4501344D01*
X10233055Y4502815D01*
X10231584Y4503797D01*
X10229850Y4504142D01*
D02*
G37*
G36*
X10221940Y4493730D02*
X10211670D01*
Y4487460D01*
X10221940D01*
Y4493730D01*
D02*
G37*
G36*
X10209130D02*
X10198860D01*
Y4487460D01*
X10209130D01*
Y4493730D01*
D02*
G37*
G36*
X10221940Y4477540D02*
X10211670D01*
Y4471270D01*
X10221940D01*
Y4477540D01*
D02*
G37*
G36*
X10209130D02*
X10198860D01*
Y4471270D01*
X10209130D01*
Y4477540D01*
D02*
G37*
G36*
X10259871Y4476270D02*
X10239330D01*
Y4464534D01*
X10238378Y4463582D01*
X10233812D01*
X10233055Y4464715D01*
X10231584Y4465697D01*
X10229850Y4466042D01*
X10228116Y4465697D01*
X10226646Y4464715D01*
X10225663Y4463244D01*
X10225318Y4461510D01*
X10225663Y4459776D01*
X10226646Y4458305D01*
X10228116Y4457323D01*
X10229850Y4456978D01*
X10231584Y4457323D01*
X10233055Y4458305D01*
X10233812Y4459438D01*
X10239236D01*
X10239236Y4459438D01*
X10239330Y4459361D01*
Y4457072D01*
X10237310D01*
X10237310Y4457072D01*
X10236517Y4456914D01*
X10235845Y4456465D01*
X10235845Y4456465D01*
X10231187Y4451806D01*
X10229850Y4452072D01*
X10228116Y4451727D01*
X10226646Y4450745D01*
X10225663Y4449274D01*
X10225318Y4447540D01*
X10225663Y4445806D01*
X10226646Y4444335D01*
X10228116Y4443353D01*
X10229850Y4443008D01*
X10231584Y4443353D01*
X10233055Y4444335D01*
X10234037Y4445806D01*
X10234382Y4447540D01*
X10234116Y4448876D01*
X10238060Y4452820D01*
X10239330Y4452667D01*
Y4448730D01*
X10259871D01*
Y4461270D01*
X10243585D01*
X10243099Y4462443D01*
X10244386Y4463730D01*
X10259871D01*
Y4476270D01*
D02*
G37*
G36*
X10221940Y4468730D02*
X10198860D01*
Y4462460D01*
Y4456270D01*
X10221940D01*
Y4462460D01*
Y4468730D01*
D02*
G37*
G36*
X10256100Y4446344D02*
X10243101D01*
X10241628Y4446052D01*
X10240382Y4445218D01*
X10239549Y4443971D01*
X10239256Y4442500D01*
Y4442072D01*
X10235010D01*
X10235010Y4442072D01*
X10234218Y4441914D01*
X10233546Y4441465D01*
X10233545Y4441465D01*
X10231187Y4439106D01*
X10229850Y4439372D01*
X10228116Y4439027D01*
X10226646Y4438045D01*
X10225663Y4436574D01*
X10225318Y4434840D01*
X10225663Y4433106D01*
X10226646Y4431635D01*
X10228116Y4430653D01*
X10229850Y4430308D01*
X10231584Y4430653D01*
X10233055Y4431635D01*
X10234037Y4433106D01*
X10234382Y4434840D01*
X10234116Y4436176D01*
X10235869Y4437928D01*
X10239256D01*
Y4437500D01*
X10239549Y4436029D01*
X10240382Y4434782D01*
X10241628Y4433949D01*
X10243101Y4433656D01*
X10256100D01*
X10257571Y4433949D01*
X10258818Y4434782D01*
X10259651Y4436029D01*
X10259944Y4437500D01*
Y4442500D01*
X10259651Y4443971D01*
X10258818Y4445218D01*
X10257571Y4446052D01*
X10256100Y4446344D01*
D02*
G37*
G36*
X10221940Y4453730D02*
X10198860D01*
Y4447460D01*
Y4441270D01*
X10221940D01*
Y4447460D01*
Y4453730D01*
D02*
G37*
G36*
Y4438730D02*
X10211670D01*
Y4432460D01*
X10221940D01*
Y4438730D01*
D02*
G37*
G36*
X10209130D02*
X10198860D01*
Y4432460D01*
X10209130D01*
Y4438730D01*
D02*
G37*
G36*
X10259871Y4421270D02*
X10239330D01*
Y4417072D01*
X10233491D01*
X10233055Y4417725D01*
X10231584Y4418707D01*
X10229850Y4419052D01*
X10228116Y4418707D01*
X10226646Y4417725D01*
X10225663Y4416254D01*
X10225318Y4414520D01*
X10225663Y4412786D01*
X10226646Y4411315D01*
X10228116Y4410333D01*
X10229850Y4409988D01*
X10231584Y4410333D01*
X10233055Y4411315D01*
X10234037Y4412786D01*
X10234066Y4412928D01*
X10239330D01*
Y4408730D01*
X10259871D01*
Y4421270D01*
D02*
G37*
G36*
X10221940Y4422540D02*
X10211670D01*
Y4416270D01*
X10221940D01*
Y4422540D01*
D02*
G37*
G36*
X10209130D02*
X10198860D01*
Y4416270D01*
X10209130D01*
Y4422540D01*
D02*
G37*
G36*
X10259871Y4406270D02*
X10239330D01*
Y4402072D01*
X10234080D01*
X10234037Y4402284D01*
X10233055Y4403755D01*
X10231584Y4404737D01*
X10229850Y4405082D01*
X10228116Y4404737D01*
X10226646Y4403755D01*
X10225663Y4402284D01*
X10225318Y4400550D01*
X10225663Y4398816D01*
X10226646Y4397345D01*
X10228116Y4396363D01*
X10229850Y4396018D01*
X10231584Y4396363D01*
X10233055Y4397345D01*
X10233444Y4397928D01*
X10239330D01*
Y4393730D01*
X10259871D01*
Y4406270D01*
D02*
G37*
G36*
X10221940Y4413730D02*
X10198860D01*
Y4407460D01*
Y4401270D01*
X10221940D01*
Y4407460D01*
Y4413730D01*
D02*
G37*
G36*
Y4398730D02*
X10198860D01*
Y4392460D01*
Y4386270D01*
X10221940D01*
Y4392460D01*
Y4398730D01*
D02*
G37*
G36*
X10229850Y4393652D02*
X10228116Y4393307D01*
X10226646Y4392325D01*
X10225663Y4390854D01*
X10225318Y4389120D01*
X10225663Y4387386D01*
X10226646Y4385915D01*
X10228116Y4384933D01*
X10229850Y4384588D01*
X10231187Y4384854D01*
X10232505Y4383535D01*
X10232505Y4383535D01*
X10233177Y4383086D01*
X10233970Y4382928D01*
X10239256D01*
Y4382500D01*
X10239549Y4381029D01*
X10240382Y4379782D01*
X10241628Y4378949D01*
X10243101Y4378656D01*
X10256100D01*
X10257571Y4378949D01*
X10258818Y4379782D01*
X10259651Y4381029D01*
X10259944Y4382500D01*
Y4387500D01*
X10259651Y4388971D01*
X10258818Y4390218D01*
X10257571Y4391051D01*
X10256100Y4391344D01*
X10243101D01*
X10241628Y4391051D01*
X10240382Y4390218D01*
X10239549Y4388971D01*
X10239256Y4387500D01*
Y4387072D01*
X10235052D01*
X10234174Y4388071D01*
X10234382Y4389120D01*
X10234037Y4390854D01*
X10233055Y4392325D01*
X10231584Y4393307D01*
X10229850Y4393652D01*
D02*
G37*
G36*
X10221940Y4383730D02*
X10211670D01*
Y4377460D01*
X10221940D01*
Y4383730D01*
D02*
G37*
G36*
X10209130D02*
X10198860D01*
Y4377460D01*
X10209130D01*
Y4383730D01*
D02*
G37*
G36*
X10221940Y4367540D02*
X10211670D01*
Y4361270D01*
X10221940D01*
Y4367540D01*
D02*
G37*
G36*
X10209130D02*
X10198860D01*
Y4361270D01*
X10209130D01*
Y4367540D01*
D02*
G37*
G36*
X10259871Y4366270D02*
X10239330D01*
Y4363149D01*
X10238830Y4362072D01*
X10238037Y4361914D01*
X10237365Y4361465D01*
X10231187Y4355286D01*
X10229850Y4355552D01*
X10228116Y4355207D01*
X10226646Y4354225D01*
X10225663Y4352754D01*
X10225318Y4351020D01*
X10225663Y4349286D01*
X10226646Y4347815D01*
X10228116Y4346833D01*
X10229850Y4346488D01*
X10231584Y4346833D01*
X10233055Y4347815D01*
X10234037Y4349286D01*
X10234382Y4351020D01*
X10234116Y4352356D01*
X10238157Y4356397D01*
X10239330Y4355911D01*
Y4353730D01*
X10259871D01*
Y4366270D01*
D02*
G37*
G36*
X10221940Y4358730D02*
X10198860D01*
Y4352460D01*
Y4346270D01*
X10221940D01*
Y4352460D01*
Y4358730D01*
D02*
G37*
G36*
X10259871Y4351270D02*
X10239330D01*
Y4347072D01*
X10236530D01*
X10235737Y4346914D01*
X10235065Y4346465D01*
X10235065Y4346465D01*
X10231187Y4342586D01*
X10229850Y4342852D01*
X10228116Y4342507D01*
X10226646Y4341525D01*
X10225663Y4340054D01*
X10225318Y4338320D01*
X10225663Y4336586D01*
X10226646Y4335115D01*
X10228116Y4334133D01*
X10229850Y4333788D01*
X10231584Y4334133D01*
X10233055Y4335115D01*
X10234037Y4336586D01*
X10234382Y4338320D01*
X10234116Y4339656D01*
X10237388Y4342928D01*
X10239330D01*
Y4338730D01*
X10259871D01*
Y4351270D01*
D02*
G37*
G36*
X10256100Y4336344D02*
X10243101D01*
X10241628Y4336051D01*
X10240382Y4335218D01*
X10239549Y4333971D01*
X10239256Y4332500D01*
Y4332072D01*
X10234230D01*
X10234230Y4332072D01*
X10233437Y4331914D01*
X10232765Y4331465D01*
X10231187Y4329886D01*
X10229850Y4330152D01*
X10228116Y4329807D01*
X10226646Y4328825D01*
X10225663Y4327354D01*
X10225318Y4325620D01*
X10225663Y4323886D01*
X10226646Y4322415D01*
X10228116Y4321433D01*
X10229850Y4321088D01*
X10231584Y4321433D01*
X10233055Y4322415D01*
X10234037Y4323886D01*
X10234382Y4325620D01*
X10234116Y4326956D01*
X10235089Y4327928D01*
X10239256D01*
Y4327500D01*
X10239549Y4326029D01*
X10240382Y4324782D01*
X10241628Y4323949D01*
X10243101Y4323656D01*
X10256100D01*
X10257571Y4323949D01*
X10258818Y4324782D01*
X10259651Y4326029D01*
X10259944Y4327500D01*
Y4332500D01*
X10259651Y4333971D01*
X10258818Y4335218D01*
X10257571Y4336051D01*
X10256100Y4336344D01*
D02*
G37*
G36*
X10221940Y4343730D02*
X10198860D01*
Y4337460D01*
Y4331270D01*
X10221940D01*
Y4337460D01*
Y4343730D01*
D02*
G37*
G36*
Y4328730D02*
X10211670D01*
Y4322460D01*
X10221940D01*
Y4328730D01*
D02*
G37*
G36*
X10209130D02*
X10198860D01*
Y4322460D01*
X10209130D01*
Y4328730D01*
D02*
G37*
G36*
X10259871Y4311270D02*
X10239330D01*
Y4307072D01*
X10233163D01*
X10233055Y4307235D01*
X10231584Y4308217D01*
X10229850Y4308562D01*
X10228116Y4308217D01*
X10226646Y4307235D01*
X10225663Y4305764D01*
X10225318Y4304030D01*
X10225663Y4302296D01*
X10226646Y4300825D01*
X10228116Y4299843D01*
X10229850Y4299498D01*
X10231584Y4299843D01*
X10233055Y4300825D01*
X10234037Y4302296D01*
X10234163Y4302928D01*
X10239330D01*
Y4298730D01*
X10259871D01*
Y4311270D01*
D02*
G37*
G36*
X10221940Y4312540D02*
X10211670D01*
Y4306270D01*
X10221940D01*
Y4312540D01*
D02*
G37*
G36*
X10209130D02*
X10198860D01*
Y4306270D01*
X10209130D01*
Y4312540D01*
D02*
G37*
G36*
X10221940Y4303730D02*
X10198860D01*
Y4297460D01*
Y4291270D01*
X10221940D01*
Y4297460D01*
Y4303730D01*
D02*
G37*
G36*
X10229850Y4297132D02*
X10228116Y4296787D01*
X10226646Y4295805D01*
X10225663Y4294334D01*
X10225318Y4292600D01*
X10225663Y4290866D01*
X10226646Y4289395D01*
X10228116Y4288413D01*
X10229850Y4288068D01*
X10231263Y4288349D01*
X10231657Y4288086D01*
X10232450Y4287928D01*
X10232450Y4287928D01*
X10239330D01*
Y4283730D01*
X10259871D01*
Y4296270D01*
X10239330D01*
Y4292072D01*
X10234816D01*
X10234382Y4292600D01*
X10234037Y4294334D01*
X10233055Y4295805D01*
X10231584Y4296787D01*
X10229850Y4297132D01*
D02*
G37*
G36*
X10221940Y4288730D02*
X10198860D01*
Y4282460D01*
Y4276270D01*
X10221940D01*
Y4282460D01*
Y4288730D01*
D02*
G37*
G36*
X10229850Y4284432D02*
X10228116Y4284087D01*
X10226646Y4283105D01*
X10225663Y4281634D01*
X10225318Y4279900D01*
X10225663Y4278166D01*
X10226646Y4276695D01*
X10228116Y4275713D01*
X10229850Y4275368D01*
X10231187Y4275634D01*
X10233285Y4273535D01*
X10233958Y4273086D01*
X10234750Y4272928D01*
X10234750Y4272928D01*
X10239256D01*
Y4272500D01*
X10239549Y4271029D01*
X10240382Y4269782D01*
X10241628Y4268949D01*
X10243101Y4268656D01*
X10256100D01*
X10257571Y4268949D01*
X10258818Y4269782D01*
X10259651Y4271029D01*
X10259944Y4272500D01*
Y4277500D01*
X10259651Y4278971D01*
X10258818Y4280218D01*
X10257571Y4281051D01*
X10256100Y4281344D01*
X10243101D01*
X10241628Y4281051D01*
X10240382Y4280218D01*
X10239549Y4278971D01*
X10239256Y4277500D01*
Y4277072D01*
X10235609D01*
X10234116Y4278564D01*
X10234382Y4279900D01*
X10234037Y4281634D01*
X10233055Y4283105D01*
X10231584Y4284087D01*
X10229850Y4284432D01*
D02*
G37*
G36*
X10221940Y4273730D02*
X10211670D01*
Y4267460D01*
X10221940D01*
Y4273730D01*
D02*
G37*
G36*
X10209130D02*
X10198860D01*
Y4267460D01*
X10209130D01*
Y4273730D01*
D02*
G37*
G36*
X10259871Y4256270D02*
X10239330D01*
Y4252072D01*
X10238051D01*
X10238050Y4252072D01*
X10237257Y4251914D01*
X10236585Y4251465D01*
X10236585Y4251465D01*
X10231187Y4246066D01*
X10229850Y4246332D01*
X10228116Y4245987D01*
X10226646Y4245005D01*
X10225663Y4243534D01*
X10225318Y4241800D01*
X10225663Y4240066D01*
X10226646Y4238595D01*
X10228116Y4237613D01*
X10229850Y4237268D01*
X10231584Y4237613D01*
X10233055Y4238595D01*
X10234037Y4240066D01*
X10234382Y4241800D01*
X10234116Y4243136D01*
X10238060Y4247080D01*
X10239330Y4246554D01*
Y4243730D01*
X10259871D01*
Y4256270D01*
D02*
G37*
G36*
X10221940Y4257540D02*
X10211670D01*
Y4251270D01*
X10221940D01*
Y4257540D01*
D02*
G37*
G36*
X10209130D02*
X10198860D01*
Y4251270D01*
X10209130D01*
Y4257540D01*
D02*
G37*
G36*
X10259871Y4241270D02*
X10239330D01*
Y4237072D01*
X10237020D01*
X10237020Y4237072D01*
X10236227Y4236914D01*
X10235555Y4236465D01*
X10235555Y4236465D01*
X10231606Y4232516D01*
X10230270Y4232782D01*
X10228536Y4232437D01*
X10227065Y4231455D01*
X10226083Y4229984D01*
X10225738Y4228250D01*
X10226083Y4226516D01*
X10227065Y4225045D01*
X10228536Y4224063D01*
X10230270Y4223718D01*
X10232004Y4224063D01*
X10233475Y4225045D01*
X10234457Y4226516D01*
X10234802Y4228250D01*
X10234536Y4229586D01*
X10237878Y4232928D01*
X10239330D01*
Y4228730D01*
X10259871D01*
Y4241270D01*
D02*
G37*
G36*
X10221940Y4248730D02*
X10198860D01*
Y4242460D01*
Y4236270D01*
X10221940D01*
Y4242460D01*
Y4248730D01*
D02*
G37*
G36*
X10256100Y4226344D02*
X10243101D01*
X10241628Y4226051D01*
X10240382Y4225218D01*
X10239549Y4223971D01*
X10239256Y4222500D01*
Y4222072D01*
X10233450D01*
X10233450Y4222072D01*
X10232657Y4221914D01*
X10231985Y4221465D01*
X10231985Y4221465D01*
X10231187Y4220666D01*
X10229850Y4220932D01*
X10228116Y4220587D01*
X10226646Y4219605D01*
X10225663Y4218134D01*
X10225318Y4216400D01*
X10225663Y4214666D01*
X10226646Y4213195D01*
X10228116Y4212213D01*
X10229850Y4211868D01*
X10231584Y4212213D01*
X10233055Y4213195D01*
X10234037Y4214666D01*
X10234382Y4216400D01*
X10234330Y4216658D01*
X10235373Y4217928D01*
X10239256D01*
Y4217500D01*
X10239549Y4216029D01*
X10240382Y4214782D01*
X10241628Y4213949D01*
X10243101Y4213656D01*
X10256100D01*
X10257571Y4213949D01*
X10258818Y4214782D01*
X10259651Y4216029D01*
X10259944Y4217500D01*
Y4222500D01*
X10259651Y4223971D01*
X10258818Y4225218D01*
X10257571Y4226051D01*
X10256100Y4226344D01*
D02*
G37*
G36*
X10221940Y4233730D02*
X10198860D01*
Y4227460D01*
Y4221270D01*
X10221940D01*
Y4227460D01*
Y4233730D01*
D02*
G37*
G36*
Y4218730D02*
X10211670D01*
Y4212460D01*
X10221940D01*
Y4218730D01*
D02*
G37*
G36*
X10209130D02*
X10198860D01*
Y4212460D01*
X10209130D01*
Y4218730D01*
D02*
G37*
G36*
X10259871Y4201270D02*
X10239330D01*
Y4197072D01*
X10233685D01*
X10233055Y4198015D01*
X10231584Y4198997D01*
X10229850Y4199342D01*
X10228116Y4198997D01*
X10226646Y4198015D01*
X10225663Y4196544D01*
X10225318Y4194810D01*
X10225663Y4193076D01*
X10226646Y4191605D01*
X10228116Y4190623D01*
X10229850Y4190278D01*
X10231584Y4190623D01*
X10233055Y4191605D01*
X10233939Y4192928D01*
X10239330D01*
Y4188730D01*
X10259871D01*
Y4201270D01*
D02*
G37*
G36*
X10221940Y4202540D02*
X10211670D01*
Y4196270D01*
X10221940D01*
Y4202540D01*
D02*
G37*
G36*
X10209130D02*
X10198860D01*
Y4196270D01*
X10209130D01*
Y4202540D01*
D02*
G37*
G36*
X10221940Y4193730D02*
X10198860D01*
Y4187460D01*
Y4181270D01*
X10221940D01*
Y4187460D01*
Y4193730D01*
D02*
G37*
G36*
X10229850Y4186642D02*
X10228116Y4186297D01*
X10226646Y4185315D01*
X10225663Y4183844D01*
X10225318Y4182110D01*
X10225663Y4180376D01*
X10226646Y4178905D01*
X10228116Y4177923D01*
X10229850Y4177578D01*
X10231584Y4177923D01*
X10231677Y4177984D01*
X10231960Y4177928D01*
X10231960Y4177928D01*
X10239330D01*
Y4173730D01*
X10259871D01*
Y4186270D01*
X10239330D01*
Y4182072D01*
X10234413D01*
X10234382Y4182110D01*
X10234037Y4183844D01*
X10233055Y4185315D01*
X10231584Y4186297D01*
X10229850Y4186642D01*
D02*
G37*
G36*
X10221940Y4178730D02*
X10198860D01*
Y4172460D01*
Y4166270D01*
X10221940D01*
Y4172460D01*
Y4178730D01*
D02*
G37*
G36*
X10229850Y4173942D02*
X10228116Y4173597D01*
X10226646Y4172615D01*
X10225663Y4171144D01*
X10225318Y4169410D01*
X10225663Y4167676D01*
X10226646Y4166205D01*
X10228116Y4165223D01*
X10229850Y4164878D01*
X10231187Y4165144D01*
X10232795Y4163535D01*
X10232795Y4163535D01*
X10233467Y4163086D01*
X10234260Y4162928D01*
X10234260Y4162928D01*
X10239256D01*
Y4162500D01*
X10239549Y4161029D01*
X10240382Y4159782D01*
X10241628Y4158949D01*
X10243101Y4158656D01*
X10256100D01*
X10257571Y4158949D01*
X10258818Y4159782D01*
X10259651Y4161029D01*
X10259944Y4162500D01*
Y4167500D01*
X10259651Y4168971D01*
X10258818Y4170218D01*
X10257571Y4171051D01*
X10256100Y4171344D01*
X10243101D01*
X10241628Y4171051D01*
X10240382Y4170218D01*
X10239549Y4168971D01*
X10239256Y4167500D01*
Y4167072D01*
X10235118D01*
X10234116Y4168074D01*
X10234382Y4169410D01*
X10234037Y4171144D01*
X10233055Y4172615D01*
X10231584Y4173597D01*
X10229850Y4173942D01*
D02*
G37*
G36*
X10221940Y4163730D02*
X10211670D01*
Y4157460D01*
X10221940D01*
Y4163730D01*
D02*
G37*
G36*
X10209130D02*
X10198860D01*
Y4157460D01*
X10209130D01*
Y4163730D01*
D02*
G37*
G36*
X10221940Y4147540D02*
X10211670D01*
Y4141270D01*
X10221940D01*
Y4147540D01*
D02*
G37*
G36*
X10209130D02*
X10198860D01*
Y4141270D01*
X10209130D01*
Y4147540D01*
D02*
G37*
G36*
X10259871Y4146270D02*
X10239330D01*
Y4142955D01*
X10238540Y4142072D01*
X10237747Y4141914D01*
X10237075Y4141465D01*
X10237075Y4141465D01*
X10231187Y4135576D01*
X10229850Y4135842D01*
X10228116Y4135497D01*
X10226646Y4134515D01*
X10225663Y4133044D01*
X10225318Y4131310D01*
X10225663Y4129576D01*
X10226646Y4128105D01*
X10228116Y4127123D01*
X10229850Y4126778D01*
X10231584Y4127123D01*
X10233055Y4128105D01*
X10234037Y4129576D01*
X10234382Y4131310D01*
X10234116Y4132646D01*
X10238157Y4136687D01*
X10239330Y4136201D01*
Y4133730D01*
X10259871D01*
Y4146270D01*
D02*
G37*
G36*
Y4131270D02*
X10239330D01*
Y4127072D01*
X10236240D01*
X10236240Y4127072D01*
X10235447Y4126914D01*
X10234775Y4126465D01*
X10234775Y4126465D01*
X10231187Y4122876D01*
X10229850Y4123142D01*
X10228116Y4122797D01*
X10226646Y4121815D01*
X10225663Y4120344D01*
X10225318Y4118610D01*
X10225663Y4116876D01*
X10226646Y4115405D01*
X10228116Y4114423D01*
X10229850Y4114078D01*
X10231584Y4114423D01*
X10233055Y4115405D01*
X10234037Y4116876D01*
X10234382Y4118610D01*
X10234116Y4119946D01*
X10237098Y4122928D01*
X10239330D01*
Y4118730D01*
X10259871D01*
Y4131270D01*
D02*
G37*
G36*
X10221940Y4138730D02*
X10198860D01*
Y4132460D01*
Y4126270D01*
X10221940D01*
Y4132460D01*
Y4138730D01*
D02*
G37*
G36*
Y4123730D02*
X10198860D01*
Y4117460D01*
Y4111270D01*
X10221940D01*
Y4117460D01*
Y4123730D01*
D02*
G37*
G36*
X10256100Y4116344D02*
X10243101D01*
X10241628Y4116051D01*
X10240382Y4115218D01*
X10239549Y4113971D01*
X10239256Y4112500D01*
Y4107982D01*
X10233812D01*
X10233055Y4109115D01*
X10231584Y4110097D01*
X10229850Y4110442D01*
X10228116Y4110097D01*
X10226646Y4109115D01*
X10225663Y4107644D01*
X10225318Y4105910D01*
X10225663Y4104176D01*
X10226646Y4102705D01*
X10228116Y4101723D01*
X10229850Y4101378D01*
X10231584Y4101723D01*
X10233055Y4102705D01*
X10233812Y4103838D01*
X10242184D01*
X10243101Y4103656D01*
X10256100D01*
X10257571Y4103949D01*
X10258818Y4104782D01*
X10259651Y4106029D01*
X10259944Y4107500D01*
Y4112500D01*
X10259651Y4113971D01*
X10258818Y4115218D01*
X10257571Y4116051D01*
X10256100Y4116344D01*
D02*
G37*
G36*
X10221940Y4108730D02*
X10211670D01*
Y4102460D01*
X10221940D01*
Y4108730D01*
D02*
G37*
G36*
X10209130D02*
X10198860D01*
Y4102460D01*
X10209130D01*
Y4108730D01*
D02*
G37*
G36*
X10259871Y4091270D02*
X10239330D01*
Y4087072D01*
X10233357D01*
X10233055Y4087525D01*
X10231584Y4088507D01*
X10229850Y4088852D01*
X10228116Y4088507D01*
X10226646Y4087525D01*
X10225663Y4086054D01*
X10225318Y4084320D01*
X10225663Y4082586D01*
X10226646Y4081115D01*
X10228116Y4080133D01*
X10229850Y4079788D01*
X10231584Y4080133D01*
X10233055Y4081115D01*
X10234037Y4082586D01*
X10234105Y4082928D01*
X10239330D01*
Y4078730D01*
X10259871D01*
Y4091270D01*
D02*
G37*
G36*
X10221940Y4092540D02*
X10211670D01*
Y4086270D01*
X10221940D01*
Y4092540D01*
D02*
G37*
G36*
X10209130D02*
X10198860D01*
Y4086270D01*
X10209130D01*
Y4092540D01*
D02*
G37*
G36*
X10259871Y4076270D02*
X10239330D01*
Y4072072D01*
X10234292D01*
X10234037Y4073354D01*
X10233055Y4074825D01*
X10231584Y4075807D01*
X10229850Y4076152D01*
X10228116Y4075807D01*
X10226646Y4074825D01*
X10225663Y4073354D01*
X10225318Y4071620D01*
X10225663Y4069886D01*
X10226646Y4068415D01*
X10228116Y4067433D01*
X10229850Y4067088D01*
X10231584Y4067433D01*
X10232325Y4067928D01*
X10239330D01*
Y4063730D01*
X10259871D01*
Y4076270D01*
D02*
G37*
G36*
X10221940Y4083730D02*
X10198860D01*
Y4077460D01*
Y4071270D01*
X10221940D01*
Y4077460D01*
Y4083730D01*
D02*
G37*
G36*
Y4068730D02*
X10198860D01*
Y4062460D01*
Y4056270D01*
X10221940D01*
Y4062460D01*
Y4068730D01*
D02*
G37*
G36*
X10229850Y4063452D02*
X10228116Y4063107D01*
X10226646Y4062125D01*
X10225663Y4060654D01*
X10225318Y4058920D01*
X10225663Y4057186D01*
X10226646Y4055715D01*
X10228116Y4054733D01*
X10229850Y4054388D01*
X10231187Y4054654D01*
X10232305Y4053535D01*
X10232305Y4053535D01*
X10232977Y4053086D01*
X10233770Y4052928D01*
X10233770Y4052928D01*
X10239256D01*
Y4052500D01*
X10239549Y4051029D01*
X10240382Y4049782D01*
X10241628Y4048948D01*
X10243101Y4048656D01*
X10256100D01*
X10257571Y4048948D01*
X10258818Y4049782D01*
X10259651Y4051029D01*
X10259944Y4052500D01*
Y4057500D01*
X10259651Y4058971D01*
X10258818Y4060218D01*
X10257571Y4061051D01*
X10256100Y4061344D01*
X10243101D01*
X10241628Y4061051D01*
X10240382Y4060218D01*
X10239549Y4058971D01*
X10239256Y4057500D01*
Y4057072D01*
X10235185D01*
X10234235Y4058178D01*
X10234382Y4058920D01*
X10234037Y4060654D01*
X10233055Y4062125D01*
X10231584Y4063107D01*
X10229850Y4063452D01*
D02*
G37*
G36*
X10221940Y4053730D02*
X10211670D01*
Y4047460D01*
X10221940D01*
Y4053730D01*
D02*
G37*
G36*
X10209130D02*
X10198860D01*
Y4047460D01*
X10209130D01*
Y4053730D01*
D02*
G37*
G36*
X10221940Y4037540D02*
X10211670D01*
Y4031270D01*
X10221940D01*
Y4037540D01*
D02*
G37*
G36*
X10209130D02*
X10198860D01*
Y4031270D01*
X10209130D01*
Y4037540D01*
D02*
G37*
G36*
X10259871Y4036270D02*
X10239330D01*
Y4032072D01*
X10239030D01*
X10238237Y4031914D01*
X10237565Y4031465D01*
X10237565Y4031465D01*
X10231317Y4025216D01*
X10229980Y4025482D01*
X10228246Y4025137D01*
X10226776Y4024155D01*
X10225793Y4022684D01*
X10225448Y4020950D01*
X10225793Y4019216D01*
X10226776Y4017745D01*
X10228246Y4016763D01*
X10229980Y4016418D01*
X10231714Y4016763D01*
X10233185Y4017745D01*
X10234167Y4019216D01*
X10234512Y4020950D01*
X10234246Y4022286D01*
X10238157Y4026197D01*
X10239330Y4025711D01*
Y4023730D01*
X10259871D01*
Y4036270D01*
D02*
G37*
G36*
Y4021270D02*
X10239330D01*
Y4017072D01*
X10236730D01*
X10236730Y4017072D01*
X10235937Y4016914D01*
X10235265Y4016465D01*
X10235265Y4016465D01*
X10231187Y4012386D01*
X10229850Y4012652D01*
X10228116Y4012307D01*
X10226646Y4011325D01*
X10225663Y4009854D01*
X10225318Y4008120D01*
X10225663Y4006386D01*
X10226646Y4004915D01*
X10228116Y4003933D01*
X10229850Y4003588D01*
X10231584Y4003933D01*
X10233055Y4004915D01*
X10234037Y4006386D01*
X10234382Y4008120D01*
X10234116Y4009456D01*
X10237588Y4012928D01*
X10239330D01*
Y4008730D01*
X10259871D01*
Y4021270D01*
D02*
G37*
G36*
X10221940Y4028730D02*
X10198860D01*
Y4022460D01*
Y4016270D01*
X10221940D01*
Y4022460D01*
Y4028730D01*
D02*
G37*
G36*
X10256100Y4006344D02*
X10243101D01*
X10241628Y4006051D01*
X10240382Y4005218D01*
X10239549Y4003971D01*
X10239256Y4002500D01*
Y4002072D01*
X10234431D01*
X10234430Y4002072D01*
X10233637Y4001914D01*
X10232965Y4001465D01*
X10231187Y3999686D01*
X10229850Y3999952D01*
X10228116Y3999607D01*
X10226646Y3998625D01*
X10225663Y3997154D01*
X10225318Y3995420D01*
X10225663Y3993686D01*
X10226646Y3992215D01*
X10228116Y3991233D01*
X10229850Y3990888D01*
X10231584Y3991233D01*
X10233055Y3992215D01*
X10234037Y3993686D01*
X10234382Y3995420D01*
X10234116Y3996756D01*
X10235288Y3997928D01*
X10239256D01*
Y3997500D01*
X10239549Y3996029D01*
X10240382Y3994782D01*
X10241628Y3993949D01*
X10243101Y3993656D01*
X10256100D01*
X10257571Y3993949D01*
X10258818Y3994782D01*
X10259651Y3996029D01*
X10259944Y3997500D01*
Y4002500D01*
X10259651Y4003971D01*
X10258818Y4005218D01*
X10257571Y4006051D01*
X10256100Y4006344D01*
D02*
G37*
G36*
X10221940Y4013730D02*
X10198860D01*
Y4007460D01*
Y4001270D01*
X10221940D01*
Y4007460D01*
Y4013730D01*
D02*
G37*
G36*
Y3998730D02*
X10211670D01*
Y3992460D01*
X10221940D01*
Y3998730D01*
D02*
G37*
G36*
X10209130D02*
X10198860D01*
Y3992460D01*
X10209130D01*
Y3998730D01*
D02*
G37*
G36*
X10259871Y3981270D02*
X10239330D01*
Y3977072D01*
X10232999D01*
X10231584Y3978017D01*
X10229850Y3978362D01*
X10228116Y3978017D01*
X10226646Y3977035D01*
X10225663Y3975564D01*
X10225318Y3973830D01*
X10225663Y3972096D01*
X10226646Y3970625D01*
X10228116Y3969643D01*
X10229850Y3969298D01*
X10231584Y3969643D01*
X10233055Y3970625D01*
X10234037Y3972096D01*
X10234203Y3972928D01*
X10239330D01*
Y3968730D01*
X10259871D01*
Y3981270D01*
D02*
G37*
G36*
X10221940Y3982540D02*
X10211670D01*
Y3976270D01*
X10221940D01*
Y3982540D01*
D02*
G37*
G36*
X10209130D02*
X10198860D01*
Y3976270D01*
X10209130D01*
Y3982540D01*
D02*
G37*
G36*
X10259871Y3966270D02*
X10239330D01*
Y3962072D01*
X10234195D01*
X10234037Y3962864D01*
X10233055Y3964335D01*
X10231584Y3965317D01*
X10229850Y3965662D01*
X10228116Y3965317D01*
X10226646Y3964335D01*
X10225663Y3962864D01*
X10225318Y3961130D01*
X10225663Y3959396D01*
X10226646Y3957925D01*
X10228116Y3956943D01*
X10229850Y3956598D01*
X10231584Y3956943D01*
X10233055Y3957925D01*
X10233057Y3957928D01*
X10239330D01*
Y3953730D01*
X10259871D01*
Y3966270D01*
D02*
G37*
G36*
X10221940Y3973730D02*
X10198860D01*
Y3967460D01*
Y3961270D01*
X10221940D01*
Y3967460D01*
Y3973730D01*
D02*
G37*
G36*
Y3958730D02*
X10198860D01*
Y3952460D01*
Y3946270D01*
X10221940D01*
Y3952460D01*
Y3958730D01*
D02*
G37*
G36*
X10229850Y3952962D02*
X10228116Y3952617D01*
X10226646Y3951635D01*
X10225663Y3950164D01*
X10225318Y3948430D01*
X10225663Y3946696D01*
X10226646Y3945225D01*
X10228116Y3944243D01*
X10229850Y3943898D01*
X10231187Y3944164D01*
X10231815Y3943535D01*
X10231815Y3943535D01*
X10232487Y3943086D01*
X10233280Y3942928D01*
X10239256D01*
Y3942500D01*
X10239549Y3941029D01*
X10240382Y3939782D01*
X10241628Y3938949D01*
X10243101Y3938656D01*
X10256100D01*
X10257571Y3938949D01*
X10258818Y3939782D01*
X10259651Y3941029D01*
X10259944Y3942500D01*
Y3947500D01*
X10259651Y3948971D01*
X10258818Y3950218D01*
X10257571Y3951051D01*
X10256100Y3951344D01*
X10243101D01*
X10241628Y3951051D01*
X10240382Y3950218D01*
X10239549Y3948971D01*
X10239256Y3947500D01*
Y3947072D01*
X10235407D01*
X10234365Y3948342D01*
X10234382Y3948430D01*
X10234037Y3950164D01*
X10233055Y3951635D01*
X10231584Y3952617D01*
X10229850Y3952962D01*
D02*
G37*
G36*
X10221940Y3943730D02*
X10211670D01*
Y3937460D01*
X10221940D01*
Y3943730D01*
D02*
G37*
G36*
X10209130D02*
X10198860D01*
Y3937460D01*
X10209130D01*
Y3943730D01*
D02*
G37*
G36*
X10221940Y3927540D02*
X10211670D01*
Y3921270D01*
X10221940D01*
Y3927540D01*
D02*
G37*
G36*
X10209130D02*
X10198860D01*
Y3921270D01*
X10209130D01*
Y3927540D01*
D02*
G37*
G36*
X10259871Y3926270D02*
X10239330D01*
Y3922034D01*
X10238727Y3921914D01*
X10238055Y3921465D01*
X10238055Y3921465D01*
X10231806Y3915216D01*
X10230470Y3915482D01*
X10228735Y3915137D01*
X10227265Y3914154D01*
X10226283Y3912684D01*
X10225938Y3910950D01*
X10226283Y3909215D01*
X10227265Y3907745D01*
X10228735Y3906763D01*
X10230470Y3906418D01*
X10232204Y3906763D01*
X10233674Y3907745D01*
X10234657Y3909215D01*
X10235002Y3910950D01*
X10234736Y3912286D01*
X10238157Y3915707D01*
X10239330Y3915221D01*
Y3913730D01*
X10259871D01*
Y3926270D01*
D02*
G37*
G36*
Y3911270D02*
X10239330D01*
Y3907072D01*
X10235950D01*
X10235950Y3907072D01*
X10235157Y3906914D01*
X10234485Y3906465D01*
X10234485Y3906465D01*
X10231187Y3903166D01*
X10229850Y3903432D01*
X10228116Y3903087D01*
X10226646Y3902105D01*
X10225663Y3900634D01*
X10225318Y3898900D01*
X10225663Y3897166D01*
X10226646Y3895695D01*
X10228116Y3894713D01*
X10229850Y3894368D01*
X10231584Y3894713D01*
X10233055Y3895695D01*
X10234037Y3897166D01*
X10234382Y3898900D01*
X10234116Y3900236D01*
X10236808Y3902928D01*
X10239330D01*
Y3898730D01*
X10259871D01*
Y3911270D01*
D02*
G37*
G36*
X10221940Y3918730D02*
X10198860D01*
Y3912460D01*
Y3906270D01*
X10221940D01*
Y3912460D01*
Y3918730D01*
D02*
G37*
G36*
Y3903730D02*
X10198860D01*
Y3897460D01*
Y3891270D01*
X10221940D01*
Y3897460D01*
Y3903730D01*
D02*
G37*
G36*
X10256100Y3896344D02*
X10243101D01*
X10241628Y3896051D01*
X10240382Y3895218D01*
X10239549Y3893971D01*
X10239256Y3892500D01*
Y3892072D01*
X10233650D01*
X10232857Y3891914D01*
X10232185Y3891465D01*
X10232185Y3891465D01*
X10231187Y3890466D01*
X10229850Y3890732D01*
X10228116Y3890387D01*
X10226646Y3889405D01*
X10225663Y3887934D01*
X10225318Y3886200D01*
X10225663Y3884466D01*
X10226646Y3882995D01*
X10228116Y3882013D01*
X10229850Y3881668D01*
X10231584Y3882013D01*
X10233055Y3882995D01*
X10234037Y3884466D01*
X10234382Y3886200D01*
X10234271Y3886756D01*
X10235266Y3887928D01*
X10239256D01*
Y3887500D01*
X10239549Y3886029D01*
X10240382Y3884782D01*
X10241628Y3883949D01*
X10243101Y3883656D01*
X10256100D01*
X10257571Y3883949D01*
X10258818Y3884782D01*
X10259651Y3886029D01*
X10259944Y3887500D01*
Y3892500D01*
X10259651Y3893971D01*
X10258818Y3895218D01*
X10257571Y3896051D01*
X10256100Y3896344D01*
D02*
G37*
G36*
X10221940Y3888730D02*
X10211670D01*
Y3882460D01*
X10221940D01*
Y3888730D01*
D02*
G37*
G36*
X10209130D02*
X10198860D01*
Y3882460D01*
X10209130D01*
Y3888730D01*
D02*
G37*
G36*
X10259871Y3871270D02*
X10239330D01*
Y3867072D01*
X10233604D01*
X10233215Y3867655D01*
X10231744Y3868637D01*
X10230010Y3868982D01*
X10228276Y3868637D01*
X10226805Y3867655D01*
X10225823Y3866184D01*
X10225478Y3864450D01*
X10225823Y3862715D01*
X10226805Y3861245D01*
X10228276Y3860263D01*
X10230010Y3859918D01*
X10231744Y3860263D01*
X10233215Y3861245D01*
X10234197Y3862715D01*
X10234240Y3862928D01*
X10239330D01*
Y3858730D01*
X10259871D01*
Y3871270D01*
D02*
G37*
G36*
X10221940Y3872540D02*
X10211670D01*
Y3866270D01*
X10221940D01*
Y3872540D01*
D02*
G37*
G36*
X10209130D02*
X10198860D01*
Y3866270D01*
X10209130D01*
Y3872540D01*
D02*
G37*
G36*
X10221940Y3863730D02*
X10198860D01*
Y3857460D01*
Y3851270D01*
X10221940D01*
Y3857460D01*
Y3863730D01*
D02*
G37*
G36*
X10229850Y3856442D02*
X10228116Y3856097D01*
X10226646Y3855115D01*
X10225663Y3853644D01*
X10225318Y3851910D01*
X10225663Y3850176D01*
X10226646Y3848705D01*
X10228116Y3847723D01*
X10229850Y3847378D01*
X10231584Y3847723D01*
X10231891Y3847928D01*
X10239330D01*
Y3843730D01*
X10259871D01*
Y3856270D01*
X10239330D01*
Y3852072D01*
X10234350D01*
X10234037Y3853644D01*
X10233055Y3855115D01*
X10231584Y3856097D01*
X10229850Y3856442D01*
D02*
G37*
G36*
X10221940Y3848730D02*
X10198860D01*
Y3842460D01*
Y3836270D01*
X10221940D01*
Y3842460D01*
Y3848730D01*
D02*
G37*
G36*
X10229850Y3843742D02*
X10228116Y3843397D01*
X10226646Y3842415D01*
X10225663Y3840944D01*
X10225318Y3839210D01*
X10225663Y3837476D01*
X10226646Y3836005D01*
X10228116Y3835023D01*
X10229850Y3834678D01*
X10231187Y3834944D01*
X10232595Y3833535D01*
X10232595Y3833535D01*
X10233267Y3833086D01*
X10234060Y3832928D01*
X10234060Y3832928D01*
X10239256D01*
Y3832500D01*
X10239549Y3831029D01*
X10240382Y3829782D01*
X10241628Y3828949D01*
X10243101Y3828656D01*
X10256100D01*
X10257571Y3828949D01*
X10258818Y3829782D01*
X10259651Y3831029D01*
X10259944Y3832500D01*
Y3837500D01*
X10259651Y3838971D01*
X10258818Y3840218D01*
X10257571Y3841051D01*
X10256100Y3841344D01*
X10243101D01*
X10241628Y3841051D01*
X10240382Y3840218D01*
X10239549Y3838971D01*
X10239256Y3837500D01*
Y3837072D01*
X10234991D01*
X10234146Y3838022D01*
X10234382Y3839210D01*
X10234037Y3840944D01*
X10233055Y3842415D01*
X10231584Y3843397D01*
X10229850Y3843742D01*
D02*
G37*
G36*
X10221940Y3833730D02*
X10211670D01*
Y3827460D01*
X10221940D01*
Y3833730D01*
D02*
G37*
G36*
X10209130D02*
X10198860D01*
Y3827460D01*
X10209130D01*
Y3833730D01*
D02*
G37*
G36*
X10221940Y3817540D02*
X10211670D01*
Y3811270D01*
X10221940D01*
Y3817540D01*
D02*
G37*
G36*
X10209130D02*
X10198860D01*
Y3811270D01*
X10209130D01*
Y3817540D01*
D02*
G37*
G36*
X10259871Y3816270D02*
X10239330D01*
Y3813089D01*
X10238740Y3812072D01*
X10237947Y3811914D01*
X10237275Y3811465D01*
X10237275Y3811465D01*
X10231187Y3805376D01*
X10229850Y3805642D01*
X10228116Y3805297D01*
X10226646Y3804315D01*
X10225663Y3802844D01*
X10225318Y3801110D01*
X10225663Y3799376D01*
X10226646Y3797905D01*
X10228116Y3796923D01*
X10229850Y3796578D01*
X10231584Y3796923D01*
X10233055Y3797905D01*
X10234037Y3799376D01*
X10234382Y3801110D01*
X10234116Y3802446D01*
X10238157Y3806487D01*
X10239330Y3806001D01*
Y3803730D01*
X10259871D01*
Y3816270D01*
D02*
G37*
G36*
Y3801270D02*
X10239330D01*
Y3797072D01*
X10236440D01*
X10236440Y3797072D01*
X10235647Y3796914D01*
X10234975Y3796465D01*
X10234975Y3796465D01*
X10231187Y3792676D01*
X10229850Y3792942D01*
X10228116Y3792597D01*
X10226646Y3791615D01*
X10225663Y3790144D01*
X10225318Y3788410D01*
X10225663Y3786676D01*
X10226646Y3785205D01*
X10228116Y3784223D01*
X10229850Y3783878D01*
X10231584Y3784223D01*
X10233055Y3785205D01*
X10234037Y3786676D01*
X10234382Y3788410D01*
X10234116Y3789746D01*
X10237298Y3792928D01*
X10239330D01*
Y3788730D01*
X10259871D01*
Y3801270D01*
D02*
G37*
G36*
X10221940Y3808730D02*
X10198860D01*
Y3802460D01*
Y3796270D01*
X10221940D01*
Y3802460D01*
Y3808730D01*
D02*
G37*
G36*
X10256100Y3786344D02*
X10243101D01*
X10241628Y3786051D01*
X10240382Y3785218D01*
X10239549Y3783971D01*
X10239256Y3782500D01*
Y3782072D01*
X10234140D01*
X10234140Y3782072D01*
X10233347Y3781914D01*
X10232675Y3781465D01*
X10232675Y3781465D01*
X10231187Y3779976D01*
X10229850Y3780242D01*
X10228116Y3779897D01*
X10226646Y3778915D01*
X10225663Y3777444D01*
X10225318Y3775710D01*
X10225663Y3773976D01*
X10226646Y3772505D01*
X10228116Y3771523D01*
X10229850Y3771178D01*
X10231584Y3771523D01*
X10233055Y3772505D01*
X10234037Y3773976D01*
X10234382Y3775710D01*
X10234116Y3777046D01*
X10234998Y3777928D01*
X10239256D01*
Y3777500D01*
X10239549Y3776029D01*
X10240382Y3774782D01*
X10241628Y3773949D01*
X10243101Y3773656D01*
X10256100D01*
X10257571Y3773949D01*
X10258818Y3774782D01*
X10259651Y3776029D01*
X10259944Y3777500D01*
Y3782500D01*
X10259651Y3783971D01*
X10258818Y3785218D01*
X10257571Y3786051D01*
X10256100Y3786344D01*
D02*
G37*
G36*
X10221940Y3793730D02*
X10198860D01*
Y3787460D01*
Y3781270D01*
X10221940D01*
Y3787460D01*
Y3793730D01*
D02*
G37*
G36*
Y3778730D02*
X10211670D01*
Y3772460D01*
X10221940D01*
Y3778730D01*
D02*
G37*
G36*
X10209130D02*
X10198860D01*
Y3772460D01*
X10209130D01*
Y3778730D01*
D02*
G37*
G36*
X10259871Y3761270D02*
X10239330D01*
Y3757072D01*
X10233224D01*
X10233055Y3757325D01*
X10231584Y3758307D01*
X10229850Y3758652D01*
X10228116Y3758307D01*
X10226646Y3757325D01*
X10225663Y3755854D01*
X10225318Y3754120D01*
X10225663Y3752386D01*
X10226646Y3750915D01*
X10228116Y3749933D01*
X10229850Y3749588D01*
X10231584Y3749933D01*
X10233055Y3750915D01*
X10234037Y3752386D01*
X10234145Y3752928D01*
X10239330D01*
Y3748730D01*
X10259871D01*
Y3761270D01*
D02*
G37*
G36*
X10221940Y3762540D02*
X10211670D01*
Y3756270D01*
X10221940D01*
Y3762540D01*
D02*
G37*
G36*
X10209130D02*
X10198860D01*
Y3756270D01*
X10209130D01*
Y3762540D01*
D02*
G37*
G36*
X10259871Y3746270D02*
X10239330D01*
Y3742072D01*
X10234252D01*
X10234037Y3743154D01*
X10233055Y3744625D01*
X10231584Y3745607D01*
X10229850Y3745952D01*
X10228116Y3745607D01*
X10226646Y3744625D01*
X10225663Y3743154D01*
X10225318Y3741420D01*
X10225663Y3739686D01*
X10226646Y3738215D01*
X10228116Y3737233D01*
X10229850Y3736888D01*
X10231584Y3737233D01*
X10232625Y3737928D01*
X10239330D01*
Y3733730D01*
X10259871D01*
Y3746270D01*
D02*
G37*
G36*
X10221940Y3753730D02*
X10198860D01*
Y3747460D01*
Y3741270D01*
X10221940D01*
Y3747460D01*
Y3753730D01*
D02*
G37*
G36*
Y3738730D02*
X10198860D01*
Y3732460D01*
Y3726270D01*
X10221940D01*
Y3732460D01*
Y3738730D01*
D02*
G37*
G36*
X10229850Y3733252D02*
X10228116Y3732907D01*
X10226646Y3731925D01*
X10225663Y3730454D01*
X10225318Y3728720D01*
X10225663Y3726986D01*
X10226646Y3725515D01*
X10228116Y3724533D01*
X10229850Y3724188D01*
X10231187Y3724454D01*
X10232105Y3723535D01*
X10232105Y3723535D01*
X10232777Y3723086D01*
X10233570Y3722928D01*
X10233570Y3722928D01*
X10239256D01*
Y3722500D01*
X10239549Y3721029D01*
X10240382Y3719782D01*
X10241628Y3718949D01*
X10243101Y3718656D01*
X10256100D01*
X10257571Y3718949D01*
X10258818Y3719782D01*
X10259651Y3721029D01*
X10259944Y3722500D01*
Y3727500D01*
X10259651Y3728971D01*
X10258818Y3730218D01*
X10257571Y3731051D01*
X10256100Y3731344D01*
X10243101D01*
X10241628Y3731051D01*
X10240382Y3730218D01*
X10239549Y3728971D01*
X10239256Y3727500D01*
Y3727072D01*
X10235319D01*
X10234296Y3728287D01*
X10234382Y3728720D01*
X10234037Y3730454D01*
X10233055Y3731925D01*
X10231584Y3732907D01*
X10229850Y3733252D01*
D02*
G37*
G36*
X10221940Y3723730D02*
X10211670D01*
Y3717460D01*
X10221940D01*
Y3723730D01*
D02*
G37*
G36*
X10209130D02*
X10198860D01*
Y3717460D01*
X10209130D01*
Y3723730D01*
D02*
G37*
G36*
X10221940Y3707540D02*
X10211670D01*
Y3701270D01*
X10221940D01*
Y3707540D01*
D02*
G37*
G36*
X10209130D02*
X10198860D01*
Y3701270D01*
X10209130D01*
Y3707540D01*
D02*
G37*
G36*
X10259871Y3706270D02*
X10239330D01*
Y3703288D01*
X10239230Y3702072D01*
X10238438Y3701914D01*
X10237766Y3701465D01*
X10231187Y3694886D01*
X10229850Y3695152D01*
X10228116Y3694807D01*
X10226646Y3693825D01*
X10225663Y3692354D01*
X10225318Y3690620D01*
X10225663Y3688886D01*
X10226646Y3687415D01*
X10228116Y3686433D01*
X10229850Y3686088D01*
X10231584Y3686433D01*
X10233055Y3687415D01*
X10234037Y3688886D01*
X10234382Y3690620D01*
X10234116Y3691956D01*
X10238157Y3695997D01*
X10239330Y3695511D01*
Y3693730D01*
X10259871D01*
Y3706270D01*
D02*
G37*
G36*
Y3691270D02*
X10239330D01*
Y3687072D01*
X10236930D01*
X10236930Y3687072D01*
X10236137Y3686914D01*
X10235465Y3686465D01*
X10235465Y3686465D01*
X10231187Y3682186D01*
X10229850Y3682452D01*
X10228116Y3682107D01*
X10226646Y3681125D01*
X10225663Y3679654D01*
X10225318Y3677920D01*
X10225663Y3676186D01*
X10226646Y3674715D01*
X10228116Y3673733D01*
X10229850Y3673388D01*
X10231584Y3673733D01*
X10233055Y3674715D01*
X10234037Y3676186D01*
X10234382Y3677920D01*
X10234116Y3679256D01*
X10237788Y3682928D01*
X10239330D01*
Y3678730D01*
X10259871D01*
Y3691270D01*
D02*
G37*
G36*
X10221940Y3698730D02*
X10198860D01*
Y3692460D01*
Y3686270D01*
X10221940D01*
Y3692460D01*
Y3698730D01*
D02*
G37*
G36*
X10256100Y3676344D02*
X10243101D01*
X10241628Y3676051D01*
X10240382Y3675218D01*
X10239549Y3673971D01*
X10239256Y3672500D01*
Y3672072D01*
X10234630D01*
X10234630Y3672072D01*
X10233837Y3671914D01*
X10233165Y3671465D01*
X10233165Y3671465D01*
X10231187Y3669486D01*
X10229850Y3669752D01*
X10228116Y3669407D01*
X10226646Y3668425D01*
X10225663Y3666954D01*
X10225318Y3665220D01*
X10225663Y3663486D01*
X10226646Y3662015D01*
X10228116Y3661033D01*
X10229850Y3660688D01*
X10231584Y3661033D01*
X10233055Y3662015D01*
X10234037Y3663486D01*
X10234382Y3665220D01*
X10234116Y3666556D01*
X10235488Y3667928D01*
X10239256D01*
Y3667500D01*
X10239549Y3666029D01*
X10240382Y3664782D01*
X10241628Y3663948D01*
X10243101Y3663656D01*
X10256100D01*
X10257571Y3663948D01*
X10258818Y3664782D01*
X10259651Y3666029D01*
X10259944Y3667500D01*
Y3672500D01*
X10259651Y3673971D01*
X10258818Y3675218D01*
X10257571Y3676051D01*
X10256100Y3676344D01*
D02*
G37*
G36*
X10221940Y3683730D02*
X10198860D01*
Y3677460D01*
Y3671270D01*
X10221940D01*
Y3677460D01*
Y3683730D01*
D02*
G37*
G36*
Y3668730D02*
X10211670D01*
Y3662460D01*
X10221940D01*
Y3668730D01*
D02*
G37*
G36*
X10209130D02*
X10198860D01*
Y3662460D01*
X10209130D01*
Y3668730D01*
D02*
G37*
G36*
X10259871Y3651270D02*
X10239330D01*
Y3647072D01*
X10233894D01*
X10233505Y3647655D01*
X10232034Y3648637D01*
X10230300Y3648982D01*
X10228566Y3648637D01*
X10227095Y3647655D01*
X10226113Y3646184D01*
X10225768Y3644450D01*
X10226113Y3642715D01*
X10227095Y3641245D01*
X10228566Y3640263D01*
X10230300Y3639918D01*
X10232034Y3640263D01*
X10233505Y3641245D01*
X10234487Y3642715D01*
X10234529Y3642928D01*
X10239330D01*
Y3638730D01*
X10259871D01*
Y3651270D01*
D02*
G37*
G36*
X10221940Y3652540D02*
X10211670D01*
Y3646270D01*
X10221940D01*
Y3652540D01*
D02*
G37*
G36*
X10209130D02*
X10198860D01*
Y3646270D01*
X10209130D01*
Y3652540D01*
D02*
G37*
G36*
X10221940Y3643730D02*
X10198860D01*
Y3637460D01*
Y3631270D01*
X10221940D01*
Y3637460D01*
Y3643730D01*
D02*
G37*
G36*
X10229850Y3636732D02*
X10228116Y3636387D01*
X10226646Y3635405D01*
X10225663Y3633934D01*
X10225318Y3632200D01*
X10225663Y3630466D01*
X10226646Y3628995D01*
X10228116Y3628013D01*
X10229850Y3627668D01*
X10231584Y3628013D01*
X10231593Y3628019D01*
X10232050Y3627928D01*
X10239330D01*
Y3623730D01*
X10259871D01*
Y3636270D01*
X10239330D01*
Y3632072D01*
X10234487D01*
X10234382Y3632200D01*
X10234037Y3633934D01*
X10233055Y3635405D01*
X10231584Y3636387D01*
X10229850Y3636732D01*
D02*
G37*
G36*
X10221940Y3628730D02*
X10198860D01*
Y3622460D01*
Y3616270D01*
X10221940D01*
Y3622460D01*
Y3628730D01*
D02*
G37*
G36*
X10229850Y3624032D02*
X10228116Y3623687D01*
X10226646Y3622705D01*
X10225663Y3621234D01*
X10225318Y3619500D01*
X10225663Y3617766D01*
X10226646Y3616295D01*
X10228116Y3615313D01*
X10229850Y3614968D01*
X10231187Y3615234D01*
X10232885Y3613535D01*
X10233557Y3613086D01*
X10234350Y3612928D01*
X10234350Y3612928D01*
X10239256D01*
Y3612500D01*
X10239549Y3611029D01*
X10240382Y3609782D01*
X10241628Y3608949D01*
X10243101Y3608656D01*
X10256100D01*
X10257571Y3608949D01*
X10258818Y3609782D01*
X10259651Y3611029D01*
X10259944Y3612500D01*
Y3617500D01*
X10259651Y3618971D01*
X10258818Y3620218D01*
X10257571Y3621051D01*
X10256100Y3621344D01*
X10243101D01*
X10241628Y3621051D01*
X10240382Y3620218D01*
X10239549Y3618971D01*
X10239256Y3617500D01*
Y3617072D01*
X10235208D01*
X10234116Y3618164D01*
X10234382Y3619500D01*
X10234037Y3621234D01*
X10233055Y3622705D01*
X10231584Y3623687D01*
X10229850Y3624032D01*
D02*
G37*
G36*
X10221940Y3613730D02*
X10211670D01*
Y3607460D01*
X10221940D01*
Y3613730D01*
D02*
G37*
G36*
X10209130D02*
X10198860D01*
Y3607460D01*
X10209130D01*
Y3613730D01*
D02*
G37*
G36*
X10221940Y3597540D02*
X10211670D01*
Y3591270D01*
X10221940D01*
Y3597540D01*
D02*
G37*
G36*
X10209130D02*
X10198860D01*
Y3591270D01*
X10209130D01*
Y3597540D01*
D02*
G37*
G36*
X10259871Y3596270D02*
X10239330D01*
Y3592072D01*
X10238450D01*
X10237657Y3591914D01*
X10236985Y3591465D01*
X10236985Y3591465D01*
X10231187Y3585666D01*
X10229850Y3585932D01*
X10228116Y3585587D01*
X10226646Y3584605D01*
X10225663Y3583134D01*
X10225318Y3581400D01*
X10225663Y3579666D01*
X10226646Y3578195D01*
X10228116Y3577213D01*
X10229850Y3576868D01*
X10231584Y3577213D01*
X10233055Y3578195D01*
X10234037Y3579666D01*
X10234382Y3581400D01*
X10234116Y3582736D01*
X10238060Y3586680D01*
X10239330Y3586154D01*
Y3583730D01*
X10259871D01*
Y3596270D01*
D02*
G37*
G36*
Y3581270D02*
X10239330D01*
Y3577072D01*
X10236151D01*
X10236150Y3577072D01*
X10235358Y3576914D01*
X10234685Y3576465D01*
X10234685Y3576465D01*
X10231187Y3572966D01*
X10229850Y3573232D01*
X10228116Y3572887D01*
X10226646Y3571905D01*
X10225663Y3570434D01*
X10225318Y3568700D01*
X10225663Y3566966D01*
X10226646Y3565495D01*
X10228116Y3564513D01*
X10229850Y3564168D01*
X10231584Y3564513D01*
X10233055Y3565495D01*
X10234037Y3566966D01*
X10234382Y3568700D01*
X10234116Y3570036D01*
X10237009Y3572928D01*
X10239330D01*
Y3568730D01*
X10259871D01*
Y3581270D01*
D02*
G37*
G36*
X10221940Y3588730D02*
X10198860D01*
Y3582460D01*
Y3576270D01*
X10221940D01*
Y3582460D01*
Y3588730D01*
D02*
G37*
G36*
Y3573730D02*
X10198860D01*
Y3567460D01*
Y3561270D01*
X10221940D01*
Y3567460D01*
Y3573730D01*
D02*
G37*
G36*
X10256100Y3566344D02*
X10243101D01*
X10241628Y3566051D01*
X10240382Y3565218D01*
X10239549Y3563971D01*
X10239256Y3562500D01*
Y3562072D01*
X10233850D01*
X10233057Y3561914D01*
X10232385Y3561465D01*
X10232385Y3561465D01*
X10231187Y3560266D01*
X10229850Y3560532D01*
X10228116Y3560187D01*
X10226646Y3559205D01*
X10225663Y3557734D01*
X10225318Y3556000D01*
X10225663Y3554266D01*
X10226646Y3552795D01*
X10228116Y3551813D01*
X10229850Y3551468D01*
X10231584Y3551813D01*
X10233055Y3552795D01*
X10234037Y3554266D01*
X10234382Y3556000D01*
X10234210Y3556865D01*
X10235132Y3557928D01*
X10239256D01*
Y3557500D01*
X10239549Y3556029D01*
X10240382Y3554782D01*
X10241628Y3553949D01*
X10243101Y3553656D01*
X10256100D01*
X10257571Y3553949D01*
X10258818Y3554782D01*
X10259651Y3556029D01*
X10259944Y3557500D01*
Y3562500D01*
X10259651Y3563971D01*
X10258818Y3565218D01*
X10257571Y3566051D01*
X10256100Y3566344D01*
D02*
G37*
G36*
X10221940Y3558730D02*
X10211670D01*
Y3552460D01*
X10221940D01*
Y3558730D01*
D02*
G37*
G36*
X10209130D02*
X10198860D01*
Y3552460D01*
X10209130D01*
Y3558730D01*
D02*
G37*
G36*
X10259871Y3541270D02*
X10239330D01*
Y3537072D01*
X10233484D01*
X10233095Y3537655D01*
X10231625Y3538637D01*
X10229890Y3538982D01*
X10228156Y3538637D01*
X10226686Y3537655D01*
X10225703Y3536184D01*
X10225358Y3534450D01*
X10225703Y3532716D01*
X10226686Y3531245D01*
X10228156Y3530263D01*
X10229890Y3529918D01*
X10231625Y3530263D01*
X10233095Y3531245D01*
X10234077Y3532716D01*
X10234119Y3532928D01*
X10239330D01*
Y3528730D01*
X10259871D01*
Y3541270D01*
D02*
G37*
G36*
X10221940Y3542540D02*
X10211670D01*
Y3536270D01*
X10221940D01*
Y3542540D01*
D02*
G37*
G36*
X10209130D02*
X10198860D01*
Y3536270D01*
X10209130D01*
Y3542540D01*
D02*
G37*
G36*
X10259871Y3526270D02*
X10239330D01*
Y3522072D01*
X10234310D01*
X10234037Y3523444D01*
X10233055Y3524915D01*
X10231584Y3525897D01*
X10229850Y3526242D01*
X10228116Y3525897D01*
X10226646Y3524915D01*
X10225663Y3523444D01*
X10225318Y3521710D01*
X10225663Y3519976D01*
X10226646Y3518505D01*
X10228116Y3517523D01*
X10229850Y3517178D01*
X10231584Y3517523D01*
X10232191Y3517928D01*
X10239330D01*
Y3513730D01*
X10259871D01*
Y3526270D01*
D02*
G37*
G36*
X10221940Y3533730D02*
X10198860D01*
Y3527460D01*
Y3521270D01*
X10221940D01*
Y3527460D01*
Y3533730D01*
D02*
G37*
G36*
Y3518730D02*
X10198860D01*
Y3512460D01*
Y3506270D01*
X10221940D01*
Y3512460D01*
Y3518730D01*
D02*
G37*
G36*
X10229850Y3513542D02*
X10228116Y3513197D01*
X10226646Y3512215D01*
X10225663Y3510744D01*
X10225318Y3509010D01*
X10225663Y3507276D01*
X10226646Y3505805D01*
X10228116Y3504823D01*
X10229850Y3504478D01*
X10231187Y3504744D01*
X10232395Y3503535D01*
X10233067Y3503086D01*
X10233860Y3502928D01*
X10233860Y3502928D01*
X10239256D01*
Y3502500D01*
X10239549Y3501029D01*
X10240382Y3499782D01*
X10241628Y3498949D01*
X10243101Y3498656D01*
X10256100D01*
X10257571Y3498949D01*
X10258818Y3499782D01*
X10259651Y3501029D01*
X10259944Y3502500D01*
Y3507500D01*
X10259651Y3508971D01*
X10258818Y3510218D01*
X10257571Y3511051D01*
X10256100Y3511344D01*
X10243101D01*
X10241628Y3511051D01*
X10240382Y3510218D01*
X10239549Y3508971D01*
X10239256Y3507500D01*
Y3507072D01*
X10235125D01*
X10234207Y3508130D01*
X10234382Y3509010D01*
X10234037Y3510744D01*
X10233055Y3512215D01*
X10231584Y3513197D01*
X10229850Y3513542D01*
D02*
G37*
G36*
X10221940Y3503730D02*
X10211670D01*
Y3497460D01*
X10221940D01*
Y3503730D01*
D02*
G37*
G36*
X10209130D02*
X10198860D01*
Y3497460D01*
X10209130D01*
Y3503730D01*
D02*
G37*
G36*
X10221940Y3487540D02*
X10211670D01*
Y3481270D01*
X10221940D01*
Y3487540D01*
D02*
G37*
G36*
X10209130D02*
X10198860D01*
Y3481270D01*
X10209130D01*
Y3487540D01*
D02*
G37*
G36*
X10259871Y3486270D02*
X10239330D01*
Y3480780D01*
X10232456Y3473906D01*
X10231120Y3474172D01*
X10229386Y3473827D01*
X10227915Y3472845D01*
X10226933Y3471374D01*
X10226588Y3469640D01*
X10226933Y3467906D01*
X10227915Y3466435D01*
X10229386Y3465453D01*
X10231120Y3465108D01*
X10232854Y3465453D01*
X10234325Y3466435D01*
X10235307Y3467906D01*
X10235652Y3469640D01*
X10235386Y3470976D01*
X10238135Y3473725D01*
X10239330Y3473730D01*
Y3473730D01*
X10239330Y3473730D01*
X10259871D01*
Y3486270D01*
D02*
G37*
G36*
X10221940Y3478730D02*
X10198860D01*
Y3472460D01*
Y3466270D01*
X10221940D01*
Y3472460D01*
Y3478730D01*
D02*
G37*
G36*
X10259871Y3471270D02*
X10239330D01*
Y3468314D01*
X10239100Y3467072D01*
X10238307Y3466914D01*
X10237635Y3466465D01*
X10237635Y3466465D01*
X10233686Y3462516D01*
X10232350Y3462782D01*
X10230615Y3462437D01*
X10229145Y3461455D01*
X10228163Y3459984D01*
X10227818Y3458250D01*
X10228163Y3456516D01*
X10229145Y3455045D01*
X10230615Y3454063D01*
X10232350Y3453718D01*
X10234084Y3454063D01*
X10235554Y3455045D01*
X10236537Y3456516D01*
X10236882Y3458250D01*
X10236616Y3459586D01*
X10238157Y3461127D01*
X10239330Y3460641D01*
Y3458730D01*
X10259871D01*
Y3471270D01*
D02*
G37*
G36*
X10221940Y3463730D02*
X10198860D01*
Y3457460D01*
Y3451270D01*
X10221940D01*
Y3457460D01*
Y3463730D01*
D02*
G37*
G36*
X10256100Y3456344D02*
X10243101D01*
X10241628Y3456052D01*
X10240382Y3455218D01*
X10239549Y3453971D01*
X10239256Y3452500D01*
Y3452072D01*
X10236880D01*
X10236088Y3451914D01*
X10235415Y3451465D01*
X10235415Y3451465D01*
X10233766Y3449816D01*
X10232430Y3450082D01*
X10230696Y3449737D01*
X10229225Y3448755D01*
X10228243Y3447285D01*
X10227898Y3445550D01*
X10228243Y3443816D01*
X10229225Y3442346D01*
X10230696Y3441363D01*
X10232430Y3441018D01*
X10234164Y3441363D01*
X10235635Y3442346D01*
X10236617Y3443816D01*
X10236962Y3445550D01*
X10236696Y3446886D01*
X10237739Y3447928D01*
X10239256D01*
Y3447500D01*
X10239549Y3446029D01*
X10240382Y3444782D01*
X10241628Y3443949D01*
X10243101Y3443656D01*
X10256100D01*
X10257571Y3443949D01*
X10258818Y3444782D01*
X10259651Y3446029D01*
X10259944Y3447500D01*
Y3452500D01*
X10259651Y3453971D01*
X10258818Y3455218D01*
X10257571Y3456052D01*
X10256100Y3456344D01*
D02*
G37*
G36*
X10221940Y3448730D02*
X10211670D01*
Y3442460D01*
X10221940D01*
Y3448730D01*
D02*
G37*
G36*
X10209130D02*
X10198860D01*
Y3442460D01*
X10209130D01*
Y3448730D01*
D02*
G37*
%LPD*%
D10*
X10249600Y3450000D02*
D03*
Y3505000D02*
D03*
Y3560000D02*
D03*
Y3615000D02*
D03*
Y3670000D02*
D03*
Y3725000D02*
D03*
Y3780000D02*
D03*
Y3835000D02*
D03*
Y3890000D02*
D03*
Y3945000D02*
D03*
Y4000000D02*
D03*
Y4055000D02*
D03*
Y4110000D02*
D03*
Y4165000D02*
D03*
Y4220000D02*
D03*
Y4275000D02*
D03*
Y4330000D02*
D03*
Y4385000D02*
D03*
Y4440000D02*
D03*
Y4495000D02*
D03*
Y4550000D02*
D03*
Y4605000D02*
D03*
Y4660000D02*
D03*
Y4715000D02*
D03*
Y4770000D02*
D03*
Y4825000D02*
D03*
Y4880000D02*
D03*
Y4935000D02*
D03*
Y4990000D02*
D03*
Y5045000D02*
D03*
D11*
Y3465000D02*
D03*
Y3480000D02*
D03*
X10210400Y3450000D02*
D03*
Y3465000D02*
D03*
Y3480000D02*
D03*
X10249600Y3520000D02*
D03*
Y3535000D02*
D03*
X10210400Y3505000D02*
D03*
Y3520000D02*
D03*
Y3535000D02*
D03*
X10249600Y3575000D02*
D03*
Y3590000D02*
D03*
X10210400Y3560000D02*
D03*
Y3575000D02*
D03*
Y3590000D02*
D03*
X10249600Y3630000D02*
D03*
Y3645000D02*
D03*
X10210400Y3615000D02*
D03*
Y3630000D02*
D03*
Y3645000D02*
D03*
X10249600Y3685000D02*
D03*
Y3700000D02*
D03*
X10210400Y3670000D02*
D03*
Y3685000D02*
D03*
Y3700000D02*
D03*
X10249600Y3740000D02*
D03*
Y3755000D02*
D03*
X10210400Y3725000D02*
D03*
Y3740000D02*
D03*
Y3755000D02*
D03*
X10249600Y3795000D02*
D03*
Y3810000D02*
D03*
X10210400Y3780000D02*
D03*
Y3795000D02*
D03*
Y3810000D02*
D03*
X10249600Y3850000D02*
D03*
Y3865000D02*
D03*
X10210400Y3835000D02*
D03*
Y3850000D02*
D03*
Y3865000D02*
D03*
X10249600Y3905000D02*
D03*
Y3920000D02*
D03*
X10210400Y3890000D02*
D03*
Y3905000D02*
D03*
Y3920000D02*
D03*
X10249600Y3960000D02*
D03*
Y3975000D02*
D03*
X10210400Y3945000D02*
D03*
Y3960000D02*
D03*
Y3975000D02*
D03*
X10249600Y4015000D02*
D03*
Y4030000D02*
D03*
X10210400Y4000000D02*
D03*
Y4015000D02*
D03*
Y4030000D02*
D03*
X10249600Y4070000D02*
D03*
Y4085000D02*
D03*
X10210400Y4055000D02*
D03*
Y4070000D02*
D03*
Y4085000D02*
D03*
X10249600Y4125000D02*
D03*
Y4140000D02*
D03*
X10210400Y4110000D02*
D03*
Y4125000D02*
D03*
Y4140000D02*
D03*
X10249600Y4180000D02*
D03*
Y4195000D02*
D03*
X10210400Y4165000D02*
D03*
Y4180000D02*
D03*
Y4195000D02*
D03*
X10249600Y4235000D02*
D03*
Y4250000D02*
D03*
X10210400Y4220000D02*
D03*
Y4235000D02*
D03*
Y4250000D02*
D03*
X10249600Y4290000D02*
D03*
Y4305000D02*
D03*
X10210400Y4275000D02*
D03*
Y4290000D02*
D03*
Y4305000D02*
D03*
X10249600Y4345000D02*
D03*
Y4360000D02*
D03*
X10210400Y4330000D02*
D03*
Y4345000D02*
D03*
Y4360000D02*
D03*
X10249600Y4400000D02*
D03*
Y4415000D02*
D03*
X10210400Y4385000D02*
D03*
Y4400000D02*
D03*
Y4415000D02*
D03*
X10249600Y4455000D02*
D03*
Y4470000D02*
D03*
X10210400Y4440000D02*
D03*
Y4455000D02*
D03*
Y4470000D02*
D03*
X10249600Y4510000D02*
D03*
Y4525000D02*
D03*
X10210400Y4495000D02*
D03*
Y4510000D02*
D03*
Y4525000D02*
D03*
X10249600Y4565000D02*
D03*
Y4580000D02*
D03*
X10210400Y4550000D02*
D03*
Y4565000D02*
D03*
Y4580000D02*
D03*
X10249600Y4620000D02*
D03*
Y4635000D02*
D03*
X10210400Y4605000D02*
D03*
Y4620000D02*
D03*
Y4635000D02*
D03*
X10249600Y4675000D02*
D03*
Y4690000D02*
D03*
X10210400Y4660000D02*
D03*
Y4675000D02*
D03*
Y4690000D02*
D03*
X10249600Y4730000D02*
D03*
Y4745000D02*
D03*
X10210400Y4715000D02*
D03*
Y4730000D02*
D03*
Y4745000D02*
D03*
X10249600Y4785000D02*
D03*
Y4800000D02*
D03*
X10210400Y4770000D02*
D03*
Y4785000D02*
D03*
Y4800000D02*
D03*
X10249600Y4840000D02*
D03*
Y4855000D02*
D03*
X10210400Y4825000D02*
D03*
Y4840000D02*
D03*
Y4855000D02*
D03*
X10249600Y4895000D02*
D03*
Y4910000D02*
D03*
X10210400Y4880000D02*
D03*
Y4895000D02*
D03*
Y4910000D02*
D03*
X10249600Y4950000D02*
D03*
Y4965000D02*
D03*
X10210400Y4935000D02*
D03*
Y4950000D02*
D03*
Y4965000D02*
D03*
X10249600Y5005000D02*
D03*
Y5020000D02*
D03*
X10210400Y4990000D02*
D03*
Y5005000D02*
D03*
Y5020000D02*
D03*
X10249600Y5060000D02*
D03*
Y5075000D02*
D03*
X10210400Y5045000D02*
D03*
Y5060000D02*
D03*
Y5075000D02*
D03*
D12*
X10285880Y4922520D02*
X10290000Y4918400D01*
X10172390D02*
X10176510Y4922520D01*
X10231120Y5069840D02*
X10238740D01*
X10243900Y5075000D01*
X10249600D01*
X10231120Y5059680D02*
X10231440Y5060000D01*
X10249600D01*
X10231120Y5046980D02*
X10233100Y5045000D01*
X10249600D01*
X10229850Y5015230D02*
X10234620Y5020000D01*
X10249600D01*
X10229850Y5003800D02*
X10231050Y5005000D01*
X10249600D01*
X10229850Y4988560D02*
X10238740D01*
X10240181Y4990000D01*
X10249600D01*
X10229850Y4959350D02*
X10238740D01*
X10244390Y4965000D01*
X10249600D01*
X10229850Y4946650D02*
X10238740D01*
X10242090Y4950000D01*
X10249600D01*
X10229850Y4933950D02*
X10230900Y4935000D01*
X10249600D01*
X10229850Y4895850D02*
X10244000Y4910000D01*
X10249600D01*
X10229850Y4883150D02*
X10241700Y4895000D01*
X10249600D01*
X10229850Y4870450D02*
X10240050D01*
X10249600Y4880000D01*
X10229850Y4853940D02*
X10230910Y4855000D01*
X10249600D01*
X10229850Y4841240D02*
X10231090Y4840000D01*
X10249600D01*
X10229850Y4827270D02*
X10232120Y4825000D01*
X10249600D01*
X10229850Y4790440D02*
X10233660D01*
X10243220Y4800000D01*
X10249600D01*
X10229850Y4777740D02*
X10236200D01*
X10243459Y4785000D01*
X10249600D01*
X10229850Y4765040D02*
X10240010D01*
X10244971Y4770000D01*
X10249600D01*
X10229850Y4743450D02*
X10231400Y4745000D01*
X10249600D01*
X10229850Y4730750D02*
X10230600Y4730000D01*
X10249600D01*
X10229850Y4718050D02*
X10232900Y4715000D01*
X10249600D01*
X10229850Y4679950D02*
X10239900Y4690000D01*
X10249600D01*
X10229850Y4667250D02*
X10237600Y4675000D01*
X10249600D01*
X10229850Y4655820D02*
X10234030Y4660000D01*
X10249600D01*
X10229850Y4635500D02*
X10230350Y4635000D01*
X10249600D01*
X10229850Y4622800D02*
X10232650Y4620000D01*
X10249600D01*
X10229850Y4610100D02*
X10234950Y4605000D01*
X10249600D01*
X10229850Y4572000D02*
X10237850Y4580000D01*
X10249600D01*
X10229850Y4559300D02*
X10235550Y4565000D01*
X10249600D01*
X10229850Y4545330D02*
X10234520Y4550000D01*
X10249600D01*
X10229850Y4523740D02*
X10231110Y4525000D01*
X10249600D01*
X10229850Y4512310D02*
X10232160Y4510000D01*
X10249600D01*
X10229850Y4499610D02*
X10234460Y4495000D01*
X10249600D01*
X10158015Y3449400D02*
X10209800D01*
X10170160Y3434842D02*
Y3446606D01*
Y3434842D02*
X10172446Y3432556D01*
X10290697D01*
X10302494Y3444353D01*
Y4944956D01*
X10290000Y4957450D02*
X10302494Y4944956D01*
X10290000Y4957450D02*
Y4969200D01*
Y4943800D02*
X10299700Y4934100D01*
Y3445510D02*
Y4934100D01*
X10289540Y3435350D02*
X10299700Y3445510D01*
X10189210Y3435350D02*
X10289540D01*
X10181590Y3442970D02*
X10189210Y3435350D01*
X10229850Y4461510D02*
X10239236D01*
X10247727Y4470000D01*
X10249600D01*
X10229850Y4447540D02*
X10237310Y4455000D01*
X10249600D01*
X10229850Y4434840D02*
X10235010Y4440000D01*
X10249600D01*
X10229850Y4414520D02*
X10230330Y4415000D01*
X10249600D01*
X10229850Y4400550D02*
X10230400Y4400000D01*
X10249600D01*
X10229850Y4389120D02*
X10233970Y4385000D01*
X10249600D01*
X10229850Y4351020D02*
X10238830Y4360000D01*
X10249600D01*
X10229850Y4338320D02*
X10236530Y4345000D01*
X10249600D01*
X10229850Y4325620D02*
X10234230Y4330000D01*
X10249600D01*
X10229850Y4304030D02*
X10230820Y4305000D01*
X10249600D01*
X10229850Y4292600D02*
X10232450Y4290000D01*
X10249600D01*
X10229850Y4279900D02*
X10234750Y4275000D01*
X10249600D01*
X10229850Y4241800D02*
X10238050Y4250000D01*
X10249600D01*
X10230270Y4228250D02*
X10237020Y4235000D01*
X10249600D01*
X10229850Y4216400D02*
X10233450Y4220000D01*
X10249600D01*
X10229850Y4194810D02*
X10230040Y4195000D01*
X10249600D01*
X10229850Y4182110D02*
X10231960Y4180000D01*
X10249600D01*
X10229850Y4169410D02*
X10234260Y4165000D01*
X10249600D01*
X10229850Y4131310D02*
X10238540Y4140000D01*
X10249600D01*
X10229850Y4118610D02*
X10236240Y4125000D01*
X10249600D01*
X10229850Y4105910D02*
X10245510D01*
X10249600Y4110000D01*
X10229850Y4084320D02*
X10230530Y4085000D01*
X10249600D01*
X10229850Y4071620D02*
X10231470Y4070000D01*
X10249600D01*
X10229850Y4058920D02*
X10233770Y4055000D01*
X10249600D01*
X10229980Y4020950D02*
X10239030Y4030000D01*
X10249600D01*
X10229850Y4008120D02*
X10236730Y4015000D01*
X10249600D01*
X10229850Y3995420D02*
X10234430Y4000000D01*
X10249600D01*
X10229850Y3973830D02*
X10231020Y3975000D01*
X10249600D01*
X10229850Y3961130D02*
X10230980Y3960000D01*
X10249600D01*
X10229850Y3948430D02*
X10233280Y3945000D01*
X10249600D01*
X10230470Y3910950D02*
X10239520Y3920000D01*
X10249600D01*
X10229850Y3898900D02*
X10235950Y3905000D01*
X10249600D01*
X10229850Y3886200D02*
X10233650Y3890000D01*
X10249600D01*
X10230010Y3864450D02*
X10230560Y3865000D01*
X10249600D01*
X10229850Y3851910D02*
X10231760Y3850000D01*
X10249600D01*
X10229850Y3839210D02*
X10234060Y3835000D01*
X10249600D01*
X10229850Y3801110D02*
X10238740Y3810000D01*
X10249600D01*
X10229850Y3788410D02*
X10236440Y3795000D01*
X10249600D01*
X10229850Y3775710D02*
X10234140Y3780000D01*
X10249600D01*
X10229850Y3754120D02*
X10230730Y3755000D01*
X10249600D01*
X10229850Y3741420D02*
X10231270Y3740000D01*
X10249600D01*
X10229850Y3728720D02*
X10233570Y3725000D01*
X10249600D01*
X10229850Y3690620D02*
X10239230Y3700000D01*
X10249600D01*
X10229850Y3677920D02*
X10236930Y3685000D01*
X10249600D01*
X10229850Y3665220D02*
X10234630Y3670000D01*
X10249600D01*
X10230300Y3644450D02*
X10230850Y3645000D01*
X10249600D01*
X10229850Y3632200D02*
X10232050Y3630000D01*
X10249600D01*
X10229850Y3619500D02*
X10234350Y3615000D01*
X10249600D01*
X10229850Y3581400D02*
X10238450Y3590000D01*
X10249600D01*
X10229850Y3568700D02*
X10236150Y3575000D01*
X10249600D01*
X10229850Y3556000D02*
X10233850Y3560000D01*
X10249600D01*
X10229890Y3534450D02*
X10230440Y3535000D01*
X10249600D01*
X10229850Y3521710D02*
X10231560Y3520000D01*
X10249600D01*
X10229850Y3509010D02*
X10233860Y3505000D01*
X10249600D01*
X10231120Y3469640D02*
X10241481Y3480000D01*
X10249600D01*
X10232350Y3458250D02*
X10239100Y3465000D01*
X10249600D01*
X10232430Y3445550D02*
X10236880Y3450000D01*
X10249600D01*
X10158015Y3505200D02*
Y3558540D01*
Y3449400D02*
Y3505200D01*
X10210400Y3520000D02*
Y3535000D01*
Y3505000D02*
Y3520000D01*
X10158015Y3505200D02*
X10158215Y3505000D01*
X10210400D01*
X10158015Y3558540D02*
Y3615055D01*
X10210400Y3575000D02*
Y3590000D01*
Y3560000D02*
Y3575000D01*
X10158015Y3558540D02*
X10208940D01*
X10210400Y3560000D01*
X10158015Y3615055D02*
Y3668395D01*
X10210400Y3630000D02*
Y3645000D01*
Y3615000D02*
Y3630000D01*
X10158015Y3615055D02*
X10158070Y3615000D01*
X10210400D01*
X10158015Y3668395D02*
Y3725545D01*
X10210400Y3685000D02*
Y3700000D01*
Y3670000D02*
Y3685000D01*
X10158015Y3668395D02*
X10208795D01*
X10210400Y3670000D01*
X10158015Y3725545D02*
Y3776980D01*
X10210400Y3740000D02*
Y3755000D01*
Y3725000D02*
Y3740000D01*
X10158015Y3725545D02*
X10158560Y3725000D01*
X10210400D01*
X10158015Y3776980D02*
Y3833495D01*
X10210400Y3795000D02*
Y3810000D01*
Y3780000D02*
Y3795000D01*
X10158015Y3776980D02*
X10207380D01*
X10210400Y3780000D01*
X10158015Y3833495D02*
Y3888740D01*
X10210400Y3850000D02*
Y3865000D01*
Y3835000D02*
Y3850000D01*
X10158015Y3833495D02*
X10208895D01*
X10210400Y3835000D01*
X10158015Y3888740D02*
Y3945255D01*
X10210400Y3905000D02*
Y3920000D01*
Y3890000D02*
Y3905000D01*
X10158015Y3888740D02*
X10209141D01*
X10210400Y3890000D01*
X10158015Y3945255D02*
Y4001135D01*
X10210400Y3960000D02*
Y3975000D01*
Y3945000D02*
Y3960000D01*
X10158015Y3945255D02*
X10158650Y3944620D01*
X10210020D01*
X10210400Y3945000D01*
X10158015Y4001135D02*
Y4055110D01*
X10210400Y4015000D02*
Y4030000D01*
Y4000000D02*
Y4015000D01*
X10158015Y4001135D02*
X10159150Y4000000D01*
X10210400D01*
X10158015Y4055110D02*
Y4110355D01*
X10210400Y4070000D02*
Y4085000D01*
Y4055000D02*
Y4070000D01*
X10158015Y4055110D02*
X10158126Y4055000D01*
X10210400D01*
X10158015Y4110355D02*
Y4163060D01*
X10210400Y4125000D02*
Y4140000D01*
Y4110000D02*
Y4125000D01*
X10158015Y4110355D02*
X10158370Y4110000D01*
X10210400D01*
X10158015Y4163060D02*
Y4219575D01*
X10210400Y4180000D02*
Y4195000D01*
Y4165000D02*
Y4180000D01*
X10158015Y4163060D02*
X10208460D01*
X10210400Y4165000D01*
X10158015Y4219575D02*
Y4274820D01*
X10210400Y4235000D02*
Y4250000D01*
Y4220000D02*
Y4235000D01*
X10158015Y4219575D02*
X10209975D01*
X10210400Y4220000D01*
X10158015Y4274820D02*
Y4330065D01*
X10210400Y4290000D02*
Y4305000D01*
Y4275000D02*
Y4290000D01*
X10158015Y4274820D02*
X10210220D01*
X10210400Y4275000D01*
X10158015Y4330065D02*
Y4383405D01*
X10210400Y4345000D02*
Y4360000D01*
Y4330000D02*
Y4345000D01*
X10158015Y4330065D02*
X10158080Y4330000D01*
X10210400D01*
X10158015Y4383405D02*
Y4439285D01*
X10210400Y4400000D02*
Y4415000D01*
Y4385000D02*
Y4400000D01*
X10158015Y4383405D02*
X10208805D01*
X10210400Y4385000D01*
X10158015Y4439285D02*
Y4494530D01*
X10210400Y4455000D02*
Y4470000D01*
Y4440000D02*
Y4455000D01*
X10158015Y4439285D02*
X10209685D01*
X10210400Y4440000D01*
X10158015Y4494530D02*
Y4548505D01*
X10210400Y4510000D02*
Y4525000D01*
Y4495000D02*
Y4510000D01*
X10158015Y4494530D02*
X10209930D01*
X10210400Y4495000D01*
X10158015Y4548505D02*
Y4603115D01*
X10210400Y4565000D02*
Y4580000D01*
Y4550000D02*
Y4565000D01*
X10158015Y4548505D02*
X10208905D01*
X10210400Y4550000D01*
X10158015Y4603115D02*
Y4659630D01*
X10210400Y4620000D02*
Y4635000D01*
Y4605000D02*
Y4620000D01*
X10158015Y4603115D02*
X10208515D01*
X10210400Y4605000D01*
X10158015Y4659630D02*
Y4712970D01*
X10210400Y4675000D02*
Y4690000D01*
Y4660000D02*
Y4675000D01*
X10158015Y4659630D02*
X10210031D01*
X10210400Y4660000D01*
X10158015Y4712970D02*
Y4770120D01*
X10210400Y4730000D02*
Y4745000D01*
Y4715000D02*
Y4730000D01*
X10158015Y4712970D02*
X10208370D01*
X10210400Y4715000D01*
X10158015Y4770120D02*
Y4832985D01*
X10210400Y4785000D02*
Y4800000D01*
Y4770000D02*
Y4785000D01*
X10158015Y4770120D02*
X10158135Y4770000D01*
X10210400D01*
X10158015Y4832985D02*
Y4880610D01*
X10210400Y4832985D02*
Y4840000D01*
Y4825000D02*
Y4832985D01*
X10158015D02*
X10165565D01*
X10166002Y4832548D01*
X10209963D01*
X10210400Y4832985D01*
Y4840000D02*
Y4855000D01*
X10158015Y4880610D02*
Y4933950D01*
Y4880610D02*
X10158625Y4880000D01*
X10210400D01*
Y4895000D02*
Y4910000D01*
Y4880000D02*
Y4895000D01*
X10170000Y4791400D02*
Y4816800D01*
X10290000Y4791400D02*
Y4816800D01*
X10170000D02*
X10290000D01*
X10284785Y4867600D02*
X10290000D01*
X10170000D02*
X10174915D01*
X10170000Y4918400D02*
X10172390D01*
X10158015Y4933950D02*
Y4959985D01*
X10158214Y4934148D02*
X10210400D01*
X10158015Y4933950D02*
X10158214Y4934148D01*
X10210400D02*
Y4935000D01*
Y4950000D02*
Y4965000D01*
Y4935000D02*
Y4950000D01*
X10279380Y4954420D02*
X10290000Y4943800D01*
X10279380Y4954420D02*
Y4973320D01*
X10273665Y4979035D02*
X10279380Y4973320D01*
X10205720Y4979035D02*
X10273665D01*
X10170485Y4943800D02*
X10205720Y4979035D01*
X10170000Y4943800D02*
X10170485D01*
X10210400Y5060000D02*
Y5075000D01*
Y5045000D02*
Y5060000D01*
X10158015Y4959985D02*
Y5075000D01*
X10210400Y5005000D02*
Y5020000D01*
Y4990000D02*
Y5005000D01*
X10158015Y4959985D02*
X10165565D01*
X10166002Y4959548D01*
X10179948D01*
X10210400Y4990000D01*
X10290000Y4969200D02*
Y4980950D01*
X10277220Y4993729D02*
X10290000Y4980950D01*
X10277220Y4993729D02*
Y5023104D01*
X10270109Y5030216D02*
X10277220Y5023104D01*
X10192907Y5030216D02*
X10270109D01*
X10186289Y5023598D02*
X10192907Y5030216D01*
X10186289Y4985489D02*
Y5023598D01*
X10170000Y4969200D02*
X10186289Y4985489D01*
X10280015Y5004585D02*
X10290000Y4994600D01*
X10280015Y5004585D02*
Y5024755D01*
X10271760Y5033010D02*
X10280015Y5024755D01*
X10191750Y5033010D02*
X10271760D01*
X10183495Y5024755D02*
X10191750Y5033010D01*
X10183495Y5008095D02*
Y5024755D01*
X10170000Y4994600D02*
X10183495Y5008095D01*
X10273816Y5036185D02*
X10290000Y5020000D01*
X10189210Y5036185D02*
X10273816D01*
X10173025Y5020000D02*
X10189210Y5036185D01*
X10170000Y5020000D02*
X10173025D01*
X10158015Y5075000D02*
X10210400D01*
D13*
X10176510Y4922520D02*
X10285880D01*
X10290000Y4842200D02*
Y4867600D01*
X10280015Y4862830D02*
X10284785Y4867600D01*
X10179685Y4862830D02*
X10280015D01*
X10174915Y4867600D02*
X10179685Y4862830D01*
X10170000Y4842200D02*
Y4867600D01*
X10290000Y4893000D02*
Y4918400D01*
X10170000Y4893000D02*
Y4918400D01*
D14*
Y4791400D02*
D03*
Y4816800D02*
D03*
Y4842200D02*
D03*
Y4867600D02*
D03*
Y4893000D02*
D03*
Y4918400D02*
D03*
Y4943800D02*
D03*
Y4969200D02*
D03*
Y4994600D02*
D03*
X10290000Y4791400D02*
D03*
Y4816800D02*
D03*
Y4842200D02*
D03*
Y4867600D02*
D03*
Y4893000D02*
D03*
Y4918400D02*
D03*
Y4943800D02*
D03*
Y4969200D02*
D03*
Y4994600D02*
D03*
D15*
X10170000Y5020000D02*
D03*
X10290000D02*
D03*
D16*
X10231120Y5069840D02*
D03*
Y5059680D02*
D03*
Y5046980D02*
D03*
X10229850Y5015230D02*
D03*
Y5003800D02*
D03*
Y4988560D02*
D03*
Y4959350D02*
D03*
Y4946650D02*
D03*
Y4933950D02*
D03*
Y4895850D02*
D03*
Y4883150D02*
D03*
Y4870450D02*
D03*
Y4853940D02*
D03*
Y4841240D02*
D03*
Y4827270D02*
D03*
Y4790440D02*
D03*
Y4777740D02*
D03*
Y4765040D02*
D03*
Y4743450D02*
D03*
Y4730750D02*
D03*
Y4718050D02*
D03*
Y4679950D02*
D03*
Y4667250D02*
D03*
Y4655820D02*
D03*
Y4635500D02*
D03*
Y4622800D02*
D03*
Y4610100D02*
D03*
Y4572000D02*
D03*
Y4559300D02*
D03*
Y4545330D02*
D03*
Y4523740D02*
D03*
Y4512310D02*
D03*
Y4499610D02*
D03*
X10170160Y3442970D02*
D03*
X10181590D02*
D03*
X10229850Y4461510D02*
D03*
Y4447540D02*
D03*
Y4434840D02*
D03*
Y4414520D02*
D03*
Y4400550D02*
D03*
Y4389120D02*
D03*
Y4351020D02*
D03*
Y4338320D02*
D03*
Y4325620D02*
D03*
Y4304030D02*
D03*
Y4292600D02*
D03*
Y4279900D02*
D03*
Y4241800D02*
D03*
X10230270Y4228250D02*
D03*
X10229850Y4216400D02*
D03*
Y4194810D02*
D03*
Y4182110D02*
D03*
Y4169410D02*
D03*
Y4131310D02*
D03*
Y4118610D02*
D03*
Y4105910D02*
D03*
Y4084320D02*
D03*
Y4071620D02*
D03*
Y4058920D02*
D03*
X10229980Y4020950D02*
D03*
X10229850Y4008120D02*
D03*
Y3995420D02*
D03*
Y3973830D02*
D03*
Y3961130D02*
D03*
Y3948430D02*
D03*
X10230470Y3910950D02*
D03*
X10229850Y3898900D02*
D03*
Y3886200D02*
D03*
X10230010Y3864450D02*
D03*
X10229850Y3851910D02*
D03*
Y3839210D02*
D03*
Y3801110D02*
D03*
Y3788410D02*
D03*
Y3775710D02*
D03*
Y3754120D02*
D03*
Y3741420D02*
D03*
Y3728720D02*
D03*
Y3690620D02*
D03*
Y3677920D02*
D03*
Y3665220D02*
D03*
X10230300Y3644450D02*
D03*
X10229850Y3632200D02*
D03*
Y3619500D02*
D03*
Y3581400D02*
D03*
Y3568700D02*
D03*
Y3556000D02*
D03*
X10229890Y3534450D02*
D03*
X10229850Y3521710D02*
D03*
Y3509010D02*
D03*
X10232350Y3458250D02*
D03*
X10231120Y3469640D02*
D03*
X10232430Y3445550D02*
D03*
M02*
