G04 Layer_Color=255*
%FSLAX44Y44*%
%MOMM*%
G71*
G01*
G75*
G04:AMPARAMS|DCode=10|XSize=1mm|YSize=1.8mm|CornerRadius=0.25mm|HoleSize=0mm|Usage=FLASHONLY|Rotation=90.000|XOffset=0mm|YOffset=0mm|HoleType=Round|Shape=RoundedRectangle|*
%AMROUNDEDRECTD10*
21,1,1.0000,1.3000,0,0,90.0*
21,1,0.5000,1.8000,0,0,90.0*
1,1,0.5000,0.6500,0.2500*
1,1,0.5000,0.6500,-0.2500*
1,1,0.5000,-0.6500,-0.2500*
1,1,0.5000,-0.6500,0.2500*
%
%ADD10ROUNDEDRECTD10*%
%ADD11R,1.8000X1.0000*%
%ADD14C,1.5240*%
%ADD15R,1.5240X1.5240*%
D10*
X10249600Y3450000D02*
D03*
Y3505000D02*
D03*
Y3560000D02*
D03*
Y3615000D02*
D03*
Y3670000D02*
D03*
Y3725000D02*
D03*
Y3780000D02*
D03*
Y3835000D02*
D03*
Y3890000D02*
D03*
Y3945000D02*
D03*
Y4000000D02*
D03*
Y4055000D02*
D03*
Y4110000D02*
D03*
Y4165000D02*
D03*
Y4220000D02*
D03*
Y4275000D02*
D03*
Y4330000D02*
D03*
Y4385000D02*
D03*
Y4440000D02*
D03*
Y4495000D02*
D03*
Y4550000D02*
D03*
Y4605000D02*
D03*
Y4660000D02*
D03*
Y4715000D02*
D03*
Y4770000D02*
D03*
Y4825000D02*
D03*
Y4880000D02*
D03*
Y4935000D02*
D03*
Y4990000D02*
D03*
Y5045000D02*
D03*
D11*
Y3465000D02*
D03*
Y3480000D02*
D03*
X10210400Y3450000D02*
D03*
Y3465000D02*
D03*
Y3480000D02*
D03*
X10249600Y3520000D02*
D03*
Y3535000D02*
D03*
X10210400Y3505000D02*
D03*
Y3520000D02*
D03*
Y3535000D02*
D03*
X10249600Y3575000D02*
D03*
Y3590000D02*
D03*
X10210400Y3560000D02*
D03*
Y3575000D02*
D03*
Y3590000D02*
D03*
X10249600Y3630000D02*
D03*
Y3645000D02*
D03*
X10210400Y3615000D02*
D03*
Y3630000D02*
D03*
Y3645000D02*
D03*
X10249600Y3685000D02*
D03*
Y3700000D02*
D03*
X10210400Y3670000D02*
D03*
Y3685000D02*
D03*
Y3700000D02*
D03*
X10249600Y3740000D02*
D03*
Y3755000D02*
D03*
X10210400Y3725000D02*
D03*
Y3740000D02*
D03*
Y3755000D02*
D03*
X10249600Y3795000D02*
D03*
Y3810000D02*
D03*
X10210400Y3780000D02*
D03*
Y3795000D02*
D03*
Y3810000D02*
D03*
X10249600Y3850000D02*
D03*
Y3865000D02*
D03*
X10210400Y3835000D02*
D03*
Y3850000D02*
D03*
Y3865000D02*
D03*
X10249600Y3905000D02*
D03*
Y3920000D02*
D03*
X10210400Y3890000D02*
D03*
Y3905000D02*
D03*
Y3920000D02*
D03*
X10249600Y3960000D02*
D03*
Y3975000D02*
D03*
X10210400Y3945000D02*
D03*
Y3960000D02*
D03*
Y3975000D02*
D03*
X10249600Y4015000D02*
D03*
Y4030000D02*
D03*
X10210400Y4000000D02*
D03*
Y4015000D02*
D03*
Y4030000D02*
D03*
X10249600Y4070000D02*
D03*
Y4085000D02*
D03*
X10210400Y4055000D02*
D03*
Y4070000D02*
D03*
Y4085000D02*
D03*
X10249600Y4125000D02*
D03*
Y4140000D02*
D03*
X10210400Y4110000D02*
D03*
Y4125000D02*
D03*
Y4140000D02*
D03*
X10249600Y4180000D02*
D03*
Y4195000D02*
D03*
X10210400Y4165000D02*
D03*
Y4180000D02*
D03*
Y4195000D02*
D03*
X10249600Y4235000D02*
D03*
Y4250000D02*
D03*
X10210400Y4220000D02*
D03*
Y4235000D02*
D03*
Y4250000D02*
D03*
X10249600Y4290000D02*
D03*
Y4305000D02*
D03*
X10210400Y4275000D02*
D03*
Y4290000D02*
D03*
Y4305000D02*
D03*
X10249600Y4345000D02*
D03*
Y4360000D02*
D03*
X10210400Y4330000D02*
D03*
Y4345000D02*
D03*
Y4360000D02*
D03*
X10249600Y4400000D02*
D03*
Y4415000D02*
D03*
X10210400Y4385000D02*
D03*
Y4400000D02*
D03*
Y4415000D02*
D03*
X10249600Y4455000D02*
D03*
Y4470000D02*
D03*
X10210400Y4440000D02*
D03*
Y4455000D02*
D03*
Y4470000D02*
D03*
X10249600Y4510000D02*
D03*
Y4525000D02*
D03*
X10210400Y4495000D02*
D03*
Y4510000D02*
D03*
Y4525000D02*
D03*
X10249600Y4565000D02*
D03*
Y4580000D02*
D03*
X10210400Y4550000D02*
D03*
Y4565000D02*
D03*
Y4580000D02*
D03*
X10249600Y4620000D02*
D03*
Y4635000D02*
D03*
X10210400Y4605000D02*
D03*
Y4620000D02*
D03*
Y4635000D02*
D03*
X10249600Y4675000D02*
D03*
Y4690000D02*
D03*
X10210400Y4660000D02*
D03*
Y4675000D02*
D03*
Y4690000D02*
D03*
X10249600Y4730000D02*
D03*
Y4745000D02*
D03*
X10210400Y4715000D02*
D03*
Y4730000D02*
D03*
Y4745000D02*
D03*
X10249600Y4785000D02*
D03*
Y4800000D02*
D03*
X10210400Y4770000D02*
D03*
Y4785000D02*
D03*
Y4800000D02*
D03*
X10249600Y4840000D02*
D03*
Y4855000D02*
D03*
X10210400Y4825000D02*
D03*
Y4840000D02*
D03*
Y4855000D02*
D03*
X10249600Y4895000D02*
D03*
Y4910000D02*
D03*
X10210400Y4880000D02*
D03*
Y4895000D02*
D03*
Y4910000D02*
D03*
X10249600Y4950000D02*
D03*
Y4965000D02*
D03*
X10210400Y4935000D02*
D03*
Y4950000D02*
D03*
Y4965000D02*
D03*
X10249600Y5005000D02*
D03*
Y5020000D02*
D03*
X10210400Y4990000D02*
D03*
Y5005000D02*
D03*
Y5020000D02*
D03*
X10249600Y5060000D02*
D03*
Y5075000D02*
D03*
X10210400Y5045000D02*
D03*
Y5060000D02*
D03*
Y5075000D02*
D03*
D14*
X10170000Y4791400D02*
D03*
Y4816800D02*
D03*
Y4842200D02*
D03*
Y4867600D02*
D03*
Y4893000D02*
D03*
Y4918400D02*
D03*
Y4943800D02*
D03*
Y4969200D02*
D03*
Y4994600D02*
D03*
X10290000Y4791400D02*
D03*
Y4816800D02*
D03*
Y4842200D02*
D03*
Y4867600D02*
D03*
Y4893000D02*
D03*
Y4918400D02*
D03*
Y4943800D02*
D03*
Y4969200D02*
D03*
Y4994600D02*
D03*
D15*
X10170000Y5020000D02*
D03*
X10290000D02*
D03*
M02*
