G04 Layer_Color=32768*
%FSLAX44Y44*%
%MOMM*%
G71*
G01*
G75*
%ADD12C,0.1524*%
%ADD20C,0.1000*%
%ADD22C,0.2540*%
D12*
X10354142Y4195153D02*
Y4200232D01*
Y4197692D01*
X10338906D01*
X10341445Y4195153D01*
X10338906Y4207849D02*
Y4218006D01*
X10341445D01*
X10351603Y4207849D01*
X10354142D01*
X10341445Y4223084D02*
X10338906Y4225623D01*
Y4230702D01*
X10341445Y4233241D01*
X10351603D01*
X10354142Y4230702D01*
Y4225623D01*
X10351603Y4223084D01*
X10341445D01*
X10354142Y4258633D02*
X10349064Y4253554D01*
X10343984D01*
X10338906Y4258633D01*
X10354142Y4266250D02*
X10343984D01*
Y4268789D01*
X10346523Y4271329D01*
X10354142D01*
X10346523D01*
X10343984Y4273868D01*
X10346523Y4276407D01*
X10354142D01*
Y4281485D02*
X10343984D01*
Y4284024D01*
X10346523Y4286564D01*
X10354142D01*
X10346523D01*
X10343984Y4289103D01*
X10346523Y4291642D01*
X10354142D01*
Y4296720D02*
X10349064Y4301799D01*
X10343984D01*
X10338906Y4296720D01*
X10182771Y5135859D02*
X10187849D01*
X10185310D01*
Y5151094D01*
X10182771Y5148554D01*
X10205623Y5151094D02*
X10195467D01*
Y5143476D01*
X10200545Y5146015D01*
X10203084D01*
X10205623Y5143476D01*
Y5138398D01*
X10203084Y5135859D01*
X10198006D01*
X10195467Y5138398D01*
X10231015Y5135859D02*
X10225937Y5140937D01*
Y5146015D01*
X10231015Y5151094D01*
X10238633Y5135859D02*
Y5146015D01*
X10241172D01*
X10243711Y5143476D01*
Y5135859D01*
Y5143476D01*
X10246250Y5146015D01*
X10248789Y5143476D01*
Y5135859D01*
X10253868D02*
Y5146015D01*
X10256407D01*
X10258947Y5143476D01*
Y5135859D01*
Y5143476D01*
X10261486Y5146015D01*
X10264025Y5143476D01*
Y5135859D01*
X10269103D02*
X10274181Y5140937D01*
Y5146015D01*
X10269103Y5151094D01*
D20*
X10271500Y4471000D02*
X10278500D01*
X10271500Y4489000D02*
X10278500D01*
Y4471000D02*
Y4489000D01*
X10271500Y4471000D02*
Y4489000D01*
X10275000Y4477000D02*
Y4483000D01*
X10272001Y4480000D02*
X10278000D01*
X10271500Y3609000D02*
X10278500D01*
X10271500Y3591000D02*
X10278500D01*
X10271500D02*
Y3609000D01*
X10278500Y3591000D02*
Y3609000D01*
X10275000Y3597000D02*
Y3603000D01*
X10272000Y3600000D02*
X10277999D01*
X10221000Y5086500D02*
Y5093500D01*
X10239000Y5086500D02*
Y5093500D01*
X10221000Y5086500D02*
X10239000D01*
X10221000Y5093500D02*
X10239000D01*
X10227000Y5090000D02*
X10233000D01*
X10230000Y5087000D02*
Y5093000D01*
X10259000Y5086500D02*
Y5093500D01*
X10241000Y5086500D02*
Y5093500D01*
X10259000D01*
X10241000Y5086500D02*
X10259000D01*
X10247000Y5090000D02*
X10253000D01*
X10250000Y5087000D02*
Y5093000D01*
X10266500Y4891000D02*
X10273500D01*
X10266500Y4909000D02*
X10273500D01*
Y4891000D02*
Y4909000D01*
X10266500Y4891000D02*
Y4909000D01*
X10270000Y4897000D02*
Y4903000D01*
X10267000Y4900000D02*
X10273000D01*
X10266990Y4801760D02*
X10273990D01*
X10266990Y4819760D02*
X10273990D01*
Y4801760D02*
Y4819760D01*
X10266990Y4801760D02*
Y4819760D01*
X10270491Y4807760D02*
Y4813760D01*
X10267490Y4810760D02*
X10273490D01*
X10271500Y4719000D02*
X10278500D01*
X10271500Y4701000D02*
X10278500D01*
X10271500D02*
Y4719000D01*
X10278500Y4701000D02*
Y4719000D01*
X10275000Y4707000D02*
Y4713000D01*
X10272000Y4710000D02*
X10277999D01*
X10271500Y4694000D02*
X10278500D01*
X10271500Y4676000D02*
X10278500D01*
X10271500D02*
Y4694000D01*
X10278500Y4676000D02*
Y4694000D01*
X10275000Y4682000D02*
Y4688000D01*
X10272000Y4685000D02*
X10277999D01*
X10271500Y4581000D02*
X10278500D01*
X10271500Y4599000D02*
X10278500D01*
Y4581000D02*
Y4599000D01*
X10271500Y4581000D02*
Y4599000D01*
X10275000Y4587000D02*
Y4593000D01*
X10272001Y4590000D02*
X10278000D01*
X10271500Y4379000D02*
X10278500D01*
X10271500Y4361000D02*
X10278500D01*
X10271500D02*
Y4379000D01*
X10278500Y4361000D02*
Y4379000D01*
X10275000Y4367000D02*
Y4373000D01*
X10272000Y4370000D02*
X10277999D01*
X10271500Y4031000D02*
X10278500D01*
X10271500Y4049000D02*
X10278500D01*
Y4031000D02*
Y4049000D01*
X10271500Y4031000D02*
Y4049000D01*
X10275000Y4037000D02*
Y4043000D01*
X10272001Y4040000D02*
X10278000D01*
X10271500Y4159000D02*
X10278500D01*
X10271500Y4141000D02*
X10278500D01*
X10271500D02*
Y4159000D01*
X10278500Y4141000D02*
Y4159000D01*
X10275000Y4147000D02*
Y4153000D01*
X10272000Y4150000D02*
X10277999D01*
X10271500Y3921000D02*
X10278500D01*
X10271500Y3939000D02*
X10278500D01*
Y3921000D02*
Y3939000D01*
X10271500Y3921000D02*
Y3939000D01*
X10275000Y3927000D02*
Y3933000D01*
X10272001Y3930000D02*
X10278000D01*
X10271500Y3811000D02*
X10278500D01*
X10271500Y3829000D02*
X10278500D01*
Y3811000D02*
Y3829000D01*
X10271500Y3811000D02*
Y3829000D01*
X10275000Y3817000D02*
Y3823000D01*
X10272001Y3820000D02*
X10278000D01*
X10271500Y3701000D02*
X10278500D01*
X10271500Y3719000D02*
X10278500D01*
Y3701000D02*
Y3719000D01*
X10271500Y3701000D02*
Y3719000D01*
X10275000Y3707000D02*
Y3713000D01*
X10272001Y3710000D02*
X10278000D01*
X10271500Y4269000D02*
X10278500D01*
X10271500Y4251000D02*
X10278500D01*
X10271500D02*
Y4269000D01*
X10278500Y4251000D02*
Y4269000D01*
X10275000Y4257000D02*
Y4263000D01*
X10272000Y4260000D02*
X10277999D01*
D22*
X10342460Y5100000D02*
X10347540D01*
X10342460Y3400000D02*
X10347540D01*
X10345000Y5100000D02*
X10350081Y5084760D01*
X10339919D02*
X10345000Y5100000D01*
Y3400000D02*
X10350081Y3415240D01*
X10339919D02*
X10345000Y3400000D01*
Y4307387D02*
Y5100000D01*
Y3400000D02*
Y4192613D01*
X10305000Y5142460D02*
Y5147540D01*
X10155000Y5142460D02*
Y5147540D01*
X10289760Y5139920D02*
X10305000Y5145000D01*
X10289760Y5150080D02*
X10305000Y5145000D01*
X10155000D02*
X10170240Y5139920D01*
X10155000Y5145000D02*
X10170240Y5150080D01*
X10279769Y5145000D02*
X10305000D01*
X10155000D02*
X10180231D01*
M02*
