G04 Layer_Color=16711935*
%FSLAX44Y44*%
%MOMM*%
G71*
G01*
G75*
%ADD26C,1.7272*%
%ADD27R,1.7272X1.7272*%
%ADD28C,0.8382*%
%ADD29O,1.6532X0.8032*%
%ADD30R,0.7032X0.8032*%
%ADD31R,0.8032X0.7032*%
D26*
X10170000Y4791400D02*
D03*
Y4816800D02*
D03*
Y4842200D02*
D03*
Y4867600D02*
D03*
Y4893000D02*
D03*
Y4918400D02*
D03*
Y4943800D02*
D03*
Y4969200D02*
D03*
Y4994600D02*
D03*
X10290000Y4791400D02*
D03*
Y4816800D02*
D03*
Y4842200D02*
D03*
Y4867600D02*
D03*
Y4893000D02*
D03*
Y4918400D02*
D03*
Y4943800D02*
D03*
Y4969200D02*
D03*
Y4994600D02*
D03*
D27*
X10170000Y5020000D02*
D03*
X10290000D02*
D03*
D28*
X10231120Y5069840D02*
D03*
Y5059680D02*
D03*
Y5046980D02*
D03*
X10229850Y5015230D02*
D03*
Y5003800D02*
D03*
Y4988560D02*
D03*
Y4959350D02*
D03*
Y4946650D02*
D03*
Y4933950D02*
D03*
Y4895850D02*
D03*
Y4883150D02*
D03*
Y4870450D02*
D03*
Y4853940D02*
D03*
Y4841240D02*
D03*
Y4827270D02*
D03*
Y4790440D02*
D03*
Y4777740D02*
D03*
Y4765040D02*
D03*
Y4743450D02*
D03*
Y4730750D02*
D03*
Y4718050D02*
D03*
Y4679950D02*
D03*
Y4667250D02*
D03*
Y4655820D02*
D03*
Y4635500D02*
D03*
Y4622800D02*
D03*
Y4610100D02*
D03*
Y4572000D02*
D03*
Y4559300D02*
D03*
Y4545330D02*
D03*
Y4523740D02*
D03*
Y4512310D02*
D03*
Y4499610D02*
D03*
X10170160Y3442970D02*
D03*
X10181590D02*
D03*
X10229850Y4461510D02*
D03*
Y4447540D02*
D03*
Y4434840D02*
D03*
Y4414520D02*
D03*
Y4400550D02*
D03*
Y4389120D02*
D03*
Y4351020D02*
D03*
Y4338320D02*
D03*
Y4325620D02*
D03*
Y4304030D02*
D03*
Y4292600D02*
D03*
Y4279900D02*
D03*
Y4241800D02*
D03*
X10230270Y4228250D02*
D03*
X10229850Y4216400D02*
D03*
Y4194810D02*
D03*
Y4182110D02*
D03*
Y4169410D02*
D03*
Y4131310D02*
D03*
Y4118610D02*
D03*
Y4105910D02*
D03*
Y4084320D02*
D03*
Y4071620D02*
D03*
Y4058920D02*
D03*
X10229980Y4020950D02*
D03*
X10229850Y4008120D02*
D03*
Y3995420D02*
D03*
Y3973830D02*
D03*
Y3961130D02*
D03*
Y3948430D02*
D03*
X10230470Y3910950D02*
D03*
X10229850Y3898900D02*
D03*
Y3886200D02*
D03*
X10230010Y3864450D02*
D03*
X10229850Y3851910D02*
D03*
Y3839210D02*
D03*
Y3801110D02*
D03*
Y3788410D02*
D03*
Y3775710D02*
D03*
Y3754120D02*
D03*
Y3741420D02*
D03*
Y3728720D02*
D03*
Y3690620D02*
D03*
Y3677920D02*
D03*
Y3665220D02*
D03*
X10230300Y3644450D02*
D03*
X10229850Y3632200D02*
D03*
Y3619500D02*
D03*
Y3581400D02*
D03*
Y3568700D02*
D03*
Y3556000D02*
D03*
X10229890Y3534450D02*
D03*
X10229850Y3521710D02*
D03*
Y3509010D02*
D03*
X10232350Y3458250D02*
D03*
X10231120Y3469640D02*
D03*
X10232430Y3445550D02*
D03*
D29*
X10257250Y5069450D02*
D03*
Y5056750D02*
D03*
Y5044050D02*
D03*
Y5031350D02*
D03*
Y5018650D02*
D03*
Y5005950D02*
D03*
Y4993250D02*
D03*
Y4980550D02*
D03*
X10202750Y5069450D02*
D03*
Y5056750D02*
D03*
Y5044050D02*
D03*
Y5031350D02*
D03*
Y5018650D02*
D03*
Y5005950D02*
D03*
Y4993250D02*
D03*
Y4980550D02*
D03*
Y4870550D02*
D03*
Y4883250D02*
D03*
Y4895950D02*
D03*
Y4908650D02*
D03*
Y4921350D02*
D03*
Y4934050D02*
D03*
Y4946750D02*
D03*
Y4959450D02*
D03*
X10257250Y4870550D02*
D03*
Y4883250D02*
D03*
Y4895950D02*
D03*
Y4908650D02*
D03*
Y4921350D02*
D03*
Y4934050D02*
D03*
Y4946750D02*
D03*
Y4959450D02*
D03*
Y4854450D02*
D03*
Y4841750D02*
D03*
Y4829050D02*
D03*
Y4816350D02*
D03*
Y4803650D02*
D03*
Y4790950D02*
D03*
Y4778250D02*
D03*
Y4765550D02*
D03*
X10202750Y4854450D02*
D03*
Y4841750D02*
D03*
Y4829050D02*
D03*
Y4816350D02*
D03*
Y4803650D02*
D03*
Y4790950D02*
D03*
Y4778250D02*
D03*
Y4765550D02*
D03*
Y4655550D02*
D03*
Y4668250D02*
D03*
Y4680950D02*
D03*
Y4693650D02*
D03*
Y4706350D02*
D03*
Y4719050D02*
D03*
Y4731750D02*
D03*
Y4744450D02*
D03*
X10257250Y4655550D02*
D03*
Y4668250D02*
D03*
Y4680950D02*
D03*
Y4693650D02*
D03*
Y4706350D02*
D03*
Y4719050D02*
D03*
Y4731750D02*
D03*
Y4744450D02*
D03*
Y4634450D02*
D03*
Y4621750D02*
D03*
Y4609050D02*
D03*
Y4596350D02*
D03*
Y4583650D02*
D03*
Y4570950D02*
D03*
Y4558250D02*
D03*
Y4545550D02*
D03*
X10202750Y4634450D02*
D03*
Y4621750D02*
D03*
Y4609050D02*
D03*
Y4596350D02*
D03*
Y4583650D02*
D03*
Y4570950D02*
D03*
Y4558250D02*
D03*
Y4545550D02*
D03*
Y4435550D02*
D03*
Y4448250D02*
D03*
Y4460950D02*
D03*
Y4473650D02*
D03*
Y4486350D02*
D03*
Y4499050D02*
D03*
Y4511750D02*
D03*
Y4524450D02*
D03*
X10257250Y4435550D02*
D03*
Y4448250D02*
D03*
Y4460950D02*
D03*
Y4473650D02*
D03*
Y4486350D02*
D03*
Y4499050D02*
D03*
Y4511750D02*
D03*
Y4524450D02*
D03*
Y4414450D02*
D03*
Y4401750D02*
D03*
Y4389050D02*
D03*
Y4376350D02*
D03*
Y4363650D02*
D03*
Y4350950D02*
D03*
Y4338250D02*
D03*
Y4325550D02*
D03*
X10202750Y4414450D02*
D03*
Y4401750D02*
D03*
Y4389050D02*
D03*
Y4376350D02*
D03*
Y4363650D02*
D03*
Y4350950D02*
D03*
Y4338250D02*
D03*
Y4325550D02*
D03*
Y4215550D02*
D03*
Y4228250D02*
D03*
Y4240950D02*
D03*
Y4253650D02*
D03*
Y4266350D02*
D03*
Y4279050D02*
D03*
Y4291750D02*
D03*
Y4304450D02*
D03*
X10257250Y4215550D02*
D03*
Y4228250D02*
D03*
Y4240950D02*
D03*
Y4253650D02*
D03*
Y4266350D02*
D03*
Y4279050D02*
D03*
Y4291750D02*
D03*
Y4304450D02*
D03*
Y4194450D02*
D03*
Y4181750D02*
D03*
Y4169050D02*
D03*
Y4156350D02*
D03*
Y4143650D02*
D03*
Y4130950D02*
D03*
Y4118250D02*
D03*
Y4105550D02*
D03*
X10202750Y4194450D02*
D03*
Y4181750D02*
D03*
Y4169050D02*
D03*
Y4156350D02*
D03*
Y4143650D02*
D03*
Y4130950D02*
D03*
Y4118250D02*
D03*
Y4105550D02*
D03*
Y3995550D02*
D03*
Y4008250D02*
D03*
Y4020950D02*
D03*
Y4033650D02*
D03*
Y4046350D02*
D03*
Y4059050D02*
D03*
Y4071750D02*
D03*
Y4084450D02*
D03*
X10257250Y3995550D02*
D03*
Y4008250D02*
D03*
Y4020950D02*
D03*
Y4033650D02*
D03*
Y4046350D02*
D03*
Y4059050D02*
D03*
Y4071750D02*
D03*
Y4084450D02*
D03*
Y3974450D02*
D03*
Y3961750D02*
D03*
Y3949050D02*
D03*
Y3936350D02*
D03*
Y3923650D02*
D03*
Y3910950D02*
D03*
Y3898250D02*
D03*
Y3885550D02*
D03*
X10202750Y3974450D02*
D03*
Y3961750D02*
D03*
Y3949050D02*
D03*
Y3936350D02*
D03*
Y3923650D02*
D03*
Y3910950D02*
D03*
Y3898250D02*
D03*
Y3885550D02*
D03*
Y3775550D02*
D03*
Y3788250D02*
D03*
Y3800950D02*
D03*
Y3813650D02*
D03*
Y3826350D02*
D03*
Y3839050D02*
D03*
Y3851750D02*
D03*
Y3864450D02*
D03*
X10257250Y3775550D02*
D03*
Y3788250D02*
D03*
Y3800950D02*
D03*
Y3813650D02*
D03*
Y3826350D02*
D03*
Y3839050D02*
D03*
Y3851750D02*
D03*
Y3864450D02*
D03*
Y3754450D02*
D03*
Y3741750D02*
D03*
Y3729050D02*
D03*
Y3716350D02*
D03*
Y3703650D02*
D03*
Y3690950D02*
D03*
Y3678250D02*
D03*
Y3665550D02*
D03*
X10202750Y3754450D02*
D03*
Y3741750D02*
D03*
Y3729050D02*
D03*
Y3716350D02*
D03*
Y3703650D02*
D03*
Y3690950D02*
D03*
Y3678250D02*
D03*
Y3665550D02*
D03*
Y3555550D02*
D03*
Y3568250D02*
D03*
Y3580950D02*
D03*
Y3593650D02*
D03*
Y3606350D02*
D03*
Y3619050D02*
D03*
Y3631750D02*
D03*
Y3644450D02*
D03*
X10257250Y3555550D02*
D03*
Y3568250D02*
D03*
Y3580950D02*
D03*
Y3593650D02*
D03*
Y3606350D02*
D03*
Y3619050D02*
D03*
Y3631750D02*
D03*
Y3644450D02*
D03*
Y3534450D02*
D03*
Y3521750D02*
D03*
Y3509050D02*
D03*
Y3496350D02*
D03*
Y3483650D02*
D03*
Y3470950D02*
D03*
Y3458250D02*
D03*
Y3445550D02*
D03*
X10202750Y3534450D02*
D03*
Y3521750D02*
D03*
Y3509050D02*
D03*
Y3496350D02*
D03*
Y3483650D02*
D03*
Y3470950D02*
D03*
Y3458250D02*
D03*
Y3445550D02*
D03*
D30*
X10275000Y4475000D02*
D03*
Y4485000D02*
D03*
Y3605000D02*
D03*
Y3595000D02*
D03*
X10270000Y4895000D02*
D03*
Y4905000D02*
D03*
X10270491Y4805760D02*
D03*
Y4815760D02*
D03*
X10275000Y4715000D02*
D03*
Y4705000D02*
D03*
Y4690000D02*
D03*
Y4680000D02*
D03*
Y4585000D02*
D03*
Y4595000D02*
D03*
Y4375000D02*
D03*
Y4365000D02*
D03*
Y4035000D02*
D03*
Y4045000D02*
D03*
Y4155000D02*
D03*
Y4145000D02*
D03*
Y3925000D02*
D03*
Y3935000D02*
D03*
Y3815000D02*
D03*
Y3825000D02*
D03*
Y3705000D02*
D03*
Y3715000D02*
D03*
Y4265000D02*
D03*
Y4255000D02*
D03*
D31*
X10225000Y5090000D02*
D03*
X10235000D02*
D03*
X10255000D02*
D03*
X10245000D02*
D03*
M02*
